<?xml version="1.0" standalone="no"?>
<!DOCTYPE svg PUBLIC "-//W3C//DTD SVG 1.1//EN" "http://www.w3.org/Graphics/SVG/1.1/DTD/svg11.dtd" >
<svg>
<metadata>
Created by FontForge 20090914 at Sun Aug 22 17:46:57 2021
 By www-data
&#194;&#169; 2015-2017 Apple Inc. All rights reserved.
</metadata>
<defs>
<font id="SFProDisplay-Black" horiz-adv-x="1724" >
  <font-face 
    font-family="SF Pro Display"
    font-weight="900"
    font-stretch="normal"
    units-per-em="2048"
    panose-1="0 0 10 0 0 0 0 0 0 0"
    ascent="1638"
    descent="-410"
    x-height="1104"
    cap-height="1443"
    bbox="-660 -603.001 2697 2231"
    underline-thickness="260"
    underline-position="-380"
    unicode-range="U+0020-U+1F189"
  />
<missing-glyph horiz-adv-x="2048" 
d="M100 -494v128h1848v-128h-1848zM100 -31v128h1848v-128h-1848zM100 432v129h1848v-129h-1848zM100 896v128h1848v-128h-1848zM100 1359v128h1848v-128h-1848zM100 1822v128h1848v-128h-1848z" />
    <glyph glyph-name="uni2460" unicode="&#x31;&#x20dd;" 
d="M1033 377h-272v464h-8l-154 -103v226l162 105h272v-692zM862 164c75.333 0 146.833 14.667 214.5 44s125.667 69 174 119s86.666 109.167 114.999 177.5s42.5 140.166 42.5 215.499s-14.167 147.166 -42.5 215.499s-66.666 127.5 -114.999 177.5
s-106.333 89.667 -174 119s-139.167 44 -214.5 44s-146.833 -14.667 -214.5 -44s-125.667 -69 -174 -119s-86.666 -109.167 -114.999 -177.5s-42.5 -140.166 -42.5 -215.499s14.167 -147.166 42.5 -215.499s66.666 -127.5 114.999 -177.5s106.333 -89.667 174 -119
s139.167 -44 214.5 -44zM862 -59c-108 0 -210 20.167 -306 60.5s-178.5 95 -247.5 164s-123.667 151.667 -164 248s-60.5 198.5 -60.5 306.5s20.167 210.167 60.5 306.5s95 179 164 248s151.5 123.667 247.5 164s198 60.5 306 60.5s210 -20.167 306 -60.5
s178.5 -95 247.5 -164s123.667 -151.667 164 -248s60.5 -198.5 60.5 -306.5s-20.167 -210.167 -60.5 -306.5s-95 -179 -164 -248s-151.5 -123.667 -247.5 -164s-198 -60.5 -306 -60.5z" />
    <glyph glyph-name="uni2461" unicode="&#x32;&#x20dd;" 
d="M811 818h-248c0 79.333 27.333 142.5 82 189.5s127.667 70.5 219 70.5c84.667 0 153.5 -20.167 206.5 -60.5s79.5 -92.5 79.5 -156.5c0 -34 -10.667 -67.5 -32 -100.5s-56.333 -69.833 -105 -110.5l-69 -58v-8h215v-208h-577v168l231 198
c28 25.333 46.833 44.5 56.5 57.5s14.5 25.833 14.5 38.5c0 22 -11.333 33 -34 33c-27.333 0 -40.333 -17.667 -39 -53zM862 164c75.333 0 146.833 14.667 214.5 44s125.667 69 174 119s86.666 109.167 114.999 177.5s42.5 140.166 42.5 215.499
s-14.167 147.166 -42.5 215.499s-66.666 127.5 -114.999 177.5s-106.333 89.667 -174 119s-139.167 44 -214.5 44s-146.833 -14.667 -214.5 -44s-125.667 -69 -174 -119s-86.666 -109.167 -114.999 -177.5s-42.5 -140.166 -42.5 -215.499s14.167 -147.166 42.5 -215.499
s66.666 -127.5 114.999 -177.5s106.333 -89.667 174 -119s139.167 -44 214.5 -44zM862 -59c-108 0 -210 20.167 -306 60.5s-178.5 95 -247.5 164s-123.667 151.667 -164 248s-60.5 198.5 -60.5 306.5s20.167 210.167 60.5 306.5s95 179 164 248s151.5 123.667 247.5 164
s198 60.5 306 60.5s210 -20.167 306 -60.5s178.5 -95 247.5 -164s123.667 -151.667 164 -248s60.5 -198.5 60.5 -306.5s-20.167 -210.167 -60.5 -306.5s-95 -179 -164 -248s-151.5 -123.667 -247.5 -164s-198 -60.5 -306 -60.5z" />
    <glyph glyph-name="uni2462" unicode="&#x33;&#x20dd;" 
d="M792 628l0.000976562 190.999h62c15.333 0 27.666 3.66699 36.999 11s14 17.333 14 30c0 22 -17 33 -51 33c-18.667 0 -33.667 -5.83301 -45 -17.5s-17 -27.167 -17 -46.5h-245c7.33301 166 111 249 311 249c92 -0.666992 164.833 -18 218.5 -52s80.5 -80.333 80.5 -139
c0 -32.667 -12.667 -62.667 -38 -90s-55.333 -43.333 -90 -48v-13c41.333 -3.33301 75.5 -20.166 102.5 -50.499s40.5 -66.833 40.5 -109.5c0 -64.667 -28 -115.667 -84 -153s-132.667 -56 -230 -56c-94.667 0 -170.167 22.667 -226.5 68s-84.5 106 -84.5 182h245
c0 -18 5.5 -32.167 16.5 -42.5s26.167 -15.5 45.5 -15.5c38.667 0 58 11.333 58 34c0 23.333 -19.333 35 -58 35h-62zM862.001 163.999c75.333 0 146.833 14.667 214.5 44s125.667 69 174 119s86.666 109.167 114.999 177.5s42.5 140.166 42.5 215.499
s-14.167 147.166 -42.5 215.499s-66.666 127.5 -114.999 177.5s-106.333 89.667 -174 119s-139.167 44 -214.5 44s-146.833 -14.667 -214.5 -44s-125.667 -69 -174 -119s-86.666 -109.167 -114.999 -177.5s-42.5 -140.166 -42.5 -215.499s14.167 -147.166 42.5 -215.499
s66.666 -127.5 114.999 -177.5s106.333 -89.667 174 -119s139.167 -44 214.5 -44zM862.001 -59.001c-108 0 -210 20.167 -306 60.5s-178.5 95 -247.5 164s-123.667 151.667 -164 248s-60.5 198.5 -60.5 306.5s20.167 210.167 60.5 306.5s95 179 164 248
s151.5 123.667 247.5 164s198 60.5 306 60.5s210 -20.167 306 -60.5s178.5 -95 247.5 -164s123.667 -151.667 164 -248s60.5 -198.5 60.5 -306.5s-20.167 -210.167 -60.5 -306.5s-95 -179 -164 -248s-151.5 -123.667 -247.5 -164s-198 -60.5 -306 -60.5z" />
    <glyph glyph-name="uni2463" unicode="&#x34;&#x20dd;" 
d="M734 1069h353v-404h99v-194h-99v-94h-212v94h-340v198c58 130 124.333 263.333 199 400zM758 665h117v254h-8c-48.667 -97.333 -85 -182 -109 -254zM862 164c75.333 0 146.833 14.667 214.5 44s125.667 69 174 119s86.666 109.167 114.999 177.5
s42.5 140.166 42.5 215.499s-14.167 147.166 -42.5 215.499s-66.666 127.5 -114.999 177.5s-106.333 89.667 -174 119s-139.167 44 -214.5 44s-146.833 -14.667 -214.5 -44s-125.667 -69 -174 -119s-86.666 -109.167 -114.999 -177.5s-42.5 -140.166 -42.5 -215.499
s14.167 -147.166 42.5 -215.499s66.666 -127.5 114.999 -177.5s106.333 -89.667 174 -119s139.167 -44 214.5 -44zM862 -59c-108 0 -210 20.167 -306 60.5s-178.5 95 -247.5 164s-123.667 151.667 -164 248s-60.5 198.5 -60.5 306.5s20.167 210.167 60.5 306.5
s95 179 164 248s151.5 123.667 247.5 164s198 60.5 306 60.5s210 -20.167 306 -60.5s178.5 -95 247.5 -164s123.667 -151.667 164 -248s60.5 -198.5 60.5 -306.5s-20.167 -210.167 -60.5 -306.5s-95 -179 -164 -248s-151.5 -123.667 -247.5 -164s-198 -60.5 -306 -60.5z" />
    <glyph glyph-name="uni2464" unicode="&#x35;&#x20dd;" 
d="M572 615l248 0.000976562c2.66699 -12.667 9.16699 -23.167 19.5 -31.5s22.166 -12.5 35.499 -12.5c16 0 29.5 5.66699 40.5 17s16.5 25 16.5 41c0 15.333 -5.5 28.666 -16.5 39.999s-24.5 17 -40.5 17c-23.333 0 -40 -10 -50 -30h-241l23 423h528v-183h-332l-7 -108h13
c10.667 20.667 30 37.334 58 50.001s59.667 19 95 19c68.667 0 123.334 -19.833 164.001 -59.5s61 -93.167 61 -160.5c0 -80.667 -27.667 -144.334 -83 -191.001s-131 -70 -227 -70c-90 0 -163.333 22.167 -220 66.5s-85 101.833 -85 172.5zM862 164.001
c75.333 0 146.833 14.667 214.5 44s125.667 69 174 119s86.666 109.167 114.999 177.5s42.5 140.166 42.5 215.499s-14.167 147.166 -42.5 215.499s-66.666 127.5 -114.999 177.5s-106.333 89.667 -174 119s-139.167 44 -214.5 44s-146.833 -14.667 -214.5 -44
s-125.667 -69 -174 -119s-86.666 -109.167 -114.999 -177.5s-42.5 -140.166 -42.5 -215.499s14.167 -147.166 42.5 -215.499s66.666 -127.5 114.999 -177.5s106.333 -89.667 174 -119s139.167 -44 214.5 -44zM862 -58.999c-108 0 -210 20.167 -306 60.5
s-178.5 95 -247.5 164s-123.667 151.667 -164 248s-60.5 198.5 -60.5 306.5s20.167 210.167 60.5 306.5s95 179 164 248s151.5 123.667 247.5 164s198 60.5 306 60.5s210 -20.167 306 -60.5s178.5 -95 247.5 -164s123.667 -151.667 164 -248s60.5 -198.5 60.5 -306.5
s-20.167 -210.167 -60.5 -306.5s-95 -179 -164 -248s-151.5 -123.667 -247.5 -164s-198 -60.5 -306 -60.5z" />
    <glyph glyph-name="uni2465" unicode="&#x36;&#x20dd;" 
d="M1163 865l-238.002 0.000976562c-12 18.667 -29 28 -51 28c-27.333 0 -48.166 -14 -62.499 -42s-17.833 -61.667 -10.5 -101h8c26.667 54.667 76 82 148 82c68 0 121.667 -18.833 161 -56.5s59 -89.167 59 -154.5c0 -76.667 -27.833 -138.334 -83.5 -185.001
s-129.5 -70 -221.5 -70c-125.333 0 -217.333 47 -276 141c-37.333 60.667 -56 136.334 -56 227.001c0 107.333 29.333 191.666 88 252.999s139.334 92 242.001 92c78 0 144.5 -20 199.5 -60s86.167 -91.333 93.5 -154zM810.998 616.001
c0 -16.667 5.33301 -30.334 16 -41.001s24.667 -16 42 -16c16.667 0 30.334 5.33301 41.001 16s16 24.334 16 41.001s-5.33301 30.334 -16 41.001s-24.334 16 -41.001 16s-30.5 -5.33301 -41.5 -16s-16.5 -24.334 -16.5 -41.001zM861.998 164.001
c75.333 0 146.833 14.667 214.5 44s125.667 69 174 119s86.666 109.167 114.999 177.5s42.5 140.166 42.5 215.499s-14.167 147.166 -42.5 215.499s-66.666 127.5 -114.999 177.5s-106.333 89.667 -174 119s-139.167 44 -214.5 44s-146.833 -14.667 -214.5 -44
s-125.667 -69 -174 -119s-86.666 -109.167 -114.999 -177.5s-42.5 -140.166 -42.5 -215.499s14.167 -147.166 42.5 -215.499s66.666 -127.5 114.999 -177.5s106.333 -89.667 174 -119s139.167 -44 214.5 -44zM861.998 -58.999c-108 0 -210 20.167 -306 60.5
s-178.5 95 -247.5 164s-123.667 151.667 -164 248s-60.5 198.5 -60.5 306.5s20.167 210.167 60.5 306.5s95 179 164 248s151.5 123.667 247.5 164s198 60.5 306 60.5s210 -20.167 306 -60.5s178.5 -95 247.5 -164s123.667 -151.667 164 -248s60.5 -198.5 60.5 -306.5
s-20.167 -210.167 -60.5 -306.5s-95 -179 -164 -248s-151.5 -123.667 -247.5 -164s-198 -60.5 -306 -60.5z" />
    <glyph glyph-name="uni2466" unicode="&#x37;&#x20dd;" 
d="M566 1069h594v-209l-251 -483h-290l268 475v9h-321v208zM862 164c75.333 0 146.833 14.667 214.5 44s125.667 69 174 119s86.666 109.167 114.999 177.5s42.5 140.166 42.5 215.499s-14.167 147.166 -42.5 215.499s-66.666 127.5 -114.999 177.5
s-106.333 89.667 -174 119s-139.167 44 -214.5 44s-146.833 -14.667 -214.5 -44s-125.667 -69 -174 -119s-86.666 -109.167 -114.999 -177.5s-42.5 -140.166 -42.5 -215.499s14.167 -147.166 42.5 -215.499s66.666 -127.5 114.999 -177.5s106.333 -89.667 174 -119
s139.167 -44 214.5 -44zM862 -59c-108 0 -210 20.167 -306 60.5s-178.5 95 -247.5 164s-123.667 151.667 -164 248s-60.5 198.5 -60.5 306.5s20.167 210.167 60.5 306.5s95 179 164 248s151.5 123.667 247.5 164s198 60.5 306 60.5s210 -20.167 306 -60.5
s178.5 -95 247.5 -164s123.667 -151.667 164 -248s60.5 -198.5 60.5 -306.5s-20.167 -210.167 -60.5 -306.5s-95 -179 -164 -248s-151.5 -123.667 -247.5 -164s-198 -60.5 -306 -60.5z" />
    <glyph glyph-name="uni2467" unicode="&#x38;&#x20dd;" 
d="M862 537c16.667 0 30.5 5.66699 41.5 17s16.5 25.666 16.5 42.999s-5.5 32 -16.5 44s-24.833 18 -41.5 18s-30.5 -6 -41.5 -18s-16.5 -26.667 -16.5 -44s5.5 -31.666 16.5 -42.999s24.833 -17 41.5 -17zM862 811c13.333 0 24.5 4.66699 33.5 14s13.5 20.666 13.5 33.999
s-4.66699 24.833 -14 34.5s-20.333 14.5 -33 14.5s-23.667 -4.83301 -33 -14.5s-14 -21.167 -14 -34.5s4.5 -24.666 13.5 -33.999s20.167 -14 33.5 -14zM862 366c-104 0 -185.837 18.667 -245.504 56s-89.5 88.666 -89.5 153.999c0 44.667 14.5 81.334 43.5 110.001
s68.167 45.667 117.5 51v11c-45.333 12 -78.666 29.5 -99.999 52.5s-32 52.833 -32 89.5c0 58 27.333 103.833 82 137.5s129.334 50.5 224.001 50.5s169.334 -16.833 224.001 -50.5s82 -79.5 82 -137.5c0 -36.667 -10.667 -66.5 -32 -89.5s-54.666 -40.5 -99.999 -52.5v-11
c49.333 -5.33301 88.5 -22.333 117.5 -51s43.5 -65.334 43.5 -110.001c0 -65.333 -29.833 -116.666 -89.5 -153.999s-141.5 -56 -245.5 -56zM861.996 164c75.333 0 146.833 14.667 214.5 44s125.667 69 174 119s86.666 109.167 114.999 177.5s42.5 140.166 42.5 215.499
s-14.167 147.166 -42.5 215.499s-66.666 127.5 -114.999 177.5s-106.333 89.667 -174 119s-139.167 44 -214.5 44s-146.833 -14.667 -214.5 -44s-125.667 -69 -174 -119s-86.666 -109.167 -114.999 -177.5s-42.5 -140.166 -42.5 -215.499s14.167 -147.166 42.5 -215.499
s66.666 -127.5 114.999 -177.5s106.333 -89.667 174 -119s139.167 -44 214.5 -44zM861.996 -59c-108 0 -210 20.167 -306 60.5s-178.5 95 -247.5 164s-123.667 151.667 -164 248s-60.5 198.5 -60.5 306.5s20.167 210.167 60.5 306.5s95 179 164 248s151.5 123.667 247.5 164
s198 60.5 306 60.5s210 -20.167 306 -60.5s178.5 -95 247.5 -164s123.667 -151.667 164 -248s60.5 -198.5 60.5 -306.5s-20.167 -210.167 -60.5 -306.5s-95 -179 -164 -248s-151.5 -123.667 -247.5 -164s-198 -60.5 -306 -60.5z" />
    <glyph glyph-name="uni2468" unicode="&#x39;&#x20dd;" 
d="M546 824c0 74 29.166 135 87.499 183s132.166 72 221.499 72c102.667 0 183 -31.5 241 -94.5s87 -150.5 87 -262.5c0 -111.333 -29.167 -198.5 -87.5 -261.5s-139.166 -94.5 -242.499 -94.5c-77.333 0 -143.666 20.5 -198.999 61.5s-86.666 92.833 -93.999 155.5h242
c12.667 -20 29.667 -30 51 -30c27.333 0 48 14 62 42s17.667 61.333 11 100h-8c-26 -54.667 -75 -82 -147 -82c-68.667 0 -123.334 19 -164.001 57s-61 89.333 -61 154zM915.999 829c0 16.667 -5.33301 30.334 -16 41.001s-24.334 16 -41.001 16s-30.5 -5.33301 -41.5 -16
s-16.5 -24.334 -16.5 -41.001s5.33301 -30.334 16 -41.001s24.667 -16 42 -16c16.667 0 30.334 5.33301 41.001 16s16 24.334 16 41.001zM861.999 164c75.333 0 146.833 14.667 214.5 44s125.667 69 174 119s86.666 109.167 114.999 177.5s42.5 140.166 42.5 215.499
s-14.167 147.166 -42.5 215.499s-66.666 127.5 -114.999 177.5s-106.333 89.667 -174 119s-139.167 44 -214.5 44s-146.833 -14.667 -214.5 -44s-125.667 -69 -174 -119s-86.666 -109.167 -114.999 -177.5s-42.5 -140.166 -42.5 -215.499s14.167 -147.166 42.5 -215.499
s66.666 -127.5 114.999 -177.5s106.333 -89.667 174 -119s139.167 -44 214.5 -44zM861.999 -59c-108 0 -210 20.167 -306 60.5s-178.5 95 -247.5 164s-123.667 151.667 -164 248s-60.5 198.5 -60.5 306.5s20.167 210.167 60.5 306.5s95 179 164 248s151.5 123.667 247.5 164
s198 60.5 306 60.5s210 -20.167 306 -60.5s178.5 -95 247.5 -164s123.667 -151.667 164 -248s60.5 -198.5 60.5 -306.5s-20.167 -210.167 -60.5 -306.5s-95 -179 -164 -248s-151.5 -123.667 -247.5 -164s-198 -60.5 -306 -60.5z" />
    <glyph glyph-name="uni24B6" unicode="A&#x20dd;" 
d="M815 687h94l-43 206h-8zM759 407h-267l203 692h334l203 -692h-267l-17 92h-172zM862 164c75.333 0 146.833 14.667 214.5 44s125.667 69 174 119s86.666 109.167 114.999 177.5s42.5 140.166 42.5 215.499s-14.167 147.166 -42.5 215.499s-66.666 127.5 -114.999 177.5
s-106.333 89.667 -174 119s-139.167 44 -214.5 44s-146.833 -14.667 -214.5 -44s-125.667 -69 -174 -119s-86.666 -109.167 -114.999 -177.5s-42.5 -140.166 -42.5 -215.499s14.167 -147.166 42.5 -215.499s66.666 -127.5 114.999 -177.5s106.333 -89.667 174 -119
s139.167 -44 214.5 -44zM862 -59c-108 0 -210 20.167 -306 60.5s-178.5 95 -247.5 164s-123.667 151.667 -164 248s-60.5 198.5 -60.5 306.5s20.167 210.167 60.5 306.5s95 179 164 248s151.5 123.667 247.5 164s198 60.5 306 60.5s210 -20.167 306 -60.5
s178.5 -95 247.5 -164s123.667 -151.667 164 -248s60.5 -198.5 60.5 -306.5s-20.167 -210.167 -60.5 -306.5s-95 -179 -164 -248s-151.5 -123.667 -247.5 -164s-198 -60.5 -306 -60.5z" />
    <glyph glyph-name="uni24B7" unicode="B&#x20dd;" 
d="M561 377l-0.000976562 692.001h392c68.667 0 122.5 -15.167 161.5 -45.5s58.5 -71.833 58.5 -124.5c0 -39.333 -13 -72.833 -39 -100.5s-60 -44.167 -102 -49.5v-8c52.667 -6.66699 93.334 -25.334 122.001 -56.001s43 -70.667 43 -120
c0 -54.667 -21.5 -99.667 -64.5 -135s-97.5 -53 -163.5 -53h-408zM803.999 912.001v-111.001h60c45.333 0 68 19 68 57c0 16.667 -6.33301 29.834 -19 39.501s-29 14.5 -49 14.5h-60zM802.999 669v-122h64c23.333 0 41.333 5.5 54 16.5s19 26.5 19 46.5
c0 18 -6.5 32.333 -19.5 43s-30.833 16 -53.5 16h-64zM861.999 164c75.333 0 146.833 14.667 214.5 44s125.667 69 174 119s86.666 109.167 114.999 177.5s42.5 140.166 42.5 215.499s-14.167 147.166 -42.5 215.499s-66.666 127.5 -114.999 177.5s-106.333 89.667 -174 119
s-139.167 44 -214.5 44s-146.833 -14.667 -214.5 -44s-125.667 -69 -174 -119s-86.666 -109.167 -114.999 -177.5s-42.5 -140.166 -42.5 -215.499s14.167 -147.166 42.5 -215.499s66.666 -127.5 114.999 -177.5s106.333 -89.667 174 -119s139.167 -44 214.5 -44z
M861.999 -59c-108 0 -210 20.167 -306 60.5s-178.5 95 -247.5 164s-123.667 151.667 -164 248s-60.5 198.5 -60.5 306.5s20.167 210.167 60.5 306.5s95 179 164 248s151.5 123.667 247.5 164s198 60.5 306 60.5s210 -20.167 306 -60.5s178.5 -95 247.5 -164
s123.667 -151.667 164 -248s60.5 -198.5 60.5 -306.5s-20.167 -210.167 -60.5 -306.5s-95 -179 -164 -248s-151.5 -123.667 -247.5 -164s-198 -60.5 -306 -60.5z" />
    <glyph glyph-name="uni24B8" unicode="C&#x20dd;" 
d="M954 660l239 0.000976562c-1.33301 -86 -32.333 -156.5 -93 -211.5s-139.334 -82.5 -236.001 -82.5c-101.333 0 -185.333 31.5 -252 94.5s-100 150.167 -100 261.5s33.333 198.5 100 261.5s150.667 94.5 252 94.5c96.667 0 175.334 -27.333 236.001 -82
s91.667 -125.334 93 -212.001h-239c0 22.667 -8.33301 41.667 -25 57s-37 23 -61 23c-28.667 0 -51.334 -12 -68.001 -36s-25 -59.333 -25 -106s8.33301 -82 25 -106s39.334 -36 68.001 -36c24 0 44.333 7.66699 61 23s25 34.333 25 57zM862 164.001
c75.333 0 146.833 14.667 214.5 44s125.667 69 174 119s86.666 109.167 114.999 177.5s42.5 140.166 42.5 215.499s-14.167 147.166 -42.5 215.499s-66.666 127.5 -114.999 177.5s-106.333 89.667 -174 119s-139.167 44 -214.5 44s-146.833 -14.667 -214.5 -44
s-125.667 -69 -174 -119s-86.666 -109.167 -114.999 -177.5s-42.5 -140.166 -42.5 -215.499s14.167 -147.166 42.5 -215.499s66.666 -127.5 114.999 -177.5s106.333 -89.667 174 -119s139.167 -44 214.5 -44zM862 -58.999c-108 0 -210 20.167 -306 60.5
s-178.5 95 -247.5 164s-123.667 151.667 -164 248s-60.5 198.5 -60.5 306.5s20.167 210.167 60.5 306.5s95 179 164 248s151.5 123.667 247.5 164s198 60.5 306 60.5s210 -20.167 306 -60.5s178.5 -95 247.5 -164s123.667 -151.667 164 -248s60.5 -198.5 60.5 -306.5
s-20.167 -210.167 -60.5 -306.5s-95 -179 -164 -248s-151.5 -123.667 -247.5 -164s-198 -60.5 -306 -60.5z" />
    <glyph glyph-name="uni24B9" unicode="D&#x20dd;" 
d="M568 1069l340 -0.000976562c104.667 0 185 -29.833 241 -89.5s84 -145.5 84 -257.5c0 -111.333 -27.833 -196.666 -83.5 -255.999s-136.167 -89 -241.5 -89h-340v692zM822 867.999v-291h39c37.333 0 64 11 80 33s24 59.333 24 112s-8 90.167 -24 112.5
s-42.667 33.5 -80 33.5h-39zM862 163.999c75.333 0 146.833 14.667 214.5 44s125.667 69 174 119s86.666 109.167 114.999 177.5s42.5 140.166 42.5 215.499s-14.167 147.166 -42.5 215.499s-66.666 127.5 -114.999 177.5s-106.333 89.667 -174 119s-139.167 44 -214.5 44
s-146.833 -14.667 -214.5 -44s-125.667 -69 -174 -119s-86.666 -109.167 -114.999 -177.5s-42.5 -140.166 -42.5 -215.499s14.167 -147.166 42.5 -215.499s66.666 -127.5 114.999 -177.5s106.333 -89.667 174 -119s139.167 -44 214.5 -44zM862 -59.001
c-108 0 -210 20.167 -306 60.5s-178.5 95 -247.5 164s-123.667 151.667 -164 248s-60.5 198.5 -60.5 306.5s20.167 210.167 60.5 306.5s95 179 164 248s151.5 123.667 247.5 164s198 60.5 306 60.5s210 -20.167 306 -60.5s178.5 -95 247.5 -164s123.667 -151.667 164 -248
s60.5 -198.5 60.5 -306.5s-20.167 -210.167 -60.5 -306.5s-95 -179 -164 -248s-151.5 -123.667 -247.5 -164s-198 -60.5 -306 -60.5z" />
    <glyph glyph-name="uni24BA" unicode="E&#x20dd;" 
d="M1143 573v-196h-532v692h532v-196h-282v-69h263v-162h-263v-69h282zM862 164c75.333 0 146.833 14.667 214.5 44s125.667 69 174 119s86.666 109.167 114.999 177.5s42.5 140.166 42.5 215.499s-14.167 147.166 -42.5 215.499s-66.666 127.5 -114.999 177.5
s-106.333 89.667 -174 119s-139.167 44 -214.5 44s-146.833 -14.667 -214.5 -44s-125.667 -69 -174 -119s-86.666 -109.167 -114.999 -177.5s-42.5 -140.166 -42.5 -215.499s14.167 -147.166 42.5 -215.499s66.666 -127.5 114.999 -177.5s106.333 -89.667 174 -119
s139.167 -44 214.5 -44zM862 -59c-108 0 -210 20.167 -306 60.5s-178.5 95 -247.5 164s-123.667 151.667 -164 248s-60.5 198.5 -60.5 306.5s20.167 210.167 60.5 306.5s95 179 164 248s151.5 123.667 247.5 164s198 60.5 306 60.5s210 -20.167 306 -60.5
s178.5 -95 247.5 -164s123.667 -151.667 164 -248s60.5 -198.5 60.5 -306.5s-20.167 -210.167 -60.5 -306.5s-95 -179 -164 -248s-151.5 -123.667 -247.5 -164s-198 -60.5 -306 -60.5z" />
    <glyph glyph-name="uni24BB" unicode="F&#x20dd;" 
d="M879 377h-265v692h533v-200h-268v-74h242v-199h-242v-219zM862 164c75.333 0 146.833 14.667 214.5 44s125.667 69 174 119s86.666 109.167 114.999 177.5s42.5 140.166 42.5 215.499s-14.167 147.166 -42.5 215.499s-66.666 127.5 -114.999 177.5
s-106.333 89.667 -174 119s-139.167 44 -214.5 44s-146.833 -14.667 -214.5 -44s-125.667 -69 -174 -119s-86.666 -109.167 -114.999 -177.5s-42.5 -140.166 -42.5 -215.499s14.167 -147.166 42.5 -215.499s66.666 -127.5 114.999 -177.5s106.333 -89.667 174 -119
s139.167 -44 214.5 -44zM862 -59c-108 0 -210 20.167 -306 60.5s-178.5 95 -247.5 164s-123.667 151.667 -164 248s-60.5 198.5 -60.5 306.5s20.167 210.167 60.5 306.5s95 179 164 248s151.5 123.667 247.5 164s198 60.5 306 60.5s210 -20.167 306 -60.5
s178.5 -95 247.5 -164s123.667 -151.667 164 -248s60.5 -198.5 60.5 -306.5s-20.167 -210.167 -60.5 -306.5s-95 -179 -164 -248s-151.5 -123.667 -247.5 -164s-198 -60.5 -306 -60.5z" />
    <glyph glyph-name="uni24BC" unicode="G&#x20dd;" 
d="M956 620l0.000976562 4.00098h-93v150h334v-120c0 -82 -30.833 -150.5 -92.5 -205.5s-141.834 -82.5 -240.501 -82.5c-105.333 0 -190.333 32.667 -255 98s-97 151.333 -97 258s32.333 192.667 97 258s149.667 98 255 98c89.333 0 164.5 -23.5 225.5 -70.5
s96.167 -109.5 105.5 -187.5h-249c-2 20 -9.66699 35.667 -23 47s-31.666 17 -54.999 17c-28 0 -50.5 -14.833 -67.5 -44.5s-25.5 -68.834 -25.5 -117.501c0 -50 8.66699 -91.167 26 -123.5s39.666 -48.5 66.999 -48.5c28 0 49.667 6.5 65 19.5s23 29.833 23 50.5z
M862.001 164.001c75.333 0 146.833 14.667 214.5 44s125.667 69 174 119s86.666 109.167 114.999 177.5s42.5 140.166 42.5 215.499s-14.167 147.166 -42.5 215.499s-66.666 127.5 -114.999 177.5s-106.333 89.667 -174 119s-139.167 44 -214.5 44
s-146.833 -14.667 -214.5 -44s-125.667 -69 -174 -119s-86.666 -109.167 -114.999 -177.5s-42.5 -140.166 -42.5 -215.499s14.167 -147.166 42.5 -215.499s66.666 -127.5 114.999 -177.5s106.333 -89.667 174 -119s139.167 -44 214.5 -44zM862.001 -58.999
c-108 0 -210 20.167 -306 60.5s-178.5 95 -247.5 164s-123.667 151.667 -164 248s-60.5 198.5 -60.5 306.5s20.167 210.167 60.5 306.5s95 179 164 248s151.5 123.667 247.5 164s198 60.5 306 60.5s210 -20.167 306 -60.5s178.5 -95 247.5 -164s123.667 -151.667 164 -248
s60.5 -198.5 60.5 -306.5s-20.167 -210.167 -60.5 -306.5s-95 -179 -164 -248s-151.5 -123.667 -247.5 -164s-198 -60.5 -306 -60.5z" />
    <glyph glyph-name="uni24BD" unicode="H&#x20dd;" 
d="M1190 377h-244v233h-168v-233h-244v692h244v-245h168v245h244v-692zM862 164c75.333 0 146.833 14.667 214.5 44s125.667 69 174 119s86.666 109.167 114.999 177.5s42.5 140.166 42.5 215.499s-14.167 147.166 -42.5 215.499s-66.666 127.5 -114.999 177.5
s-106.333 89.667 -174 119s-139.167 44 -214.5 44s-146.833 -14.667 -214.5 -44s-125.667 -69 -174 -119s-86.666 -109.167 -114.999 -177.5s-42.5 -140.166 -42.5 -215.499s14.167 -147.166 42.5 -215.499s66.666 -127.5 114.999 -177.5s106.333 -89.667 174 -119
s139.167 -44 214.5 -44zM862 -59c-108 0 -210 20.167 -306 60.5s-178.5 95 -247.5 164s-123.667 151.667 -164 248s-60.5 198.5 -60.5 306.5s20.167 210.167 60.5 306.5s95 179 164 248s151.5 123.667 247.5 164s198 60.5 306 60.5s210 -20.167 306 -60.5
s178.5 -95 247.5 -164s123.667 -151.667 164 -248s60.5 -198.5 60.5 -306.5s-20.167 -210.167 -60.5 -306.5s-95 -179 -164 -248s-151.5 -123.667 -247.5 -164s-198 -60.5 -306 -60.5z" />
    <glyph glyph-name="uni24BE" unicode="I&#x20dd;" 
d="M1010 377h-296v692h296v-692zM862 164c75.333 0 146.833 14.667 214.5 44s125.667 69 174 119s86.666 109.167 114.999 177.5s42.5 140.166 42.5 215.499s-14.167 147.166 -42.5 215.499s-66.666 127.5 -114.999 177.5s-106.333 89.667 -174 119s-139.167 44 -214.5 44
s-146.833 -14.667 -214.5 -44s-125.667 -69 -174 -119s-86.666 -109.167 -114.999 -177.5s-42.5 -140.166 -42.5 -215.499s14.167 -147.166 42.5 -215.499s66.666 -127.5 114.999 -177.5s106.333 -89.667 174 -119s139.167 -44 214.5 -44zM862 -59
c-108 0 -210 20.167 -306 60.5s-178.5 95 -247.5 164s-123.667 151.667 -164 248s-60.5 198.5 -60.5 306.5s20.167 210.167 60.5 306.5s95 179 164 248s151.5 123.667 247.5 164s198 60.5 306 60.5s210 -20.167 306 -60.5s178.5 -95 247.5 -164s123.667 -151.667 164 -248
s60.5 -198.5 60.5 -306.5s-20.167 -210.167 -60.5 -306.5s-95 -179 -164 -248s-151.5 -123.667 -247.5 -164s-198 -60.5 -306 -60.5z" />
    <glyph glyph-name="uni24BF" unicode="J&#x20dd;" 
d="M529 658l261.998 -0.000976562c0 -25.333 3.83301 -43.666 11.5 -54.999s19.834 -17 36.501 -17c26.667 0 40 22.667 40 68v395h272v-405c0 -91.333 -27.5 -163.833 -82.5 -217.5s-128.833 -80.5 -221.5 -80.5c-97.333 0 -174.666 28 -231.999 84s-86 132 -86 228z
M861.998 163.999c75.333 0 146.833 14.667 214.5 44s125.667 69 174 119s86.666 109.167 114.999 177.5s42.5 140.166 42.5 215.499s-14.167 147.166 -42.5 215.499s-66.666 127.5 -114.999 177.5s-106.333 89.667 -174 119s-139.167 44 -214.5 44
s-146.833 -14.667 -214.5 -44s-125.667 -69 -174 -119s-86.666 -109.167 -114.999 -177.5s-42.5 -140.166 -42.5 -215.499s14.167 -147.166 42.5 -215.499s66.666 -127.5 114.999 -177.5s106.333 -89.667 174 -119s139.167 -44 214.5 -44zM861.998 -59.001
c-108 0 -210 20.167 -306 60.5s-178.5 95 -247.5 164s-123.667 151.667 -164 248s-60.5 198.5 -60.5 306.5s20.167 210.167 60.5 306.5s95 179 164 248s151.5 123.667 247.5 164s198 60.5 306 60.5s210 -20.167 306 -60.5s178.5 -95 247.5 -164s123.667 -151.667 164 -248
s60.5 -198.5 60.5 -306.5s-20.167 -210.167 -60.5 -306.5s-95 -179 -164 -248s-151.5 -123.667 -247.5 -164s-198 -60.5 -306 -60.5z" />
    <glyph glyph-name="uni24C0" unicode="K&#x20dd;" 
d="M1214 1069l-195 -329l197 -363h-292l-104 206l-51 -65v-141h-233v692h233v-269h8l155 269h282zM862 164c75.333 0 146.833 14.667 214.5 44s125.667 69 174 119s86.666 109.167 114.999 177.5s42.5 140.166 42.5 215.499s-14.167 147.166 -42.5 215.499
s-66.666 127.5 -114.999 177.5s-106.333 89.667 -174 119s-139.167 44 -214.5 44s-146.833 -14.667 -214.5 -44s-125.667 -69 -174 -119s-86.666 -109.167 -114.999 -177.5s-42.5 -140.166 -42.5 -215.499s14.167 -147.166 42.5 -215.499s66.666 -127.5 114.999 -177.5
s106.333 -89.667 174 -119s139.167 -44 214.5 -44zM862 -59c-108 0 -210 20.167 -306 60.5s-178.5 95 -247.5 164s-123.667 151.667 -164 248s-60.5 198.5 -60.5 306.5s20.167 210.167 60.5 306.5s95 179 164 248s151.5 123.667 247.5 164s198 60.5 306 60.5
s210 -20.167 306 -60.5s178.5 -95 247.5 -164s123.667 -151.667 164 -248s60.5 -198.5 60.5 -306.5s-20.167 -210.167 -60.5 -306.5s-95 -179 -164 -248s-151.5 -123.667 -247.5 -164s-198 -60.5 -306 -60.5z" />
    <glyph glyph-name="uni24C1" unicode="L&#x20dd;" 
d="M1157 619v-222h-529v692h276v-470h253zM862 164c75.333 0 146.833 14.667 214.5 44s125.667 69 174 119s86.666 109.167 114.999 177.5s42.5 140.166 42.5 215.499s-14.167 147.166 -42.5 215.499s-66.666 127.5 -114.999 177.5s-106.333 89.667 -174 119
s-139.167 44 -214.5 44s-146.833 -14.667 -214.5 -44s-125.667 -69 -174 -119s-86.666 -109.167 -114.999 -177.5s-42.5 -140.166 -42.5 -215.499s14.167 -147.166 42.5 -215.499s66.666 -127.5 114.999 -177.5s106.333 -89.667 174 -119s139.167 -44 214.5 -44zM862 -59
c-108 0 -210 20.167 -306 60.5s-178.5 95 -247.5 164s-123.667 151.667 -164 248s-60.5 198.5 -60.5 306.5s20.167 210.167 60.5 306.5s95 179 164 248s151.5 123.667 247.5 164s198 60.5 306 60.5s210 -20.167 306 -60.5s178.5 -95 247.5 -164s123.667 -151.667 164 -248
s60.5 -198.5 60.5 -306.5s-20.167 -210.167 -60.5 -306.5s-95 -179 -164 -248s-151.5 -123.667 -247.5 -164s-198 -60.5 -306 -60.5z" />
    <glyph glyph-name="uni24C2" unicode="M&#x20dd;" 
d="M690 377h-186v692h248l108 -379h6l108 379h248v-692h-186v376h-8l-100 -321h-134l-96 321h-8v-376zM862 164c75.333 0 146.833 14.667 214.5 44s125.667 69 174 119s86.666 109.167 114.999 177.5s42.5 140.166 42.5 215.499s-14.167 147.166 -42.5 215.499
s-66.666 127.5 -114.999 177.5s-106.333 89.667 -174 119s-139.167 44 -214.5 44s-146.833 -14.667 -214.5 -44s-125.667 -69 -174 -119s-86.666 -109.167 -114.999 -177.5s-42.5 -140.166 -42.5 -215.499s14.167 -147.166 42.5 -215.499s66.666 -127.5 114.999 -177.5
s106.333 -89.667 174 -119s139.167 -44 214.5 -44zM862 -59c-108 0 -210 20.167 -306 60.5s-178.5 95 -247.5 164s-123.667 151.667 -164 248s-60.5 198.5 -60.5 306.5s20.167 210.167 60.5 306.5s95 179 164 248s151.5 123.667 247.5 164s198 60.5 306 60.5
s210 -20.167 306 -60.5s178.5 -95 247.5 -164s123.667 -151.667 164 -248s60.5 -198.5 60.5 -306.5s-20.167 -210.167 -60.5 -306.5s-95 -179 -164 -248s-151.5 -123.667 -247.5 -164s-198 -60.5 -306 -60.5z" />
    <glyph glyph-name="uni24C3" unicode="N&#x20dd;" 
d="M768 377h-224v692h177l227 -301h8v301h224v-692h-174l-230 309h-8v-309zM862 164c75.333 0 146.833 14.667 214.5 44s125.667 69 174 119s86.666 109.167 114.999 177.5s42.5 140.166 42.5 215.499s-14.167 147.166 -42.5 215.499s-66.666 127.5 -114.999 177.5
s-106.333 89.667 -174 119s-139.167 44 -214.5 44s-146.833 -14.667 -214.5 -44s-125.667 -69 -174 -119s-86.666 -109.167 -114.999 -177.5s-42.5 -140.166 -42.5 -215.499s14.167 -147.166 42.5 -215.499s66.666 -127.5 114.999 -177.5s106.333 -89.667 174 -119
s139.167 -44 214.5 -44zM862 -59c-108 0 -210 20.167 -306 60.5s-178.5 95 -247.5 164s-123.667 151.667 -164 248s-60.5 198.5 -60.5 306.5s20.167 210.167 60.5 306.5s95 179 164 248s151.5 123.667 247.5 164s198 60.5 306 60.5s210 -20.167 306 -60.5
s178.5 -95 247.5 -164s123.667 -151.667 164 -248s60.5 -198.5 60.5 -306.5s-20.167 -210.167 -60.5 -306.5s-95 -179 -164 -248s-151.5 -123.667 -247.5 -164s-198 -60.5 -306 -60.5z" />
    <glyph glyph-name="uni24C4" unicode="O&#x20dd;" 
d="M862 580c26 0 47.167 11.833 63.5 35.5s24.5 59.167 24.5 106.5s-8.16699 82.833 -24.5 106.5s-37.5 35.5 -63.5 35.5s-47.167 -11.833 -63.5 -35.5s-24.5 -59.167 -24.5 -106.5s8.16699 -82.833 24.5 -106.5s37.5 -35.5 63.5 -35.5zM862 366
c-103.333 0 -187.833 31.5 -253.5 94.5s-98.5 150.167 -98.5 261.5s32.833 198.5 98.5 261.5s150.167 94.5 253.5 94.5s187.833 -31.5 253.5 -94.5s98.5 -150.167 98.5 -261.5s-32.833 -198.5 -98.5 -261.5s-150.167 -94.5 -253.5 -94.5zM862 164
c75.333 0 146.833 14.667 214.5 44s125.667 69 174 119s86.666 109.167 114.999 177.5s42.5 140.166 42.5 215.499s-14.167 147.166 -42.5 215.499s-66.666 127.5 -114.999 177.5s-106.333 89.667 -174 119s-139.167 44 -214.5 44s-146.833 -14.667 -214.5 -44
s-125.667 -69 -174 -119s-86.666 -109.167 -114.999 -177.5s-42.5 -140.166 -42.5 -215.499s14.167 -147.166 42.5 -215.499s66.666 -127.5 114.999 -177.5s106.333 -89.667 174 -119s139.167 -44 214.5 -44zM862 -59c-108 0 -210 20.167 -306 60.5s-178.5 95 -247.5 164
s-123.667 151.667 -164 248s-60.5 198.5 -60.5 306.5s20.167 210.167 60.5 306.5s95 179 164 248s151.5 123.667 247.5 164s198 60.5 306 60.5s210 -20.167 306 -60.5s178.5 -95 247.5 -164s123.667 -151.667 164 -248s60.5 -198.5 60.5 -306.5
s-20.167 -210.167 -60.5 -306.5s-95 -179 -164 -248s-151.5 -123.667 -247.5 -164s-198 -60.5 -306 -60.5z" />
    <glyph glyph-name="uni24C5" unicode="P&#x20dd;" 
d="M944 1069c82.667 0 148.833 -25 198.5 -75s74.5 -116.667 74.5 -200c0 -82 -25 -147.167 -75 -195.5s-117.333 -72.5 -202 -72.5h-69v-149h-275v692h348zM960.999 794c0 27.333 -5.33203 47.167 -15.999 59.5s-27.334 18.5 -50.001 18.5h-46v-155h46
c44 0 66 25.667 66 77zM862 164.001c75.333 0 146.833 14.667 214.5 44s125.667 69 174 119s86.666 109.167 114.999 177.5s42.5 140.166 42.5 215.499s-14.167 147.166 -42.5 215.499s-66.666 127.5 -114.999 177.5s-106.333 89.667 -174 119s-139.167 44 -214.5 44
s-146.833 -14.667 -214.5 -44s-125.667 -69 -174 -119s-86.666 -109.167 -114.999 -177.5s-42.5 -140.166 -42.5 -215.499s14.167 -147.166 42.5 -215.499s66.666 -127.5 114.999 -177.5s106.333 -89.667 174 -119s139.167 -44 214.5 -44zM862 -58.999
c-108 0 -210 20.167 -306 60.5s-178.5 95 -247.5 164s-123.667 151.667 -164 248s-60.5 198.5 -60.5 306.5s20.167 210.167 60.5 306.5s95 179 164 248s151.5 123.667 247.5 164s198 60.5 306 60.5s210 -20.167 306 -60.5s178.5 -95 247.5 -164s123.667 -151.667 164 -248
s60.5 -198.5 60.5 -306.5s-20.167 -210.167 -60.5 -306.5s-95 -179 -164 -248s-151.5 -123.667 -247.5 -164s-198 -60.5 -306 -60.5z" />
    <glyph glyph-name="uni24C6" unicode="Q&#x20dd;" 
d="M1200 325h-252l-14 47c-22.667 -4 -46.667 -6 -72 -6c-103.333 0 -187.833 31.5 -253.5 94.5s-98.5 150.167 -98.5 261.5s32.833 198.5 98.5 261.5s150.167 94.5 253.5 94.5s187.833 -31.5 253.5 -94.5s98.5 -150.167 98.5 -261.5c0 -112 -34 -200.333 -102 -265z
M862 580c5.33301 0 9.33301 0.333008 12 1l-24 81h94c4 17.333 6 37.333 6 60c0 47.333 -8.16699 82.833 -24.5 106.5s-37.5 35.5 -63.5 35.5s-47.167 -11.833 -63.5 -35.5s-24.5 -59.167 -24.5 -106.5s8.16699 -82.833 24.5 -106.5s37.5 -35.5 63.5 -35.5zM862 164
c75.333 0 146.833 14.667 214.5 44s125.667 69 174 119s86.666 109.167 114.999 177.5s42.5 140.166 42.5 215.499s-14.167 147.166 -42.5 215.499s-66.666 127.5 -114.999 177.5s-106.333 89.667 -174 119s-139.167 44 -214.5 44s-146.833 -14.667 -214.5 -44
s-125.667 -69 -174 -119s-86.666 -109.167 -114.999 -177.5s-42.5 -140.166 -42.5 -215.499s14.167 -147.166 42.5 -215.499s66.666 -127.5 114.999 -177.5s106.333 -89.667 174 -119s139.167 -44 214.5 -44zM862 -59c-108 0 -210 20.167 -306 60.5s-178.5 95 -247.5 164
s-123.667 151.667 -164 248s-60.5 198.5 -60.5 306.5s20.167 210.167 60.5 306.5s95 179 164 248s151.5 123.667 247.5 164s198 60.5 306 60.5s210 -20.167 306 -60.5s178.5 -95 247.5 -164s123.667 -151.667 164 -248s60.5 -198.5 60.5 -306.5
s-20.167 -210.167 -60.5 -306.5s-95 -179 -164 -248s-151.5 -123.667 -247.5 -164s-198 -60.5 -306 -60.5z" />
    <glyph glyph-name="uni24C7" unicode="R&#x20dd;" 
d="M899 1069c96.667 0 171 -19.999 223 -59.999s78 -97.667 78 -173c0 -48 -11.833 -88.833 -35.5 -122.5s-57.5 -56.834 -101.5 -69.501l153 -267h-271l-105 218h-45v-218h-237v692h341zM795 759.001l79.001 -0.000976562c19.333 0 34.666 5.33301 45.999 16
s17 25.334 17 44.001c0 40 -21 60 -63 60h-79v-120zM862.001 164c75.333 0 146.833 14.667 214.5 44s125.667 69 174 119s86.666 109.167 114.999 177.5s42.5 140.166 42.5 215.499s-14.167 147.166 -42.5 215.499s-66.666 127.5 -114.999 177.5s-106.333 89.667 -174 119
s-139.167 44 -214.5 44s-146.833 -14.667 -214.5 -44s-125.667 -69 -174 -119s-86.666 -109.167 -114.999 -177.5s-42.5 -140.166 -42.5 -215.499s14.167 -147.166 42.5 -215.499s66.666 -127.5 114.999 -177.5s106.333 -89.667 174 -119s139.167 -44 214.5 -44z
M862.001 -59c-108 0 -210 20.167 -306 60.5s-178.5 95 -247.5 164s-123.667 151.667 -164 248s-60.5 198.5 -60.5 306.5s20.167 210.167 60.5 306.5s95 179 164 248s151.5 123.667 247.5 164s198 60.5 306 60.5s210 -20.167 306 -60.5s178.5 -95 247.5 -164
s123.667 -151.667 164 -248s60.5 -198.5 60.5 -306.5s-20.167 -210.167 -60.5 -306.5s-95 -179 -164 -248s-151.5 -123.667 -247.5 -164s-198 -60.5 -306 -60.5z" />
    <glyph glyph-name="uni24C8" unicode="S&#x20dd;" 
d="M544 588l252.001 0.00292969c6.66699 -25.333 30 -38 70 -38c20.667 0 37.167 3.5 49.5 10.5s18.5 16.167 18.5 27.5c0 10.667 -6.33301 18.5 -19 23.5s-40.334 10.167 -83.001 15.5l-64 8c-70 9.33301 -123.833 31.666 -161.5 66.999s-56.5 81.666 -56.5 138.999
c0 72 28 129.333 84 172s131 64 225 64c86 0 156.333 -19.167 211 -57.5s85.667 -90.5 93 -156.5h-244c-7.33301 23.333 -27.333 35 -60 35c-37.333 0 -56 -11.333 -56 -34c0 -11.333 6.66699 -19.833 20 -25.5s39.333 -10.834 78 -15.501l78 -10
c66.667 -8 117.167 -29.167 151.5 -63.5s51.5 -80.833 51.5 -139.5c0 -74 -29.333 -133 -88 -177s-136.667 -66 -234 -66c-95.333 0 -170.833 19.5 -226.5 58.5s-85.5 93.167 -89.5 162.5zM862.001 164.003c75.333 0 146.833 14.667 214.5 44s125.667 69 174 119
s86.666 109.167 114.999 177.5s42.5 140.166 42.5 215.499s-14.167 147.166 -42.5 215.499s-66.666 127.5 -114.999 177.5s-106.333 89.667 -174 119s-139.167 44 -214.5 44s-146.833 -14.667 -214.5 -44s-125.667 -69 -174 -119s-86.666 -109.167 -114.999 -177.5
s-42.5 -140.166 -42.5 -215.499s14.167 -147.166 42.5 -215.499s66.666 -127.5 114.999 -177.5s106.333 -89.667 174 -119s139.167 -44 214.5 -44zM862.001 -58.9971c-108 0 -210 20.167 -306 60.5s-178.5 95 -247.5 164s-123.667 151.667 -164 248s-60.5 198.5 -60.5 306.5
s20.167 210.167 60.5 306.5s95 179 164 248s151.5 123.667 247.5 164s198 60.5 306 60.5s210 -20.167 306 -60.5s178.5 -95 247.5 -164s123.667 -151.667 164 -248s60.5 -198.5 60.5 -306.5s-20.167 -210.167 -60.5 -306.5s-95 -179 -164 -248s-151.5 -123.667 -247.5 -164
s-198 -60.5 -306 -60.5z" />
    <glyph glyph-name="uni24C9" unicode="T&#x20dd;" 
d="M1000 352h-276v475h-180v217h636v-217h-180v-475zM862 164c75.333 0 146.833 14.667 214.5 44s125.667 69 174 119s86.666 109.167 114.999 177.5s42.5 140.166 42.5 215.499s-14.167 147.166 -42.5 215.499s-66.666 127.5 -114.999 177.5s-106.333 89.667 -174 119
s-139.167 44 -214.5 44s-146.833 -14.667 -214.5 -44s-125.667 -69 -174 -119s-86.666 -109.167 -114.999 -177.5s-42.5 -140.166 -42.5 -215.499s14.167 -147.166 42.5 -215.499s66.666 -127.5 114.999 -177.5s106.333 -89.667 174 -119s139.167 -44 214.5 -44zM862 -59
c-108 0 -210 20.167 -306 60.5s-178.5 95 -247.5 164s-123.667 151.667 -164 248s-60.5 198.5 -60.5 306.5s20.167 210.167 60.5 306.5s95 179 164 248s151.5 123.667 247.5 164s198 60.5 306 60.5s210 -20.167 306 -60.5s178.5 -95 247.5 -164s123.667 -151.667 164 -248
s60.5 -198.5 60.5 -306.5s-20.167 -210.167 -60.5 -306.5s-95 -179 -164 -248s-151.5 -123.667 -247.5 -164s-198 -60.5 -306 -60.5z" />
    <glyph glyph-name="uni24CA" unicode="U&#x20dd;" 
d="M862 553c19.333 0 34.833 5.66699 46.5 17s17.5 26.333 17.5 45v429h261v-454c0 -70.667 -30.167 -129.834 -90.5 -177.501s-138.5 -71.5 -234.5 -71.5s-174.167 23.833 -234.5 71.5s-90.5 106.834 -90.5 177.501v454h261v-429c0 -18.667 5.83301 -33.667 17.5 -45
s27.167 -17 46.5 -17zM862 164c75.333 0 146.833 14.667 214.5 44s125.667 69 174 119s86.666 109.167 114.999 177.5s42.5 140.166 42.5 215.499s-14.167 147.166 -42.5 215.499s-66.666 127.5 -114.999 177.5s-106.333 89.667 -174 119s-139.167 44 -214.5 44
s-146.833 -14.667 -214.5 -44s-125.667 -69 -174 -119s-86.666 -109.167 -114.999 -177.5s-42.5 -140.166 -42.5 -215.499s14.167 -147.166 42.5 -215.499s66.666 -127.5 114.999 -177.5s106.333 -89.667 174 -119s139.167 -44 214.5 -44zM862 -59
c-108 0 -210 20.167 -306 60.5s-178.5 95 -247.5 164s-123.667 151.667 -164 248s-60.5 198.5 -60.5 306.5s20.167 210.167 60.5 306.5s95 179 164 248s151.5 123.667 247.5 164s198 60.5 306 60.5s210 -20.167 306 -60.5s178.5 -95 247.5 -164s123.667 -151.667 164 -248
s60.5 -198.5 60.5 -306.5s-20.167 -210.167 -60.5 -306.5s-95 -179 -164 -248s-151.5 -123.667 -247.5 -164s-198 -60.5 -306 -60.5z" />
    <glyph glyph-name="uni24CB" unicode="V&#x20dd;" 
d="M674 342l-176 692h288l72 -474h8l72 474h288l-176 -692h-376zM862 164c75.333 0 146.833 14.667 214.5 44s125.667 69 174 119s86.666 109.167 114.999 177.5s42.5 140.166 42.5 215.499s-14.167 147.166 -42.5 215.499s-66.666 127.5 -114.999 177.5
s-106.333 89.667 -174 119s-139.167 44 -214.5 44s-146.833 -14.667 -214.5 -44s-125.667 -69 -174 -119s-86.666 -109.167 -114.999 -177.5s-42.5 -140.166 -42.5 -215.499s14.167 -147.166 42.5 -215.499s66.666 -127.5 114.999 -177.5s106.333 -89.667 174 -119
s139.167 -44 214.5 -44zM862 -59c-108 0 -210 20.167 -306 60.5s-178.5 95 -247.5 164s-123.667 151.667 -164 248s-60.5 198.5 -60.5 306.5s20.167 210.167 60.5 306.5s95 179 164 248s151.5 123.667 247.5 164s198 60.5 306 60.5s210 -20.167 306 -60.5
s178.5 -95 247.5 -164s123.667 -151.667 164 -248s60.5 -198.5 60.5 -306.5s-20.167 -210.167 -60.5 -306.5s-95 -179 -164 -248s-151.5 -123.667 -247.5 -164s-198 -60.5 -306 -60.5z" />
    <glyph glyph-name="uni24CC" unicode="W&#x20dd;" 
d="M858 718l-69 -366h-218l-129 692h214l45 -416h8l70 416h167l69 -416h8l45 416h214l-128 -692h-219l-69 366h-8zM862 164c75.333 0 146.833 14.667 214.5 44s125.667 69 174 119s86.666 109.167 114.999 177.5s42.5 140.166 42.5 215.499s-14.167 147.166 -42.5 215.499
s-66.666 127.5 -114.999 177.5s-106.333 89.667 -174 119s-139.167 44 -214.5 44s-146.833 -14.667 -214.5 -44s-125.667 -69 -174 -119s-86.666 -109.167 -114.999 -177.5s-42.5 -140.166 -42.5 -215.499s14.167 -147.166 42.5 -215.499s66.666 -127.5 114.999 -177.5
s106.333 -89.667 174 -119s139.167 -44 214.5 -44zM862 -59c-108 0 -210 20.167 -306 60.5s-178.5 95 -247.5 164s-123.667 151.667 -164 248s-60.5 198.5 -60.5 306.5s20.167 210.167 60.5 306.5s95 179 164 248s151.5 123.667 247.5 164s198 60.5 306 60.5
s210 -20.167 306 -60.5s178.5 -95 247.5 -164s123.667 -151.667 164 -248s60.5 -198.5 60.5 -306.5s-20.167 -210.167 -60.5 -306.5s-95 -179 -164 -248s-151.5 -123.667 -247.5 -164s-198 -60.5 -306 -60.5z" />
    <glyph glyph-name="uni24CD" unicode="X&#x20dd;" 
d="M1216 1069l-199 -346l199 -346h-272l-81 204h-8l-78 -204h-289l208 346l-208 346h289l78 -203h8l81 203h272zM862 164c75.333 0 146.833 14.667 214.5 44s125.667 69 174 119s86.666 109.167 114.999 177.5s42.5 140.166 42.5 215.499s-14.167 147.166 -42.5 215.499
s-66.666 127.5 -114.999 177.5s-106.333 89.667 -174 119s-139.167 44 -214.5 44s-146.833 -14.667 -214.5 -44s-125.667 -69 -174 -119s-86.666 -109.167 -114.999 -177.5s-42.5 -140.166 -42.5 -215.499s14.167 -147.166 42.5 -215.499s66.666 -127.5 114.999 -177.5
s106.333 -89.667 174 -119s139.167 -44 214.5 -44zM862 -59c-108 0 -210 20.167 -306 60.5s-178.5 95 -247.5 164s-123.667 151.667 -164 248s-60.5 198.5 -60.5 306.5s20.167 210.167 60.5 306.5s95 179 164 248s151.5 123.667 247.5 164s198 60.5 306 60.5
s210 -20.167 306 -60.5s178.5 -95 247.5 -164s123.667 -151.667 164 -248s60.5 -198.5 60.5 -306.5s-20.167 -210.167 -60.5 -306.5s-95 -179 -164 -248s-151.5 -123.667 -247.5 -164s-198 -60.5 -306 -60.5z" />
    <glyph glyph-name="uni24CE" unicode="Y&#x20dd;" 
d="M1006 352h-288v184l-232 508h295l77 -255h8l77 255h295l-232 -508v-184zM862 164c75.333 0 146.833 14.667 214.5 44s125.667 69 174 119s86.666 109.167 114.999 177.5s42.5 140.166 42.5 215.499s-14.167 147.166 -42.5 215.499s-66.666 127.5 -114.999 177.5
s-106.333 89.667 -174 119s-139.167 44 -214.5 44s-146.833 -14.667 -214.5 -44s-125.667 -69 -174 -119s-86.666 -109.167 -114.999 -177.5s-42.5 -140.166 -42.5 -215.499s14.167 -147.166 42.5 -215.499s66.666 -127.5 114.999 -177.5s106.333 -89.667 174 -119
s139.167 -44 214.5 -44zM862 -59c-108 0 -210 20.167 -306 60.5s-178.5 95 -247.5 164s-123.667 151.667 -164 248s-60.5 198.5 -60.5 306.5s20.167 210.167 60.5 306.5s95 179 164 248s151.5 123.667 247.5 164s198 60.5 306 60.5s210 -20.167 306 -60.5
s178.5 -95 247.5 -164s123.667 -151.667 164 -248s60.5 -198.5 60.5 -306.5s-20.167 -210.167 -60.5 -306.5s-95 -179 -164 -248s-151.5 -123.667 -247.5 -164s-198 -60.5 -306 -60.5z" />
    <glyph glyph-name="uni24CF" unicode="Z&#x20dd;" 
d="M581 377v168l239 307v8h-249v209h572v-169l-241 -306v-9h252v-208h-573zM862 164c75.333 0 146.833 14.667 214.5 44s125.667 69 174 119s86.666 109.167 114.999 177.5s42.5 140.166 42.5 215.499s-14.167 147.166 -42.5 215.499s-66.666 127.5 -114.999 177.5
s-106.333 89.667 -174 119s-139.167 44 -214.5 44s-146.833 -14.667 -214.5 -44s-125.667 -69 -174 -119s-86.666 -109.167 -114.999 -177.5s-42.5 -140.166 -42.5 -215.499s14.167 -147.166 42.5 -215.499s66.666 -127.5 114.999 -177.5s106.333 -89.667 174 -119
s139.167 -44 214.5 -44zM862 -59c-108 0 -210 20.167 -306 60.5s-178.5 95 -247.5 164s-123.667 151.667 -164 248s-60.5 198.5 -60.5 306.5s20.167 210.167 60.5 306.5s95 179 164 248s151.5 123.667 247.5 164s198 60.5 306 60.5s210 -20.167 306 -60.5
s178.5 -95 247.5 -164s123.667 -151.667 164 -248s60.5 -198.5 60.5 -306.5s-20.167 -210.167 -60.5 -306.5s-95 -179 -164 -248s-151.5 -123.667 -247.5 -164s-198 -60.5 -306 -60.5z" />
    <glyph glyph-name="uni24EA" unicode="&#x23;&#x20dd;" 
d="M862 565c40.667 0 61 51.667 61 155s-20.333 155 -61 155s-61 -51.667 -61 -155s20.333 -155 61 -155zM858 365c-96 0 -172 31.667 -228 95s-84 150 -84 260s28 196.667 84 260s132 95 228 95c96.667 0 174.167 -31.833 232.5 -95.5s87.5 -150.167 87.5 -259.5
s-29.167 -195.833 -87.5 -259.5s-135.833 -95.5 -232.5 -95.5zM862 164c75.333 0 146.833 14.667 214.5 44s125.667 69 174 119s86.666 109.167 114.999 177.5s42.5 140.166 42.5 215.499s-14.167 147.166 -42.5 215.499s-66.666 127.5 -114.999 177.5
s-106.333 89.667 -174 119s-139.167 44 -214.5 44s-146.833 -14.667 -214.5 -44s-125.667 -69 -174 -119s-86.666 -109.167 -114.999 -177.5s-42.5 -140.166 -42.5 -215.499s14.167 -147.166 42.5 -215.499s66.666 -127.5 114.999 -177.5s106.333 -89.667 174 -119
s139.167 -44 214.5 -44zM862 -59c-108 0 -210 20.167 -306 60.5s-178.5 95 -247.5 164s-123.667 151.667 -164 248s-60.5 198.5 -60.5 306.5s20.167 210.167 60.5 306.5s95 179 164 248s151.5 123.667 247.5 164s198 60.5 306 60.5s210 -20.167 306 -60.5
s178.5 -95 247.5 -164s123.667 -151.667 164 -248s60.5 -198.5 60.5 -306.5s-20.167 -210.167 -60.5 -306.5s-95 -179 -164 -248s-151.5 -123.667 -247.5 -164s-198 -60.5 -306 -60.5z" />
    <glyph glyph-name="uni24FF" unicode="&#x30;&#x20dd;&#x25cf;" 
d="M862 543c-21.333 0 -37 13.5 -47 40.5s-15 72.5 -15 136.5s5 109.5 15 136.5s25.667 40.5 47 40.5s37 -13.5 47 -40.5s15 -72.5 15 -136.5s-5 -109.5 -15 -136.5s-25.667 -40.5 -47 -40.5zM858 338c104 0 187 34 249 102s93 161.333 93 280s-31 212 -93 280
s-145 102 -249 102c-103.333 0 -184.666 -33.833 -243.999 -101.5s-89 -161.167 -89 -280.5s29.667 -212.833 89 -280.5s140.666 -101.5 243.999 -101.5zM862 -56c-105.333 0 -206 20.667 -302 62s-178.667 96.666 -248 165.999s-124.666 152 -165.999 248
s-62 196.667 -62 302s20.667 206 62 302s96.666 178.667 165.999 248s152 124.666 248 165.999s196.667 62 302 62s206 -20.667 302 -62s178.667 -96.666 248 -165.999s124.666 -152 165.999 -248s62 -196.667 62 -302s-20.667 -206 -62 -302
s-96.666 -178.667 -165.999 -248s-152 -124.666 -248 -165.999s-196.667 -62 -302 -62z" />
    <glyph glyph-name="uni278A" unicode="&#x31;&#x20dd;&#x25cf;" 
d="M1047 350v741h-295l-174 -112v-249l164 108h9v-488h296zM862 -56c-105.333 0 -206 20.667 -302 62s-178.667 96.666 -248 165.999s-124.666 152 -165.999 248s-62 196.667 -62 302s20.667 206 62 302s96.666 178.667 165.999 248s152 124.666 248 165.999
s196.667 62 302 62s206 -20.667 302 -62s178.667 -96.666 248 -165.999s124.666 -152 165.999 -248s62 -196.667 62 -302s-20.667 -206 -62 -302s-96.666 -178.667 -165.999 -248s-152 -124.666 -248 -165.999s-196.667 -62 -302 -62z" />
    <glyph glyph-name="uni278B" unicode="&#x32;&#x20dd;&#x25cf;" 
d="M793 818c0 52 18 78.001 54 78.001c14.667 0 26.167 -3.83301 34.5 -11.5s12.5 -17.834 12.5 -30.501c0 -18.667 -7 -37.167 -21 -55.5s-41.667 -45.5 -83 -81.5l-232 -187v-182h619v228h-245v5l74 58c55.333 44 94.833 84.167 118.5 120.5s35.5 75.5 35.5 117.5
c0 62.667 -28 115.667 -84 159s-124.667 65 -206 65c-100.667 0 -181.167 -25.667 -241.5 -77s-90.5 -120 -90.5 -206h255zM862 -55.999c-105.333 0 -206 20.667 -302 62s-178.667 96.666 -248 165.999s-124.666 152 -165.999 248s-62 196.667 -62 302s20.667 206 62 302
s96.666 178.667 165.999 248s152 124.666 248 165.999s196.667 62 302 62s206 -20.667 302 -62s178.667 -96.666 248 -165.999s124.666 -152 165.999 -248s62 -196.667 62 -302s-20.667 -206 -62 -302s-96.666 -178.667 -165.999 -248s-152 -124.666 -248 -165.999
s-196.667 -62 -302 -62z" />
    <glyph glyph-name="uni278C" unicode="&#x33;&#x20dd;&#x25cf;" 
d="M782 631h71.001c20.667 0 37.167 -4 49.5 -12s18.5 -19 18.5 -33c0 -13.333 -5.83301 -24 -17.5 -32s-27.5 -12 -47.5 -12c-23.333 0 -41.5 5.66699 -54.5 17s-19.5 27.333 -19.5 48h-262c0 -79.333 31.167 -143.833 93.5 -193.5s143.166 -74.5 242.499 -74.5
c102.667 0 184.334 20.333 245.001 61s91 95.667 91 165c0 44 -14.833 82.5 -44.5 115.5s-65.834 51.5 -108.501 55.5v10c37.333 4.66699 69.333 21.5 96 50.5s40 61.833 40 98.5c0 62 -29.333 111.833 -88 149.5s-135.667 56.5 -231 56.5
c-215.333 0 -327.333 -88.667 -336 -266h262c0 44.667 23.333 67 70 67c16 0 29.167 -4 39.5 -12s15.5 -18 15.5 -30c0 -30 -19.667 -45 -59 -45h-66v-184zM862.001 -56c-105.333 0 -206 20.667 -302 62s-178.667 96.666 -248 165.999s-124.666 152 -165.999 248
s-62 196.667 -62 302s20.667 206 62 302s96.666 178.667 165.999 248s152 124.666 248 165.999s196.667 62 302 62s206 -20.667 302 -62s178.667 -96.666 248 -165.999s124.666 -152 165.999 -248s62 -196.667 62 -302s-20.667 -206 -62 -302
s-96.666 -178.667 -165.999 -248s-152 -124.666 -248 -165.999s-196.667 -62 -302 -62z" />
    <glyph glyph-name="uni278D" unicode="&#x34;&#x20dd;&#x25cf;" 
d="M719 1091c-83.333 -156.667 -153.667 -299 -211 -427v-214h361v-100h233v100h104v212h-104v429h-383zM751.999 662l0.000976562 1c31.333 87.333 67.666 171.333 108.999 252h8v-253h-117zM862 -56c-105.333 0 -206 20.667 -302 62s-178.667 96.666 -248 165.999
s-124.666 152 -165.999 248s-62 196.667 -62 302s20.667 206 62 302s96.666 178.667 165.999 248s152 124.666 248 165.999s196.667 62 302 62s206 -20.667 302 -62s178.667 -96.666 248 -165.999s124.666 -152 165.999 -248s62 -196.667 62 -302s-20.667 -206 -62 -302
s-96.666 -178.667 -165.999 -248s-152 -124.666 -248 -165.999s-196.667 -62 -302 -62z" />
    <glyph glyph-name="uni278E" unicode="&#x35;&#x20dd;&#x25cf;" 
d="M546 606c0 -76.667 30.1689 -138.833 90.502 -186.5s139.166 -71.5 236.499 -71.5c103.333 0 184.666 25 243.999 75s89 118.667 89 206c0 72.667 -21.833 130.334 -65.5 173.001s-102.5 64 -176.5 64c-38.667 0 -72.834 -6.66699 -102.501 -20
s-50.167 -31.333 -61.5 -54h-10l7 119h353v191h-567l-24 -453h247c6 13.333 15.167 24 27.5 32s25.5 12 39.5 12c21.333 0 38.5 -6.66699 51.5 -20s19.5 -31.333 19.5 -54c0 -20.667 -6.66699 -37.834 -20 -51.501s-30.333 -20.5 -51 -20.5c-18.667 0 -34.667 5.5 -48 16.5
s-21.666 25.167 -24.999 42.5h-254zM862.002 -55.999c-105.333 0 -206 20.667 -302 62s-178.667 96.666 -248 165.999s-124.666 152 -165.999 248s-62 196.667 -62 302s20.667 206 62 302s96.666 178.667 165.999 248s152 124.666 248 165.999s196.667 62 302 62
s206 -20.667 302 -62s178.667 -96.666 248 -165.999s124.666 -152 165.999 -248s62 -196.667 62 -302s-20.667 -206 -62 -302s-96.666 -178.667 -165.999 -248s-152 -124.666 -248 -165.999s-196.667 -62 -302 -62z" />
    <glyph glyph-name="uni278F" unicode="&#x36;&#x20dd;&#x25cf;" 
d="M1197 612c0 70.667 -19.834 124.834 -59.501 162.501s-96.167 56.5 -169.5 56.5c-38 0 -72.667 -7.66699 -104 -23s-55.666 -36.333 -72.999 -63h-8c-4 16 -6 30.333 -6 43c0 35.333 8.33301 64.166 25 86.499s38 33.5 64 33.5c26.667 0 48.667 -11.667 66 -35h249
c-8.66699 67.333 -42.5 122.5 -101.5 165.5s-129.833 64.5 -212.5 64.5c-108.667 0 -194.834 -33.333 -258.501 -100s-95.5 -157 -95.5 -271c0 -94.667 20 -176 60 -244c64.667 -100 163.334 -150 296.001 -150c96.667 0 175.5 25.333 236.5 76s91.5 116.667 91.5 198z
M792.999 607c0 22.667 6.66895 40.667 20.002 54s30.666 20 51.999 20c22 0 40 -6.83301 54 -20.5s21 -31.5 21 -53.5c0 -22.667 -6.83301 -40.667 -20.5 -54s-31.834 -20 -54.501 -20c-22 0 -39.5 6.66699 -52.5 20s-19.5 31.333 -19.5 54zM862.001 -56
c-105.333 0 -206 20.667 -302 62s-178.667 96.666 -248 165.999s-124.666 152 -165.999 248s-62 196.667 -62 302s20.667 206 62 302s96.666 178.667 165.999 248s152 124.666 248 165.999s196.667 62 302 62s206 -20.667 302 -62s178.667 -96.666 248 -165.999
s124.666 -152 165.999 -248s62 -196.667 62 -302s-20.667 -206 -62 -302s-96.666 -178.667 -165.999 -248s-152 -124.666 -248 -165.999s-196.667 -62 -302 -62z" />
    <glyph glyph-name="uni2790" unicode="&#x37;&#x20dd;&#x25cf;" 
d="M541 1091v-227h340v-4l-287 -510h316l268 514v227h-637zM862 -56c-105.333 0 -206 20.667 -302 62s-178.667 96.666 -248 165.999s-124.666 152 -165.999 248s-62 196.667 -62 302s20.667 206 62 302s96.666 178.667 165.999 248s152 124.666 248 165.999
s196.667 62 302 62s206 -20.667 302 -62s178.667 -96.666 248 -165.999s124.666 -152 165.999 -248s62 -196.667 62 -302s-20.667 -206 -62 -302s-96.666 -178.667 -165.999 -248s-152 -124.666 -248 -165.999s-196.667 -62 -302 -62z" />
    <glyph glyph-name="uni2791" unicode="&#x38;&#x20dd;&#x25cf;" 
d="M862 798c-18.667 0 -34 6.16699 -46 18.5s-18 28.166 -18 47.499c0 20.667 5.83301 37.334 17.5 50.001s27.167 19 46.5 19s35 -6.33301 47 -19s18 -29.334 18 -50.001c0 -19.333 -6.16699 -35.166 -18.5 -47.499s-27.833 -18.5 -46.5 -18.5zM862 509
c-22.667 0 -40.667 7.16504 -54 21.498s-20 33.166 -20 56.499c0 22.667 6.83301 41.334 20.5 56.001s31.5 22 53.5 22c22.667 0 40.834 -7.16699 54.501 -21.5s20.5 -33.166 20.5 -56.499s-6.83301 -42.166 -20.5 -56.499s-31.834 -21.5 -54.501 -21.5zM862 337.998
c112.667 0 200.832 19.999 264.499 59.999s95.5 95.667 95.5 167c0 48 -15.167 87.167 -45.5 117.5s-72.5 48.833 -126.5 55.5v5c48.667 13.333 84.167 32.333 106.5 57s33.5 57 33.5 97c0 63.333 -29.333 113.166 -88 149.499s-138.667 54.5 -240 54.5
s-181.166 -18.167 -239.499 -54.5s-87.5 -86.166 -87.5 -149.499c0 -40.667 11 -73.167 33 -97.5s57.667 -43.166 107 -56.499v-5c-54 -6.66699 -96.167 -25.167 -126.5 -55.5s-45.5 -69.5 -45.5 -117.5c0 -70.667 31.833 -126.167 95.5 -166.5s151.5 -60.5 263.5 -60.5z
M861.998 -56.0029c-105.333 0 -206 20.667 -302 62s-178.667 96.666 -248 165.999s-124.666 152 -165.999 248s-62 196.667 -62 302s20.667 206 62 302s96.666 178.667 165.999 248s152 124.666 248 165.999s196.667 62 302 62s206 -20.667 302 -62
s178.667 -96.666 248 -165.999s124.666 -152 165.999 -248s62 -196.667 62 -302s-20.667 -206 -62 -302s-96.666 -178.667 -165.999 -248s-152 -124.666 -248 -165.999s-196.667 -62 -302 -62z" />
    <glyph glyph-name="uni2792" unicode="&#x39;&#x20dd;&#x25cf;" 
d="M923 833c0 -22 -6.50098 -39.833 -19.501 -53.5s-30.5 -20.5 -52.5 -20.5s-40 6.83301 -54 20.5s-21 31.5 -21 53.5c0 22.667 6.83301 40.834 20.5 54.501s31.834 20.5 54.501 20.5c22 0 39.5 -6.83301 52.5 -20.5s19.5 -31.834 19.5 -54.501zM534.999 568
c8.66699 -67.333 42.3311 -122.499 100.998 -165.499s129.667 -64.5 213 -64.5c108.667 0 194.834 33.167 258.501 99.5s95.5 156.5 95.5 270.5c0 120.667 -32.167 216.667 -96.5 288s-150.833 107 -259.5 107c-96.667 0 -175.5 -25.5 -236.5 -76.5
s-91.5 -117.167 -91.5 -198.5c0 -70.667 20 -124.834 60 -162.501s96.333 -56.5 169 -56.5c38 0 72.833 8 104.5 24s55.834 37 72.501 63h8c8 -44.667 4 -83 -12 -115s-39.667 -48 -71 -48c-28 0 -49.667 11.667 -65 35h-250zM861.996 -55.999
c-105.333 0 -206 20.667 -302 62s-178.667 96.666 -248 165.999s-124.666 152 -165.999 248s-62 196.667 -62 302s20.667 206 62 302s96.666 178.667 165.999 248s152 124.666 248 165.999s196.667 62 302 62s206 -20.667 302 -62s178.667 -96.666 248 -165.999
s124.666 -152 165.999 -248s62 -196.667 62 -302s-20.667 -206 -62 -302s-96.666 -178.667 -165.999 -248s-152 -124.666 -248 -165.999s-196.667 -62 -302 -62z" />
    <glyph glyph-name="uni1F130" unicode="A&#x20de;" 
d="M815 687h94l-43 206h-8zM759 407h-267l203 692h334l203 -692h-267l-17 92h-172zM371 1478h982c72.667 0 134.667 -25.333 186 -76s77 -111.667 77 -183v-994c0 -71.333 -25.667 -132.333 -77 -183s-113.333 -76 -186 -76h-982c-72.667 0 -134.667 25.333 -186 76
s-77 111.667 -77 183v994c0 71.333 25.667 132.333 77 183s113.333 76 186 76zM1385 1147c0 33.333 -11.8301 61.333 -35.4971 84s-52.834 34 -87.501 34h-800c-34.667 0 -63.834 -11.333 -87.501 -34s-35.5 -50.667 -35.5 -84v-850c0 -32.667 12.167 -60.5 36.5 -83.5
s53.166 -34.5 86.499 -34.5h800c34 0 63 11.5 87 34.5s36 50.833 36 83.5v850z" />
    <glyph glyph-name="uni1F131" unicode="B&#x20de;" 
d="M561 377l-0.000976562 692.001h392c68.667 0 122.5 -15.167 161.5 -45.5s58.5 -71.833 58.5 -124.5c0 -39.333 -13 -72.833 -39 -100.5s-60 -44.167 -102 -49.5v-8c52.667 -6.66699 93.334 -25.334 122.001 -56.001s43 -70.667 43 -120
c0 -54.667 -21.5 -99.667 -64.5 -135s-97.5 -53 -163.5 -53h-408zM803.999 912.001v-111.001h60c45.333 0 68 19 68 57c0 16.667 -6.33301 29.834 -19 39.501s-29 14.5 -49 14.5h-60zM802.999 669v-122h64c23.333 0 41.333 5.5 54 16.5s19 26.5 19 46.5
c0 18 -6.5 32.333 -19.5 43s-30.833 16 -53.5 16h-64zM370.999 1478h982c72.667 0 134.667 -25.333 186 -76s77 -111.667 77 -183v-994c0 -71.333 -25.667 -132.333 -77 -183s-113.333 -76 -186 -76h-982c-72.667 0 -134.667 25.333 -186 76s-77 111.667 -77 183v994
c0 71.333 25.667 132.333 77 183s113.333 76 186 76zM1385 1147c0 33.333 -11.8301 61.333 -35.4971 84s-52.834 34 -87.501 34h-800c-34.667 0 -63.834 -11.333 -87.501 -34s-35.5 -50.667 -35.5 -84v-850c0 -32.667 12.167 -60.5 36.5 -83.5s53.166 -34.5 86.499 -34.5
h800c34 0 63 11.5 87 34.5s36 50.833 36 83.5v850z" />
    <glyph glyph-name="uni1F132" unicode="C&#x20de;" 
d="M954 660l239 0.000976562c-1.33301 -86 -32.333 -156.5 -93 -211.5s-139.334 -82.5 -236.001 -82.5c-101.333 0 -185.333 31.5 -252 94.5s-100 150.167 -100 261.5s33.333 198.5 100 261.5s150.667 94.5 252 94.5c96.667 0 175.334 -27.333 236.001 -82
s91.667 -125.334 93 -212.001h-239c0 22.667 -8.33301 41.667 -25 57s-37 23 -61 23c-28.667 0 -51.334 -12 -68.001 -36s-25 -59.333 -25 -106s8.33301 -82 25 -106s39.334 -36 68.001 -36c24 0 44.333 7.66699 61 23s25 34.333 25 57zM371 1478h982
c72.667 0 134.667 -25.333 186 -76s77 -111.667 77 -183v-994c0 -71.333 -25.667 -132.333 -77 -183s-113.333 -76 -186 -76h-982c-72.667 0 -134.667 25.333 -186 76s-77 111.667 -77 183v994c0 71.333 25.667 132.333 77 183s113.333 76 186 76zM1385 1147
c0 33.333 -11.8301 61.333 -35.4971 84s-52.834 34 -87.501 34h-800c-34.667 0 -63.834 -11.333 -87.501 -34s-35.5 -50.667 -35.5 -84v-850c0 -32.667 12.167 -60.5 36.5 -83.5s53.166 -34.5 86.499 -34.5h800c34 0 63 11.5 87 34.5s36 50.833 36 83.5v850z" />
    <glyph glyph-name="uni1F133" unicode="D&#x20de;" 
d="M565 1069l340 -0.000976562c104.667 0 185 -29.833 241 -89.5s84 -145.5 84 -257.5c0 -111.333 -27.833 -196.666 -83.5 -255.999s-136.167 -89 -241.5 -89h-340v692zM819 867.999v-291h39c37.333 0 64 11 80 33s24 59.333 24 112s-8 90.167 -24 112.5
s-42.667 33.5 -80 33.5h-39zM371 1478h982c72.667 0 134.667 -25.333 186 -76s77 -111.667 77 -183v-994c0 -71.333 -25.667 -132.333 -77 -183s-113.333 -76 -186 -76h-982c-72.667 0 -134.667 25.333 -186 76s-77 111.667 -77 183v994c0 71.333 25.667 132.333 77 183
s113.333 76 186 76zM1385 1147c0 33.333 -11.8301 61.333 -35.4971 84s-52.834 34 -87.501 34h-800c-34.667 0 -63.834 -11.333 -87.501 -34s-35.5 -50.667 -35.5 -84v-850c0 -32.667 12.167 -60.5 36.5 -83.5s53.166 -34.5 86.499 -34.5h800c34 0 63 11.5 87 34.5
s36 50.833 36 83.5v850z" />
    <glyph glyph-name="uni1F134" unicode="E&#x20de;" 
d="M1143 573v-196h-532v692h532v-196h-282v-69h263v-162h-263v-69h282zM371 1478h982c72.667 0 134.667 -25.333 186 -76s77 -111.667 77 -183v-994c0 -71.333 -25.667 -132.333 -77 -183s-113.333 -76 -186 -76h-982c-72.667 0 -134.667 25.333 -186 76
s-77 111.667 -77 183v994c0 71.333 25.667 132.333 77 183s113.333 76 186 76zM1385 1147c0 33.333 -11.8301 61.333 -35.4971 84s-52.834 34 -87.501 34h-800c-34.667 0 -63.834 -11.333 -87.501 -34s-35.5 -50.667 -35.5 -84v-850c0 -32.667 12.167 -60.5 36.5 -83.5
s53.166 -34.5 86.499 -34.5h800c34 0 63 11.5 87 34.5s36 50.833 36 83.5v850z" />
    <glyph glyph-name="uni1F135" unicode="F&#x20de;" 
d="M879 377h-265v692h533v-200h-268v-74h242v-199h-242v-219zM371 1478h982c72.667 0 134.667 -25.333 186 -76s77 -111.667 77 -183v-994c0 -71.333 -25.667 -132.333 -77 -183s-113.333 -76 -186 -76h-982c-72.667 0 -134.667 25.333 -186 76s-77 111.667 -77 183v994
c0 71.333 25.667 132.333 77 183s113.333 76 186 76zM1385 1147c0 33.333 -11.8301 61.333 -35.4971 84s-52.834 34 -87.501 34h-800c-34.667 0 -63.834 -11.333 -87.501 -34s-35.5 -50.667 -35.5 -84v-850c0 -32.667 12.167 -60.5 36.5 -83.5s53.166 -34.5 86.499 -34.5
h800c34 0 63 11.5 87 34.5s36 50.833 36 83.5v850z" />
    <glyph glyph-name="uni1F136" unicode="G&#x20de;" 
d="M956 620l0.000976562 4.00098h-93v150h334v-120c0 -82 -30.833 -150.5 -92.5 -205.5s-141.834 -82.5 -240.501 -82.5c-105.333 0 -190.333 32.667 -255 98s-97 151.333 -97 258s32.333 192.667 97 258s149.667 98 255 98c89.333 0 164.5 -23.5 225.5 -70.5
s96.167 -109.5 105.5 -187.5h-249c-2 20 -9.66699 35.667 -23 47s-31.666 17 -54.999 17c-28 0 -50.5 -14.833 -67.5 -44.5s-25.5 -68.834 -25.5 -117.501c0 -50 8.66699 -91.167 26 -123.5s39.666 -48.5 66.999 -48.5c28 0 49.667 6.5 65 19.5s23 29.833 23 50.5z
M371.001 1478h982c72.667 0 134.667 -25.333 186 -76s77 -111.667 77 -183v-994c0 -71.333 -25.667 -132.333 -77 -183s-113.333 -76 -186 -76h-982c-72.667 0 -134.667 25.333 -186 76s-77 111.667 -77 183v994c0 71.333 25.667 132.333 77 183s113.333 76 186 76z
M1385 1147c0 33.333 -11.8301 61.333 -35.4971 84s-52.834 34 -87.501 34h-800c-34.667 0 -63.834 -11.333 -87.501 -34s-35.5 -50.667 -35.5 -84v-850c0 -32.667 12.167 -60.5 36.5 -83.5s53.166 -34.5 86.499 -34.5h800c34 0 63 11.5 87 34.5s36 50.833 36 83.5v850z" />
    <glyph glyph-name="uni1F137" unicode="H&#x20de;" 
d="M1190 377h-244v233h-168v-233h-244v692h244v-245h168v245h244v-692zM371 1478h982c72.667 0 134.667 -25.333 186 -76s77 -111.667 77 -183v-994c0 -71.333 -25.667 -132.333 -77 -183s-113.333 -76 -186 -76h-982c-72.667 0 -134.667 25.333 -186 76
s-77 111.667 -77 183v994c0 71.333 25.667 132.333 77 183s113.333 76 186 76zM1385 1147c0 33.333 -11.8301 61.333 -35.4971 84s-52.834 34 -87.501 34h-800c-34.667 0 -63.834 -11.333 -87.501 -34s-35.5 -50.667 -35.5 -84v-850c0 -32.667 12.167 -60.5 36.5 -83.5
s53.166 -34.5 86.499 -34.5h800c34 0 63 11.5 87 34.5s36 50.833 36 83.5v850z" />
    <glyph glyph-name="uni1F138" unicode="I&#x20de;" 
d="M1010 377h-296v692h296v-692zM371 1478h982c72.667 0 134.667 -25.333 186 -76s77 -111.667 77 -183v-994c0 -71.333 -25.667 -132.333 -77 -183s-113.333 -76 -186 -76h-982c-72.667 0 -134.667 25.333 -186 76s-77 111.667 -77 183v994c0 71.333 25.667 132.333 77 183
s113.333 76 186 76zM1385 1147c0 33.333 -11.8301 61.333 -35.4971 84s-52.834 34 -87.501 34h-800c-34.667 0 -63.834 -11.333 -87.501 -34s-35.5 -50.667 -35.5 -84v-850c0 -32.667 12.167 -60.5 36.5 -83.5s53.166 -34.5 86.499 -34.5h800c34 0 63 11.5 87 34.5
s36 50.833 36 83.5v850z" />
    <glyph glyph-name="uni1F139" unicode="J&#x20de;" 
d="M529 658l261.998 -0.000976562c0 -25.333 3.83301 -43.666 11.5 -54.999s19.834 -17 36.501 -17c26.667 0 40 22.667 40 68v395h272v-405c0 -91.333 -27.5 -163.833 -82.5 -217.5s-128.833 -80.5 -221.5 -80.5c-97.333 0 -174.666 28 -231.999 84s-86 132 -86 228z
M370.998 1478h982c72.667 0 134.667 -25.333 186 -76s77 -111.667 77 -183v-994c0 -71.333 -25.667 -132.333 -77 -183s-113.333 -76 -186 -76h-982c-72.667 0 -134.667 25.333 -186 76s-77 111.667 -77 183v994c0 71.333 25.667 132.333 77 183s113.333 76 186 76z
M1385 1147c0 33.333 -11.8301 61.333 -35.4971 84s-52.834 34 -87.501 34h-800c-34.667 0 -63.834 -11.333 -87.501 -34s-35.5 -50.667 -35.5 -84v-850c0 -32.667 12.167 -60.5 36.5 -83.5s53.166 -34.5 86.499 -34.5h800c34 0 63 11.5 87 34.5s36 50.833 36 83.5v850z" />
    <glyph glyph-name="uni1F13A" unicode="K&#x20de;" 
d="M1214 1069l-195 -329l197 -363h-292l-104 206l-51 -65v-141h-233v692h233v-269h8l155 269h282zM371 1478h982c72.667 0 134.667 -25.333 186 -76s77 -111.667 77 -183v-994c0 -71.333 -25.667 -132.333 -77 -183s-113.333 -76 -186 -76h-982
c-72.667 0 -134.667 25.333 -186 76s-77 111.667 -77 183v994c0 71.333 25.667 132.333 77 183s113.333 76 186 76zM1385 1147c0 33.333 -11.8301 61.333 -35.4971 84s-52.834 34 -87.501 34h-800c-34.667 0 -63.834 -11.333 -87.501 -34s-35.5 -50.667 -35.5 -84v-850
c0 -32.667 12.167 -60.5 36.5 -83.5s53.166 -34.5 86.499 -34.5h800c34 0 63 11.5 87 34.5s36 50.833 36 83.5v850z" />
    <glyph glyph-name="uni1F13B" unicode="L&#x20de;" 
d="M1157 619v-222h-529v692h276v-470h253zM371 1478h982c72.667 0 134.667 -25.333 186 -76s77 -111.667 77 -183v-994c0 -71.333 -25.667 -132.333 -77 -183s-113.333 -76 -186 -76h-982c-72.667 0 -134.667 25.333 -186 76s-77 111.667 -77 183v994
c0 71.333 25.667 132.333 77 183s113.333 76 186 76zM1385 1147c0 33.333 -11.8301 61.333 -35.4971 84s-52.834 34 -87.501 34h-800c-34.667 0 -63.834 -11.333 -87.501 -34s-35.5 -50.667 -35.5 -84v-850c0 -32.667 12.167 -60.5 36.5 -83.5s53.166 -34.5 86.499 -34.5
h800c34 0 63 11.5 87 34.5s36 50.833 36 83.5v850z" />
    <glyph glyph-name="uni1F13C" unicode="M&#x20de;" 
d="M690 377h-186v692h248l108 -379h6l108 379h248v-692h-186v406h-8l-100 -351h-134l-96 351h-8v-406zM371 1478h982c72.667 0 134.667 -25.333 186 -76s77 -111.667 77 -183v-994c0 -71.333 -25.667 -132.333 -77 -183s-113.333 -76 -186 -76h-982
c-72.667 0 -134.667 25.333 -186 76s-77 111.667 -77 183v994c0 71.333 25.667 132.333 77 183s113.333 76 186 76zM1385 1147c0 33.333 -11.8301 61.333 -35.4971 84s-52.834 34 -87.501 34h-800c-34.667 0 -63.834 -11.333 -87.501 -34s-35.5 -50.667 -35.5 -84v-850
c0 -32.667 12.167 -60.5 36.5 -83.5s53.166 -34.5 86.499 -34.5h800c34 0 63 11.5 87 34.5s36 50.833 36 83.5v850z" />
    <glyph glyph-name="uni1F13D" unicode="N&#x20de;" 
d="M768 377h-224v692h176l229 -301h7v301h224v-692h-174l-230 309h-8v-309zM371 1478h982c72.667 0 134.667 -25.333 186 -76s77 -111.667 77 -183v-994c0 -71.333 -25.667 -132.333 -77 -183s-113.333 -76 -186 -76h-982c-72.667 0 -134.667 25.333 -186 76
s-77 111.667 -77 183v994c0 71.333 25.667 132.333 77 183s113.333 76 186 76zM1385 1147c0 33.333 -11.8301 61.333 -35.4971 84s-52.834 34 -87.501 34h-800c-34.667 0 -63.834 -11.333 -87.501 -34s-35.5 -50.667 -35.5 -84v-850c0 -32.667 12.167 -60.5 36.5 -83.5
s53.166 -34.5 86.499 -34.5h800c34 0 63 11.5 87 34.5s36 50.833 36 83.5v850z" />
    <glyph glyph-name="uni1F13E" unicode="O&#x20de;" 
d="M862 580c26 0 47.167 11.833 63.5 35.5s24.5 59.167 24.5 106.5s-8.16699 82.833 -24.5 106.5s-37.5 35.5 -63.5 35.5s-47.167 -11.833 -63.5 -35.5s-24.5 -59.167 -24.5 -106.5s8.16699 -82.833 24.5 -106.5s37.5 -35.5 63.5 -35.5zM862 366
c-103.333 0 -187.833 31.5 -253.5 94.5s-98.5 150.167 -98.5 261.5s32.833 198.5 98.5 261.5s150.167 94.5 253.5 94.5s187.833 -31.5 253.5 -94.5s98.5 -150.167 98.5 -261.5s-32.833 -198.5 -98.5 -261.5s-150.167 -94.5 -253.5 -94.5zM371 1478h982
c72.667 0 134.667 -25.333 186 -76s77 -111.667 77 -183v-994c0 -71.333 -25.667 -132.333 -77 -183s-113.333 -76 -186 -76h-982c-72.667 0 -134.667 25.333 -186 76s-77 111.667 -77 183v994c0 71.333 25.667 132.333 77 183s113.333 76 186 76zM1385 1147
c0 33.333 -11.8301 61.333 -35.4971 84s-52.834 34 -87.501 34h-800c-34.667 0 -63.834 -11.333 -87.501 -34s-35.5 -50.667 -35.5 -84v-850c0 -32.667 12.167 -60.5 36.5 -83.5s53.166 -34.5 86.499 -34.5h800c34 0 63 11.5 87 34.5s36 50.833 36 83.5v850z" />
    <glyph glyph-name="uni1F13F" unicode="P&#x20de;" 
d="M944 1069c82.667 0 148.833 -25 198.5 -75s74.5 -116.667 74.5 -200c0 -82 -25 -147.167 -75 -195.5s-117.333 -72.5 -202 -72.5h-69v-149h-275v692h348zM960.999 794c0 27.333 -5.33203 47.167 -15.999 59.5s-27.334 18.5 -50.001 18.5h-46v-155h46
c44 0 66 25.667 66 77zM371 1478h982c72.667 0 134.667 -25.333 186 -76s77 -111.667 77 -183v-994c0 -71.333 -25.667 -132.333 -77 -183s-113.333 -76 -186 -76h-982c-72.667 0 -134.667 25.333 -186 76s-77 111.667 -77 183v994c0 71.333 25.667 132.333 77 183
s113.333 76 186 76zM1385 1147c0 33.333 -11.8301 61.333 -35.4971 84s-52.834 34 -87.501 34h-800c-34.667 0 -63.834 -11.333 -87.501 -34s-35.5 -50.667 -35.5 -84v-850c0 -32.667 12.167 -60.5 36.5 -83.5s53.166 -34.5 86.499 -34.5h800c34 0 63 11.5 87 34.5
s36 50.833 36 83.5v850z" />
    <glyph glyph-name="uni1F140" unicode="Q&#x20de;" 
d="M1200 325h-252l-14 47c-22.667 -4 -46.667 -6 -72 -6c-103.333 0 -187.833 31.5 -253.5 94.5s-98.5 150.167 -98.5 261.5s32.833 198.5 98.5 261.5s150.167 94.5 253.5 94.5s187.833 -31.5 253.5 -94.5s98.5 -150.167 98.5 -261.5c0 -112 -34 -200.333 -102 -265z
M862 580c5.33301 0 9.33301 0.333008 12 1l-24 81h94c4 17.333 6 37.333 6 60c0 47.333 -8.16699 82.833 -24.5 106.5s-37.5 35.5 -63.5 35.5s-47.167 -11.833 -63.5 -35.5s-24.5 -59.167 -24.5 -106.5s8.16699 -82.833 24.5 -106.5s37.5 -35.5 63.5 -35.5zM371 1478h982
c72.667 0 134.667 -25.333 186 -76s77 -111.667 77 -183v-994c0 -71.333 -25.667 -132.333 -77 -183s-113.333 -76 -186 -76h-982c-72.667 0 -134.667 25.333 -186 76s-77 111.667 -77 183v994c0 71.333 25.667 132.333 77 183s113.333 76 186 76zM1385 1147
c0 33.333 -11.8301 61.333 -35.4971 84s-52.834 34 -87.501 34h-800c-34.667 0 -63.834 -11.333 -87.501 -34s-35.5 -50.667 -35.5 -84v-850c0 -32.667 12.167 -60.5 36.5 -83.5s53.166 -34.5 86.499 -34.5h800c34 0 63 11.5 87 34.5s36 50.833 36 83.5v850z" />
    <glyph glyph-name="uni1F141" unicode="R&#x20de;" 
d="M899 1069c96.667 0 171 -19.999 223 -59.999s78 -97.667 78 -173c0 -48 -11.833 -88.833 -35.5 -122.5s-57.5 -56.834 -101.5 -69.501l153 -267h-271l-105 218h-45v-218h-237v692h341zM795 759.001l79.001 -0.000976562c19.333 0 34.666 5.33301 45.999 16
s17 25.334 17 44.001c0 40 -21 60 -63 60h-79v-120zM371.001 1478h982c72.667 0 134.667 -25.333 186 -76s77 -111.667 77 -183v-994c0 -71.333 -25.667 -132.333 -77 -183s-113.333 -76 -186 -76h-982c-72.667 0 -134.667 25.333 -186 76s-77 111.667 -77 183v994
c0 71.333 25.667 132.333 77 183s113.333 76 186 76zM1385 1147c0 33.333 -11.8301 61.333 -35.4971 84s-52.834 34 -87.501 34h-800c-34.667 0 -63.834 -11.333 -87.501 -34s-35.5 -50.667 -35.5 -84v-850c0 -32.667 12.167 -60.5 36.5 -83.5s53.166 -34.5 86.499 -34.5
h800c34 0 63 11.5 87 34.5s36 50.833 36 83.5v850z" />
    <glyph glyph-name="uni1F142" unicode="S&#x20de;" 
d="M544 588l252.001 0.00292969c6.66699 -25.333 30 -38 70 -38c20.667 0 37.167 3.5 49.5 10.5s18.5 16.167 18.5 27.5c0 10.667 -6.33301 18.5 -19 23.5s-40.334 10.167 -83.001 15.5l-64 8c-70 9.33301 -123.833 31.666 -161.5 66.999s-56.5 81.666 -56.5 138.999
c0 72 28 129.333 84 172s131 64 225 64c86 0 156.333 -19.167 211 -57.5s85.667 -90.5 93 -156.5h-244c-7.33301 23.333 -27.333 35 -60 35c-37.333 0 -56 -11.333 -56 -34c0 -11.333 6.66699 -19.833 20 -25.5s39.333 -10.834 78 -15.501l78 -10
c66.667 -8 117.167 -29.167 151.5 -63.5s51.5 -80.833 51.5 -139.5c0 -74 -29.333 -133 -88 -177s-136.667 -66 -234 -66c-95.333 0 -170.833 19.5 -226.5 58.5s-85.5 93.167 -89.5 162.5zM371.001 1478h982c72.667 0 134.667 -25.333 186 -76s77 -111.667 77 -183v-994
c0 -71.333 -25.667 -132.333 -77 -183s-113.333 -76 -186 -76h-982c-72.667 0 -134.667 25.333 -186 76s-77 111.667 -77 183v994c0 71.333 25.667 132.333 77 183s113.333 76 186 76zM1385 1147c0 33.333 -11.8301 61.333 -35.4971 84s-52.834 34 -87.501 34h-800
c-34.667 0 -63.834 -11.333 -87.501 -34s-35.5 -50.667 -35.5 -84v-850c0 -32.667 12.167 -60.5 36.5 -83.5s53.166 -34.5 86.499 -34.5h800c34 0 63 11.5 87 34.5s36 50.833 36 83.5v850z" />
    <glyph glyph-name="uni1F143" unicode="T&#x20de;" 
d="M1000 352h-276v475h-180v217h636v-217h-180v-475zM371 1478h982c72.667 0 134.667 -25.333 186 -76s77 -111.667 77 -183v-994c0 -71.333 -25.667 -132.333 -77 -183s-113.333 -76 -186 -76h-982c-72.667 0 -134.667 25.333 -186 76s-77 111.667 -77 183v994
c0 71.333 25.667 132.333 77 183s113.333 76 186 76zM1385 1147c0 33.333 -11.8301 61.333 -35.4971 84s-52.834 34 -87.501 34h-800c-34.667 0 -63.834 -11.333 -87.501 -34s-35.5 -50.667 -35.5 -84v-850c0 -32.667 12.167 -60.5 36.5 -83.5s53.166 -34.5 86.499 -34.5
h800c34 0 63 11.5 87 34.5s36 50.833 36 83.5v850z" />
    <glyph glyph-name="uni1F144" unicode="U&#x20de;" 
d="M862 553c19.333 0 34.833 5.66699 46.5 17s17.5 26.333 17.5 45v429h261v-454c0 -70.667 -30.167 -129.834 -90.5 -177.501s-138.5 -71.5 -234.5 -71.5s-174.167 23.833 -234.5 71.5s-90.5 106.834 -90.5 177.501v454h261v-429c0 -18.667 5.83301 -33.667 17.5 -45
s27.167 -17 46.5 -17zM371 1478h982c72.667 0 134.667 -25.333 186 -76s77 -111.667 77 -183v-994c0 -71.333 -25.667 -132.333 -77 -183s-113.333 -76 -186 -76h-982c-72.667 0 -134.667 25.333 -186 76s-77 111.667 -77 183v994c0 71.333 25.667 132.333 77 183
s113.333 76 186 76zM1385 1147c0 33.333 -11.8301 61.333 -35.4971 84s-52.834 34 -87.501 34h-800c-34.667 0 -63.834 -11.333 -87.501 -34s-35.5 -50.667 -35.5 -84v-850c0 -32.667 12.167 -60.5 36.5 -83.5s53.166 -34.5 86.499 -34.5h800c34 0 63 11.5 87 34.5
s36 50.833 36 83.5v850z" />
    <glyph glyph-name="uni1F145" unicode="V&#x20de;" 
d="M674 342l-176 692h288l72 -474h8l72 474h288l-176 -692h-376zM371 1478h982c72.667 0 134.667 -25.333 186 -76s77 -111.667 77 -183v-994c0 -71.333 -25.667 -132.333 -77 -183s-113.333 -76 -186 -76h-982c-72.667 0 -134.667 25.333 -186 76s-77 111.667 -77 183v994
c0 71.333 25.667 132.333 77 183s113.333 76 186 76zM1385 1147c0 33.333 -11.8301 61.333 -35.4971 84s-52.834 34 -87.501 34h-800c-34.667 0 -63.834 -11.333 -87.501 -34s-35.5 -50.667 -35.5 -84v-850c0 -32.667 12.167 -60.5 36.5 -83.5s53.166 -34.5 86.499 -34.5
h800c34 0 63 11.5 87 34.5s36 50.833 36 83.5v850z" />
    <glyph glyph-name="uni1F146" unicode="W&#x20de;" 
d="M858 718l-69 -366h-218l-129 692h214l45 -416h8l70 416h167l69 -416h8l45 416h214l-128 -692h-219l-69 366h-8zM371 1478h982c72.667 0 134.667 -25.333 186 -76s77 -111.667 77 -183v-994c0 -71.333 -25.667 -132.333 -77 -183s-113.333 -76 -186 -76h-982
c-72.667 0 -134.667 25.333 -186 76s-77 111.667 -77 183v994c0 71.333 25.667 132.333 77 183s113.333 76 186 76zM1385 1147c0 33.333 -11.8301 61.333 -35.4971 84s-52.834 34 -87.501 34h-800c-34.667 0 -63.834 -11.333 -87.501 -34s-35.5 -50.667 -35.5 -84v-850
c0 -32.667 12.167 -60.5 36.5 -83.5s53.166 -34.5 86.499 -34.5h800c34 0 63 11.5 87 34.5s36 50.833 36 83.5v850z" />
    <glyph glyph-name="uni1F147" unicode="X&#x20de;" 
d="M1216 1069l-199 -346l199 -346h-272l-81 204h-8l-78 -204h-289l208 346l-208 346h289l78 -203h8l81 203h272zM371 1478h982c72.667 0 134.667 -25.333 186 -76s77 -111.667 77 -183v-994c0 -71.333 -25.667 -132.333 -77 -183s-113.333 -76 -186 -76h-982
c-72.667 0 -134.667 25.333 -186 76s-77 111.667 -77 183v994c0 71.333 25.667 132.333 77 183s113.333 76 186 76zM1385 1147c0 33.333 -11.8301 61.333 -35.4971 84s-52.834 34 -87.501 34h-800c-34.667 0 -63.834 -11.333 -87.501 -34s-35.5 -50.667 -35.5 -84v-850
c0 -32.667 12.167 -60.5 36.5 -83.5s53.166 -34.5 86.499 -34.5h800c34 0 63 11.5 87 34.5s36 50.833 36 83.5v850z" />
    <glyph glyph-name="uni1F148" unicode="Y&#x20de;" 
d="M1006 352h-288v184l-232 508h295l77 -255h8l77 255h295l-232 -508v-184zM371 1478h982c72.667 0 134.667 -25.333 186 -76s77 -111.667 77 -183v-994c0 -71.333 -25.667 -132.333 -77 -183s-113.333 -76 -186 -76h-982c-72.667 0 -134.667 25.333 -186 76
s-77 111.667 -77 183v994c0 71.333 25.667 132.333 77 183s113.333 76 186 76zM1385 1147c0 33.333 -11.8301 61.333 -35.4971 84s-52.834 34 -87.501 34h-800c-34.667 0 -63.834 -11.333 -87.501 -34s-35.5 -50.667 -35.5 -84v-850c0 -32.667 12.167 -60.5 36.5 -83.5
s53.166 -34.5 86.499 -34.5h800c34 0 63 11.5 87 34.5s36 50.833 36 83.5v850z" />
    <glyph glyph-name="uni1F149" unicode="Z&#x20de;" 
d="M581 377v168l239 307v8h-249v209h572v-169l-241 -306v-9h252v-208h-573zM371 1478h982c72.667 0 134.667 -25.333 186 -76s77 -111.667 77 -183v-994c0 -71.333 -25.667 -132.333 -77 -183s-113.333 -76 -186 -76h-982c-72.667 0 -134.667 25.333 -186 76
s-77 111.667 -77 183v994c0 71.333 25.667 132.333 77 183s113.333 76 186 76zM1385 1147c0 33.333 -11.8301 61.333 -35.4971 84s-52.834 34 -87.501 34h-800c-34.667 0 -63.834 -11.333 -87.501 -34s-35.5 -50.667 -35.5 -84v-850c0 -32.667 12.167 -60.5 36.5 -83.5
s53.166 -34.5 86.499 -34.5h800c34 0 63 11.5 87 34.5s36 50.833 36 83.5v850z" />
    <glyph glyph-name="uni1F150" unicode="A&#x20dd;&#x25cf;" 
d="M930 652h-136l64 285h8zM749 380l19 97h189l19 -97h283l-216 741h-361l-217 -741h284zM862 -56c-105.333 0 -206 20.667 -302 62s-178.667 96.666 -248 165.999s-124.666 152 -165.999 248s-62 196.667 -62 302s20.667 206 62 302s96.666 178.667 165.999 248
s152 124.666 248 165.999s196.667 62 302 62s206 -20.667 302 -62s178.667 -96.666 248 -165.999s124.666 -152 165.999 -248s62 -196.667 62 -302s-20.667 -206 -62 -302s-96.666 -178.667 -165.999 -248s-152 -124.666 -248 -165.999s-196.667 -62 -302 -62z" />
    <glyph glyph-name="uni1F151" unicode="B&#x20dd;&#x25cf;" 
d="M534 350l437.001 -0.000976562c70 0 128.5 19.333 175.5 58s70.5 87.334 70.5 146.001c0 52 -15.333 94 -46 126s-74.334 52 -131.001 60v7c46 7.33301 82.5 25.333 109.5 54s40.5 64.334 40.5 107.001c0 57.333 -20.667 102.166 -62 134.499s-99.333 48.5 -174 48.5
h-420v-741zM791.001 922.999l67 0.000976562c23.333 0 41.833 -5.33301 55.5 -16s20.5 -25.334 20.5 -44.001c0 -40.667 -25.333 -61 -76 -61h-67v121zM790.001 665h71c26 0 46.333 -5.83301 61 -17.5s22 -27.5 22 -47.5c0 -22 -7.16699 -39 -21.5 -51
s-34.833 -18 -61.5 -18h-71v134zM862.001 -56c-105.333 0 -206 20.667 -302 62s-178.667 96.666 -248 165.999s-124.666 152 -165.999 248s-62 196.667 -62 302s20.667 206 62 302s96.666 178.667 165.999 248s152 124.666 248 165.999s196.667 62 302 62
s206 -20.667 302 -62s178.667 -96.666 248 -165.999s124.666 -152 165.999 -248s62 -196.667 62 -302s-20.667 -206 -62 -302s-96.666 -178.667 -165.999 -248s-152 -124.666 -248 -165.999s-196.667 -62 -302 -62z" />
    <glyph glyph-name="uni1F152" unicode="C&#x20dd;&#x25cf;" 
d="M961 653c0 -24.667 -9 -45.166 -27 -61.499s-39.667 -24.5 -65 -24.5c-30.667 0 -54.834 12.833 -72.501 38.5s-26.5 63.5 -26.5 113.5s8.83301 87.833 26.5 113.5s41.834 38.5 72.501 38.5c25.333 0 47 -8.16699 65 -24.5s27 -36.833 27 -61.5h256
c-1.33301 92.667 -34.5 168.334 -99.5 227.001s-149.167 88 -252.5 88c-108.667 0 -198.667 -33.833 -270 -101.5s-107 -160.834 -107 -279.501s35.667 -211.834 107 -279.501s161.333 -101.5 270 -101.5c103.333 0 187.5 29.5 252.5 88.5s98.167 134.5 99.5 226.5h-256z
M862 -55.999c-105.333 0 -206 20.667 -302 62s-178.667 96.666 -248 165.999s-124.666 152 -165.999 248s-62 196.667 -62 302s20.667 206 62 302s96.666 178.667 165.999 248s152 124.666 248 165.999s196.667 62 302 62s206 -20.667 302 -62s178.667 -96.666 248 -165.999
s124.666 -152 165.999 -248s62 -196.667 62 -302s-20.667 -206 -62 -302s-96.666 -178.667 -165.999 -248s-152 -124.666 -248 -165.999s-196.667 -62 -302 -62z" />
    <glyph glyph-name="uni1F153" unicode="D&#x20dd;&#x25cf;" 
d="M537 1091v-741h364c114.667 0 201.667 31.333 261 94s89 154.667 89 276s-29.667 213.5 -89 276.5s-146.333 94.5 -261 94.5h-364zM804 890h44c43.333 0 73.833 -12.833 91.5 -38.5s26.5 -69.5 26.5 -131.5s-8.83301 -105.667 -26.5 -131s-48.167 -38 -91.5 -38h-44v339z
M862 -56c-105.333 0 -206 20.667 -302 62s-178.667 96.666 -248 165.999s-124.666 152 -165.999 248s-62 196.667 -62 302s20.667 206 62 302s96.666 178.667 165.999 248s152 124.666 248 165.999s196.667 62 302 62s206 -20.667 302 -62s178.667 -96.666 248 -165.999
s124.666 -152 165.999 -248s62 -196.667 62 -302s-20.667 -206 -62 -302s-96.666 -178.667 -165.999 -248s-152 -124.666 -248 -165.999s-196.667 -62 -302 -62z" />
    <glyph glyph-name="uni1F154" unicode="E&#x20dd;&#x25cf;" 
d="M1160 543h-311v92h290v170h-290v92h311v194h-574v-741h574v193zM862 -56c-105.333 0 -206 20.667 -302 62s-178.667 96.666 -248 165.999s-124.666 152 -165.999 248s-62 196.667 -62 302s20.667 206 62 302s96.666 178.667 165.999 248s152 124.666 248 165.999
s196.667 62 302 62s206 -20.667 302 -62s178.667 -96.666 248 -165.999s124.666 -152 165.999 -248s62 -196.667 62 -302s-20.667 -206 -62 -302s-96.666 -178.667 -165.999 -248s-152 -124.666 -248 -165.999s-196.667 -62 -302 -62z" />
    <glyph glyph-name="uni1F155" unicode="F&#x20dd;&#x25cf;" 
d="M878 350v233h256v211h-256v89h286v208h-575v-741h289zM862 -56c-105.333 0 -206 20.667 -302 62s-178.667 96.666 -248 165.999s-124.666 152 -165.999 248s-62 196.667 -62 302s20.667 206 62 302s96.666 178.667 165.999 248s152 124.666 248 165.999
s196.667 62 302 62s206 -20.667 302 -62s178.667 -96.666 248 -165.999s124.666 -152 165.999 -248s62 -196.667 62 -302s-20.667 -206 -62 -302s-96.666 -178.667 -165.999 -248s-152 -124.666 -248 -165.999s-196.667 -62 -302 -62z" />
    <glyph glyph-name="uni1F156" unicode="G&#x20dd;&#x25cf;" 
d="M963 610c0 -22 -8.16699 -39.9971 -24.5 -53.9971s-39.5 -21 -69.5 -21c-29.333 0 -53.333 17.333 -72 52s-28 78.667 -28 132c0 52 9.16699 93.833 27.5 125.5s42.5 47.5 72.5 47.5c51.333 0 79 -22.667 83 -68h267c-10.667 83.333 -48.5 150.166 -113.5 200.499
s-145.167 75.5 -240.5 75.5c-113.333 0 -204.5 -34.833 -273.5 -104.5s-103.5 -161.834 -103.5 -276.501s34.5 -206.834 103.5 -276.501s160.167 -104.5 273.5 -104.5c105.333 0 191 29.333 257 88s99 132 99 220v129h-357v-161h99v-4zM862 -55.9971
c-105.333 0 -206 20.667 -302 62s-178.667 96.666 -248 165.999s-124.666 152 -165.999 248s-62 196.667 -62 302s20.667 206 62 302s96.666 178.667 165.999 248s152 124.666 248 165.999s196.667 62 302 62s206 -20.667 302 -62s178.667 -96.666 248 -165.999
s124.666 -152 165.999 -248s62 -196.667 62 -302s-20.667 -206 -62 -302s-96.666 -178.667 -165.999 -248s-152 -124.666 -248 -165.999s-196.667 -62 -302 -62z" />
    <glyph glyph-name="uni1F157" unicode="H&#x20dd;&#x25cf;" 
d="M1213 350v741h-264v-260h-173v260h-264v-741h264v247h173v-247h264zM862 -56c-105.333 0 -206 20.667 -302 62s-178.667 96.666 -248 165.999s-124.666 152 -165.999 248s-62 196.667 -62 302s20.667 206 62 302s96.666 178.667 165.999 248s152 124.666 248 165.999
s196.667 62 302 62s206 -20.667 302 -62s178.667 -96.666 248 -165.999s124.666 -152 165.999 -248s62 -196.667 62 -302s-20.667 -206 -62 -302s-96.666 -178.667 -165.999 -248s-152 -124.666 -248 -165.999s-196.667 -62 -302 -62z" />
    <glyph glyph-name="uni1F158" unicode="I&#x20dd;&#x25cf;" 
d="M1023 350v741h-321v-741h321zM862 -56c-105.333 0 -206 20.667 -302 62s-178.667 96.666 -248 165.999s-124.666 152 -165.999 248s-62 196.667 -62 302s20.667 206 62 302s96.666 178.667 165.999 248s152 124.666 248 165.999s196.667 62 302 62s206 -20.667 302 -62
s178.667 -96.666 248 -165.999s124.666 -152 165.999 -248s62 -196.667 62 -302s-20.667 -206 -62 -302s-96.666 -178.667 -165.999 -248s-152 -124.666 -248 -165.999s-196.667 -62 -302 -62z" />
    <glyph glyph-name="uni1F159" unicode="J&#x20dd;&#x25cf;" 
d="M502 656c0 -104 30.665 -186.166 91.998 -246.499s144.333 -90.5 249 -90.5c100.667 0 180.334 28.667 239.001 86s88 135 88 233v434h-295v-423c0 -45.333 -13 -68 -39 -68c-17.333 0 -29.666 5.66699 -36.999 17s-11 30.666 -11 57.999h-286zM861.998 -55.999
c-105.333 0 -206 20.667 -302 62s-178.667 96.666 -248 165.999s-124.666 152 -165.999 248s-62 196.667 -62 302s20.667 206 62 302s96.666 178.667 165.999 248s152 124.666 248 165.999s196.667 62 302 62s206 -20.667 302 -62s178.667 -96.666 248 -165.999
s124.666 -152 165.999 -248s62 -196.667 62 -302s-20.667 -206 -62 -302s-96.666 -178.667 -165.999 -248s-152 -124.666 -248 -165.999s-196.667 -62 -302 -62z" />
    <glyph glyph-name="uni1F15A" unicode="K&#x20dd;&#x25cf;" 
d="M1238 1091h-307l-161 -270h-8v270h-254v-741h254v152l50 64l109 -216h318l-210 387zM862 -56c-105.333 0 -206 20.667 -302 62s-178.667 96.666 -248 165.999s-124.666 152 -165.999 248s-62 196.667 -62 302s20.667 206 62 302s96.666 178.667 165.999 248
s152 124.666 248 165.999s196.667 62 302 62s206 -20.667 302 -62s178.667 -96.666 248 -165.999s124.666 -152 165.999 -248s62 -196.667 62 -302s-20.667 -206 -62 -302s-96.666 -178.667 -165.999 -248s-152 -124.666 -248 -165.999s-196.667 -62 -302 -62z" />
    <glyph glyph-name="uni1F15B" unicode="L&#x20dd;&#x25cf;" 
d="M1173 611h-269v500h-300v-741h569v241zM862 -56c-105.333 0 -206 20.667 -302 62s-178.667 96.666 -248 165.999s-124.666 152 -165.999 248s-62 196.667 -62 302s20.667 206 62 302s96.666 178.667 165.999 248s152 124.666 248 165.999s196.667 62 302 62
s206 -20.667 302 -62s178.667 -96.666 248 -165.999s124.666 -152 165.999 -248s62 -196.667 62 -302s-20.667 -206 -62 -302s-96.666 -178.667 -165.999 -248s-152 -124.666 -248 -165.999s-196.667 -62 -302 -62z" />
    <glyph glyph-name="uni1F15C" unicode="M&#x20dd;&#x25cf;" 
d="M676 350v433h12l106 -374h133l111 374h12v-433h199v741h-265l-118 -409h-6l-118 409h-265v-741h199zM862 -56c-105.333 0 -206 20.667 -302 62s-178.667 96.666 -248 165.999s-124.666 152 -165.999 248s-62 196.667 -62 302s20.667 206 62 302
s96.666 178.667 165.999 248s152 124.666 248 165.999s196.667 62 302 62s206 -20.667 302 -62s178.667 -96.666 248 -165.999s124.666 -152 165.999 -248s62 -196.667 62 -302s-20.667 -206 -62 -302s-96.666 -178.667 -165.999 -248s-152 -124.666 -248 -165.999
s-196.667 -62 -302 -62z" />
    <glyph glyph-name="uni1F15D" unicode="N&#x20dd;&#x25cf;" 
d="M764 350v329h8l238 -329h194v741h-243v-322h-8l-236 322h-196v-741h243zM862 -56c-105.333 0 -206 20.667 -302 62s-178.667 96.666 -248 165.999s-124.666 152 -165.999 248s-62 196.667 -62 302s20.667 206 62 302s96.666 178.667 165.999 248s152 124.666 248 165.999
s196.667 62 302 62s206 -20.667 302 -62s178.667 -96.666 248 -165.999s124.666 -152 165.999 -248s62 -196.667 62 -302s-20.667 -206 -62 -302s-96.666 -178.667 -165.999 -248s-152 -124.666 -248 -165.999s-196.667 -62 -302 -62z" />
    <glyph glyph-name="uni1F15E" unicode="O&#x20dd;&#x25cf;" 
d="M862 567c-27.333 0 -49.833 12.667 -67.5 38s-26.5 63.333 -26.5 114s8.83301 88.667 26.5 114s40.167 38 67.5 38s49.833 -12.667 67.5 -38s26.5 -63.333 26.5 -114s-8.83301 -88.667 -26.5 -114s-40.167 -38 -67.5 -38zM862 338c110.667 0 201.167 33.833 271.5 101.5
s105.5 160.834 105.5 279.501s-35.167 211.834 -105.5 279.501s-160.833 101.5 -271.5 101.5s-201.167 -33.833 -271.5 -101.5s-105.5 -160.834 -105.5 -279.501s35.167 -211.834 105.5 -279.501s160.833 -101.5 271.5 -101.5zM862 -56c-105.333 0 -206 20.667 -302 62
s-178.667 96.666 -248 165.999s-124.666 152 -165.999 248s-62 196.667 -62 302s20.667 206 62 302s96.666 178.667 165.999 248s152 124.666 248 165.999s196.667 62 302 62s206 -20.667 302 -62s178.667 -96.666 248 -165.999s124.666 -152 165.999 -248
s62 -196.667 62 -302s-20.667 -206 -62 -302s-96.666 -178.667 -165.999 -248s-152 -124.666 -248 -165.999s-196.667 -62 -302 -62z" />
    <glyph glyph-name="uni1F15F" unicode="P&#x20dd;&#x25cf;" 
d="M943 1091h-373.001v-741h298v158h71c90.667 0 162.834 26 216.501 78s80.5 121.667 80.5 209c0 90.667 -26.5 162.667 -79.5 216s-124.167 80 -213.5 80zM966.999 795c0 -59.333 -26.333 -89 -79 -89h-52v180h52c25.333 0 44.833 -7.83301 58.5 -23.5
s20.5 -38.167 20.5 -67.5zM861.999 -56c-105.333 0 -206 20.667 -302 62s-178.667 96.666 -248 165.999s-124.666 152 -165.999 248s-62 196.667 -62 302s20.667 206 62 302s96.666 178.667 165.999 248s152 124.666 248 165.999s196.667 62 302 62s206 -20.667 302 -62
s178.667 -96.666 248 -165.999s124.666 -152 165.999 -248s62 -196.667 62 -302s-20.667 -206 -62 -302s-96.666 -178.667 -165.999 -248s-152 -124.666 -248 -165.999s-196.667 -62 -302 -62z" />
    <glyph glyph-name="uni1F160" unicode="Q&#x20dd;&#x25cf;" 
d="M1224 295l-94 141.002c72.667 69.333 109 163.666 109 282.999c0 118.667 -35.167 211.834 -105.5 279.501s-160.833 101.5 -271.5 101.5s-201.167 -33.833 -271.5 -101.5s-105.5 -160.834 -105.5 -279.501s35.167 -211.834 105.5 -279.501s160.833 -101.5 271.5 -101.5
c26.667 0 52.667 2 78 6l14 -49h270zM862 567.002c-27.333 0 -49.833 12.667 -67.5 38s-26.5 63.333 -26.5 114s8.83301 88.667 26.5 114s40.167 38 67.5 38s49.833 -12.667 67.5 -38s26.5 -63.333 26.5 -114c0 -24.667 -2 -46 -6 -64h-101l25 -87
c-2.66699 -0.666992 -6.66699 -1 -12 -1zM862 -55.998c-105.333 0 -206 20.667 -302 62s-178.667 96.666 -248 165.999s-124.666 152 -165.999 248s-62 196.667 -62 302s20.667 206 62 302s96.666 178.667 165.999 248s152 124.666 248 165.999s196.667 62 302 62
s206 -20.667 302 -62s178.667 -96.666 248 -165.999s124.666 -152 165.999 -248s62 -196.667 62 -302s-20.667 -206 -62 -302s-96.666 -178.667 -165.999 -248s-152 -124.666 -248 -165.999s-196.667 -62 -302 -62z" />
    <glyph glyph-name="uni1F161" unicode="R&#x20dd;&#x25cf;" 
d="M778 754v136.999h92c48.667 0 73 -22.667 73 -68c0 -21.333 -6.5 -38.166 -19.5 -50.499s-30.833 -18.5 -53.5 -18.5h-92zM896 1091l-366.001 -0.000976562v-741h259v231h43l111 -231h295l-162 283c46 16.667 81.5 42.834 106.5 78.501s37.5 78.5 37.5 128.5
c0 82 -27.667 144.333 -83 187s-135.666 64 -240.999 64zM861.999 -56.002c-105.333 0 -206 20.667 -302 62s-178.667 96.666 -248 165.999s-124.666 152 -165.999 248s-62 196.667 -62 302s20.667 206 62 302s96.666 178.667 165.999 248s152 124.666 248 165.999
s196.667 62 302 62s206 -20.667 302 -62s178.667 -96.666 248 -165.999s124.666 -152 165.999 -248s62 -196.667 62 -302s-20.667 -206 -62 -302s-96.666 -178.667 -165.999 -248s-152 -124.666 -248 -165.999s-196.667 -62 -302 -62z" />
    <glyph glyph-name="uni1F162" unicode="S&#x20dd;&#x25cf;" 
d="M521 578c4.66699 -74.667 36.6689 -132.665 96.002 -173.998s140.333 -62 243 -62c104 0 187.5 23.667 250.5 71s94.5 110.333 94.5 189c0 62.667 -18.5 112.667 -55.5 150s-91.5 60 -163.5 68l-82 10c-42 4.66699 -70.167 10.167 -84.5 16.5s-21.5 15.833 -21.5 28.5
c0 11.333 5.5 20.166 16.5 26.499s25.833 9.5 44.5 9.5c34.667 0 56 -12.333 64 -37h261c-8 70 -41.167 125.5 -99.5 166.5s-133.5 61.5 -225.5 61.5c-100.667 0 -181.167 -22.833 -241.5 -68.5s-90.5 -106.834 -90.5 -183.501c0 -62 20.167 -111.833 60.5 -149.5
s98.166 -61.5 173.499 -71.5l69 -8c45.333 -6 74.666 -11.667 87.999 -17s20 -14 20 -26s-6.5 -21.667 -19.5 -29s-30.5 -11 -52.5 -11c-20 0 -36.667 3.66699 -50 11s-21.333 17 -24 29h-271zM862.002 -55.998c-105.333 0 -206 20.667 -302 62
s-178.667 96.666 -248 165.999s-124.666 152 -165.999 248s-62 196.667 -62 302s20.667 206 62 302s96.666 178.667 165.999 248s152 124.666 248 165.999s196.667 62 302 62s206 -20.667 302 -62s178.667 -96.666 248 -165.999s124.666 -152 165.999 -248
s62 -196.667 62 -302s-20.667 -206 -62 -302s-96.666 -178.667 -165.999 -248s-152 -124.666 -248 -165.999s-196.667 -62 -302 -62z" />
    <glyph glyph-name="uni1F163" unicode="T&#x20dd;&#x25cf;" 
d="M1011 325v506h193v235h-683v-235h192v-506h298zM862 -56c-105.333 0 -206 20.667 -302 62s-178.667 96.666 -248 165.999s-124.666 152 -165.999 248s-62 196.667 -62 302s20.667 206 62 302s96.666 178.667 165.999 248s152 124.666 248 165.999s196.667 62 302 62
s206 -20.667 302 -62s178.667 -96.666 248 -165.999s124.666 -152 165.999 -248s62 -196.667 62 -302s-20.667 -206 -62 -302s-96.666 -178.667 -165.999 -248s-152 -124.666 -248 -165.999s-196.667 -62 -302 -62z" />
    <glyph glyph-name="uni1F164" unicode="U&#x20dd;&#x25cf;" 
d="M862 545c-18.667 0 -34.001 5.83398 -46.001 17.501s-18 26.167 -18 43.5v461h-284v-507c0 -74 31.833 -133.5 95.5 -178.5s147.834 -67.5 252.501 -67.5s189 22.667 253 68s96 104.666 96 177.999v507h-284v-461c0 -18 -6 -32.667 -18 -44s-27.667 -17 -47 -17z
M861.999 -55.999c-105.333 0 -206 20.667 -302 62s-178.667 96.666 -248 165.999s-124.666 152 -165.999 248s-62 196.667 -62 302s20.667 206 62 302s96.666 178.667 165.999 248s152 124.666 248 165.999s196.667 62 302 62s206 -20.667 302 -62
s178.667 -96.666 248 -165.999s124.666 -152 165.999 -248s62 -196.667 62 -302s-20.667 -206 -62 -302s-96.666 -178.667 -165.999 -248s-152 -124.666 -248 -165.999s-196.667 -62 -302 -62z" />
    <glyph glyph-name="uni1F165" unicode="V&#x20dd;&#x25cf;" 
d="M1063 316l188 740h-307l-78 -499h-8l-78 499h-307l188 -740h402zM862 -56c-105.333 0 -206 20.667 -302 62s-178.667 96.666 -248 165.999s-124.666 152 -165.999 248s-62 196.667 -62 302s20.667 206 62 302s96.666 178.667 165.999 248s152 124.666 248 165.999
s196.667 62 302 62s206 -20.667 302 -62s178.667 -96.666 248 -165.999s124.666 -152 165.999 -248s62 -196.667 62 -302s-20.667 -206 -62 -302s-96.666 -178.667 -165.999 -248s-152 -124.666 -248 -165.999s-196.667 -62 -302 -62z" />
    <glyph glyph-name="uni1F166" unicode="W&#x20dd;&#x25cf;" 
d="M861 708h2l73 -383h239l138 741h-235l-48 -441h-7l-73 441h-175l-74 -441h-6l-48 441h-235l138 -741h239zM862 -56c-105.333 0 -206 20.667 -302 62s-178.667 96.666 -248 165.999s-124.666 152 -165.999 248s-62 196.667 -62 302s20.667 206 62 302
s96.666 178.667 165.999 248s152 124.666 248 165.999s196.667 62 302 62s206 -20.667 302 -62s178.667 -96.666 248 -165.999s124.666 -152 165.999 -248s62 -196.667 62 -302s-20.667 -206 -62 -302s-96.666 -178.667 -165.999 -248s-152 -124.666 -248 -165.999
s-196.667 -62 -302 -62z" />
    <glyph glyph-name="uni1F167" unicode="X&#x20dd;&#x25cf;" 
d="M1241 1091h-291l-86 -214h-9l-83 214h-309l222 -370l-222 -371h309l83 216h9l86 -216h291l-212 371zM862 -56c-105.333 0 -206 20.667 -302 62s-178.667 96.666 -248 165.999s-124.666 152 -165.999 248s-62 196.667 -62 302s20.667 206 62 302
s96.666 178.667 165.999 248s152 124.666 248 165.999s196.667 62 302 62s206 -20.667 302 -62s178.667 -96.666 248 -165.999s124.666 -152 165.999 -248s62 -196.667 62 -302s-20.667 -206 -62 -302s-96.666 -178.667 -165.999 -248s-152 -124.666 -248 -165.999
s-196.667 -62 -302 -62z" />
    <glyph glyph-name="uni1F168" unicode="Y&#x20dd;&#x25cf;" 
d="M706 325h313v198l249 543h-321l-83 -270h-4l-82 270h-321l249 -543v-198zM862 -56c-105.333 0 -206 20.667 -302 62s-178.667 96.666 -248 165.999s-124.666 152 -165.999 248s-62 196.667 -62 302s20.667 206 62 302s96.666 178.667 165.999 248
s152 124.666 248 165.999s196.667 62 302 62s206 -20.667 302 -62s178.667 -96.666 248 -165.999s124.666 -152 165.999 -248s62 -196.667 62 -302s-20.667 -206 -62 -302s-96.666 -178.667 -165.999 -248s-152 -124.666 -248 -165.999s-196.667 -62 -302 -62z" />
    <glyph glyph-name="uni1F169" unicode="Z&#x20dd;&#x25cf;" 
d="M561 350h614v228h-252v9l241 321v183h-614v-229h249v-6l-238 -323v-183zM862 -56c-105.333 0 -206 20.667 -302 62s-178.667 96.666 -248 165.999s-124.666 152 -165.999 248s-62 196.667 -62 302s20.667 206 62 302s96.666 178.667 165.999 248s152 124.666 248 165.999
s196.667 62 302 62s206 -20.667 302 -62s178.667 -96.666 248 -165.999s124.666 -152 165.999 -248s62 -196.667 62 -302s-20.667 -206 -62 -302s-96.666 -178.667 -165.999 -248s-152 -124.666 -248 -165.999s-196.667 -62 -302 -62z" />
    <glyph glyph-name="uni1F170" unicode="A&#x20de;&#x25a0;" 
d="M930 652h-136l64 285h8zM749 380l19 97h189l19 -97h283l-216 741h-361l-217 -741h284zM371 1478h982c72.667 0 134.667 -25.333 186 -76s77 -111.667 77 -183v-994c0 -71.333 -25.667 -132.333 -77 -183s-113.333 -76 -186 -76h-982c-72.667 0 -134.667 25.333 -186 76
s-77 111.667 -77 183v994c0 71.333 25.667 132.333 77 183s113.333 76 186 76z" />
    <glyph glyph-name="uni1F171" unicode="B&#x20de;&#x25a0;" 
d="M534 350l437.001 -0.000976562c70 0 128.5 19.333 175.5 58s70.5 87.334 70.5 146.001c0 52 -15.333 94 -46 126s-74.334 52 -131.001 60v7c46 7.33301 82.5 25.333 109.5 54s40.5 64.334 40.5 107.001c0 57.333 -20.667 102.166 -62 134.499s-99.333 48.5 -174 48.5
h-420v-741zM791.001 922.999l67 0.000976562c23.333 0 41.833 -5.33301 55.5 -16s20.5 -25.334 20.5 -44.001c0 -40.667 -25.333 -61 -76 -61h-67v121zM790.001 665h71c26 0 46.333 -5.83301 61 -17.5s22 -27.5 22 -47.5c0 -22 -7.16699 -39 -21.5 -51
s-34.833 -18 -61.5 -18h-71v134zM371.001 1478h982c72.667 0 134.667 -25.333 186 -76s77 -111.667 77 -183v-994c0 -71.333 -25.667 -132.333 -77 -183s-113.333 -76 -186 -76h-982c-72.667 0 -134.667 25.333 -186 76s-77 111.667 -77 183v994
c0 71.333 25.667 132.333 77 183s113.333 76 186 76z" />
    <glyph glyph-name="uni1F172" unicode="C&#x20de;&#x25a0;" 
d="M961 653c0 -24.667 -9 -45.166 -27 -61.499s-39.667 -24.5 -65 -24.5c-30.667 0 -54.834 12.833 -72.501 38.5s-26.5 63.5 -26.5 113.5s8.83301 87.833 26.5 113.5s41.834 38.5 72.501 38.5c25.333 0 47 -8.16699 65 -24.5s27 -36.833 27 -61.5h256
c-1.33301 92.667 -34.5 168.334 -99.5 227.001s-149.167 88 -252.5 88c-108.667 0 -198.667 -33.833 -270 -101.5s-107 -160.834 -107 -279.501s35.667 -211.834 107 -279.501s161.333 -101.5 270 -101.5c103.333 0 187.5 29.5 252.5 88.5s98.167 134.5 99.5 226.5h-256z
M371 1478h982c72.667 0 134.667 -25.333 186 -76s77 -111.667 77 -183v-994c0 -71.333 -25.667 -132.333 -77 -183s-113.333 -76 -186 -76h-982c-72.667 0 -134.667 25.333 -186 76s-77 111.667 -77 183v994c0 71.333 25.667 132.333 77 183s113.333 76 186 76z" />
    <glyph glyph-name="uni1F173" unicode="D&#x20de;&#x25a0;" 
d="M537 1091v-741h364c114.667 0 201.667 31.333 261 94s89 154.667 89 276s-29.667 213.5 -89 276.5s-146.333 94.5 -261 94.5h-364zM804 890h44c43.333 0 73.833 -12.833 91.5 -38.5s26.5 -69.5 26.5 -131.5s-8.83301 -105.667 -26.5 -131s-48.167 -38 -91.5 -38h-44v339z
M371 1478h982c72.667 0 134.667 -25.333 186 -76s77 -111.667 77 -183v-994c0 -71.333 -25.667 -132.333 -77 -183s-113.333 -76 -186 -76h-982c-72.667 0 -134.667 25.333 -186 76s-77 111.667 -77 183v994c0 71.333 25.667 132.333 77 183s113.333 76 186 76z" />
    <glyph glyph-name="uni1F174" unicode="E&#x20de;&#x25a0;" 
d="M1160 543h-311v92h290v170h-290v92h311v194h-574v-741h574v193zM371 1478h982c72.667 0 134.667 -25.333 186 -76s77 -111.667 77 -183v-994c0 -71.333 -25.667 -132.333 -77 -183s-113.333 -76 -186 -76h-982c-72.667 0 -134.667 25.333 -186 76s-77 111.667 -77 183
v994c0 71.333 25.667 132.333 77 183s113.333 76 186 76z" />
    <glyph glyph-name="uni1F175" unicode="F&#x20de;&#x25a0;" 
d="M878 350v233h256v211h-256v89h286v208h-575v-741h289zM371 1478h982c72.667 0 134.667 -25.333 186 -76s77 -111.667 77 -183v-994c0 -71.333 -25.667 -132.333 -77 -183s-113.333 -76 -186 -76h-982c-72.667 0 -134.667 25.333 -186 76s-77 111.667 -77 183v994
c0 71.333 25.667 132.333 77 183s113.333 76 186 76z" />
    <glyph glyph-name="uni1F176" unicode="G&#x20de;&#x25a0;" 
d="M963 610c0 -22 -8.16699 -39.9971 -24.5 -53.9971s-39.5 -21 -69.5 -21c-29.333 0 -53.333 17.333 -72 52s-28 78.667 -28 132c0 52 9.16699 93.833 27.5 125.5s42.5 47.5 72.5 47.5c51.333 0 79 -22.667 83 -68h267c-10.667 83.333 -48.5 150.166 -113.5 200.499
s-145.167 75.5 -240.5 75.5c-113.333 0 -204.5 -34.833 -273.5 -104.5s-103.5 -161.834 -103.5 -276.501s34.5 -206.834 103.5 -276.501s160.167 -104.5 273.5 -104.5c105.333 0 191 29.333 257 88s99 132 99 220v129h-357v-161h99v-4zM371 1478h982
c72.667 0 134.667 -25.333 186 -76s77 -111.667 77 -183v-994c0 -71.333 -25.667 -132.333 -77 -183s-113.333 -76 -186 -76h-982c-72.667 0 -134.667 25.333 -186 76s-77 111.667 -77 183v994c0 71.333 25.667 132.333 77 183s113.333 76 186 76z" />
    <glyph glyph-name="uni1F177" unicode="H&#x20de;&#x25a0;" 
d="M1213 350v741h-264v-260h-173v260h-264v-741h264v247h173v-247h264zM371 1478h982c72.667 0 134.667 -25.333 186 -76s77 -111.667 77 -183v-994c0 -71.333 -25.667 -132.333 -77 -183s-113.333 -76 -186 -76h-982c-72.667 0 -134.667 25.333 -186 76
s-77 111.667 -77 183v994c0 71.333 25.667 132.333 77 183s113.333 76 186 76z" />
    <glyph glyph-name="uni1F178" unicode="I&#x20de;&#x25a0;" 
d="M1023 350v741h-321v-741h321zM371 1478h982c72.667 0 134.667 -25.333 186 -76s77 -111.667 77 -183v-994c0 -71.333 -25.667 -132.333 -77 -183s-113.333 -76 -186 -76h-982c-72.667 0 -134.667 25.333 -186 76s-77 111.667 -77 183v994c0 71.333 25.667 132.333 77 183
s113.333 76 186 76z" />
    <glyph glyph-name="uni1F179" unicode="J&#x20de;&#x25a0;" 
d="M502 656c0 -104 30.665 -186.166 91.998 -246.499s144.333 -90.5 249 -90.5c100.667 0 180.334 28.667 239.001 86s88 135 88 233v434h-295v-423c0 -45.333 -13 -68 -39 -68c-17.333 0 -29.666 5.66699 -36.999 17s-11 30.666 -11 57.999h-286zM370.998 1478h982
c72.667 0 134.667 -25.333 186 -76s77 -111.667 77 -183v-994c0 -71.333 -25.667 -132.333 -77 -183s-113.333 -76 -186 -76h-982c-72.667 0 -134.667 25.333 -186 76s-77 111.667 -77 183v994c0 71.333 25.667 132.333 77 183s113.333 76 186 76z" />
    <glyph glyph-name="uni1F17A" unicode="K&#x20de;&#x25a0;" 
d="M1238 1091h-307l-161 -270h-8v270h-254v-741h254v152l50 64l109 -216h318l-210 387zM371 1478h982c72.667 0 134.667 -25.333 186 -76s77 -111.667 77 -183v-994c0 -71.333 -25.667 -132.333 -77 -183s-113.333 -76 -186 -76h-982c-72.667 0 -134.667 25.333 -186 76
s-77 111.667 -77 183v994c0 71.333 25.667 132.333 77 183s113.333 76 186 76z" />
    <glyph glyph-name="uni1F17B" unicode="L&#x20de;&#x25a0;" 
d="M1173 611h-269v500h-300v-741h569v241zM371 1478h982c72.667 0 134.667 -25.333 186 -76s77 -111.667 77 -183v-994c0 -71.333 -25.667 -132.333 -77 -183s-113.333 -76 -186 -76h-982c-72.667 0 -134.667 25.333 -186 76s-77 111.667 -77 183v994
c0 71.333 25.667 132.333 77 183s113.333 76 186 76z" />
    <glyph glyph-name="uni1F17C" unicode="M&#x20de;&#x25a0;" 
d="M676 350v433h12l106 -374h133l111 374h12v-433h199v741h-265l-118 -409h-6l-118 409h-265v-741h199zM371 1478h982c72.667 0 134.667 -25.333 186 -76s77 -111.667 77 -183v-994c0 -71.333 -25.667 -132.333 -77 -183s-113.333 -76 -186 -76h-982
c-72.667 0 -134.667 25.333 -186 76s-77 111.667 -77 183v994c0 71.333 25.667 132.333 77 183s113.333 76 186 76z" />
    <glyph glyph-name="uni1F17D" unicode="N&#x20de;&#x25a0;" 
d="M764 350v329h8l238 -329h194v741h-243v-322h-8l-236 322h-196v-741h243zM371 1478h982c72.667 0 134.667 -25.333 186 -76s77 -111.667 77 -183v-994c0 -71.333 -25.667 -132.333 -77 -183s-113.333 -76 -186 -76h-982c-72.667 0 -134.667 25.333 -186 76
s-77 111.667 -77 183v994c0 71.333 25.667 132.333 77 183s113.333 76 186 76z" />
    <glyph glyph-name="uni1F17E" unicode="O&#x20de;&#x25a0;" 
d="M862 567c-27.333 0 -49.833 12.667 -67.5 38s-26.5 63.333 -26.5 114s8.83301 88.667 26.5 114s40.167 38 67.5 38s49.833 -12.667 67.5 -38s26.5 -63.333 26.5 -114s-8.83301 -88.667 -26.5 -114s-40.167 -38 -67.5 -38zM862 338c110.667 0 201.167 33.833 271.5 101.5
s105.5 160.834 105.5 279.501s-35.167 211.834 -105.5 279.501s-160.833 101.5 -271.5 101.5s-201.167 -33.833 -271.5 -101.5s-105.5 -160.834 -105.5 -279.501s35.167 -211.834 105.5 -279.501s160.833 -101.5 271.5 -101.5zM371 1478h982
c72.667 0 134.667 -25.333 186 -76s77 -111.667 77 -183v-994c0 -71.333 -25.667 -132.333 -77 -183s-113.333 -76 -186 -76h-982c-72.667 0 -134.667 25.333 -186 76s-77 111.667 -77 183v994c0 71.333 25.667 132.333 77 183s113.333 76 186 76z" />
    <glyph glyph-name="uni1F17F" unicode="P&#x20de;&#x25a0;" 
d="M943 1091h-373.001v-741h298v158h71c90.667 0 162.834 26 216.501 78s80.5 121.667 80.5 209c0 90.667 -26.5 162.667 -79.5 216s-124.167 80 -213.5 80zM966.999 795c0 -59.333 -26.333 -89 -79 -89h-52v180h52c25.333 0 44.833 -7.83301 58.5 -23.5
s20.5 -38.167 20.5 -67.5zM370.999 1478h982c72.667 0 134.667 -25.333 186 -76s77 -111.667 77 -183v-994c0 -71.333 -25.667 -132.333 -77 -183s-113.333 -76 -186 -76h-982c-72.667 0 -134.667 25.333 -186 76s-77 111.667 -77 183v994c0 71.333 25.667 132.333 77 183
s113.333 76 186 76z" />
    <glyph glyph-name="uni1F180" unicode="Q&#x20de;&#x25a0;" 
d="M1224 295l-94 141.002c72.667 69.333 109 163.666 109 282.999c0 118.667 -35.167 211.834 -105.5 279.501s-160.833 101.5 -271.5 101.5s-201.167 -33.833 -271.5 -101.5s-105.5 -160.834 -105.5 -279.501s35.167 -211.834 105.5 -279.501s160.833 -101.5 271.5 -101.5
c26.667 0 52.667 2 78 6l14 -49h270zM862 567.002c-27.333 0 -49.833 12.667 -67.5 38s-26.5 63.333 -26.5 114s8.83301 88.667 26.5 114s40.167 38 67.5 38s49.833 -12.667 67.5 -38s26.5 -63.333 26.5 -114c0 -24.667 -2 -46 -6 -64h-101l25 -87
c-2.66699 -0.666992 -6.66699 -1 -12 -1zM371 1478h982c72.667 0 134.667 -25.333 186 -76s77 -111.667 77 -183v-994c0 -71.333 -25.667 -132.333 -77 -183s-113.333 -76 -186 -76h-982c-72.667 0 -134.667 25.333 -186 76s-77 111.667 -77 183v994
c0 71.333 25.667 132.333 77 183s113.333 76 186 76z" />
    <glyph glyph-name="uni1F181" unicode="R&#x20de;&#x25a0;" 
d="M778 754v136.999h92c48.667 0 73 -22.667 73 -68c0 -21.333 -6.5 -38.166 -19.5 -50.499s-30.833 -18.5 -53.5 -18.5h-92zM896 1091l-366.001 -0.000976562v-741h259v231h43l111 -231h295l-162 283c46 16.667 81.5 42.834 106.5 78.501s37.5 78.5 37.5 128.5
c0 82 -27.667 144.333 -83 187s-135.666 64 -240.999 64zM370.999 1478h982c72.667 0 134.667 -25.333 186 -76s77 -111.667 77 -183v-994c0 -71.333 -25.667 -132.333 -77 -183s-113.333 -76 -186 -76h-982c-72.667 0 -134.667 25.333 -186 76s-77 111.667 -77 183v994
c0 71.333 25.667 132.333 77 183s113.333 76 186 76z" />
    <glyph glyph-name="uni1F182" unicode="S&#x20de;&#x25a0;" 
d="M521 578c4.66699 -74.667 36.6689 -132.665 96.002 -173.998s140.333 -62 243 -62c104 0 187.5 23.667 250.5 71s94.5 110.333 94.5 189c0 62.667 -18.5 112.667 -55.5 150s-91.5 60 -163.5 68l-82 10c-42 4.66699 -70.167 10.167 -84.5 16.5s-21.5 15.833 -21.5 28.5
c0 11.333 5.5 20.166 16.5 26.499s25.833 9.5 44.5 9.5c34.667 0 56 -12.333 64 -37h261c-8 70 -41.167 125.5 -99.5 166.5s-133.5 61.5 -225.5 61.5c-100.667 0 -181.167 -22.833 -241.5 -68.5s-90.5 -106.834 -90.5 -183.501c0 -62 20.167 -111.833 60.5 -149.5
s98.166 -61.5 173.499 -71.5l69 -8c45.333 -6 74.666 -11.667 87.999 -17s20 -14 20 -26s-6.5 -21.667 -19.5 -29s-30.5 -11 -52.5 -11c-20 0 -36.667 3.66699 -50 11s-21.333 17 -24 29h-271zM371.002 1478h982c72.667 0 134.667 -25.333 186 -76s77 -111.667 77 -183v-994
c0 -71.333 -25.667 -132.333 -77 -183s-113.333 -76 -186 -76h-982c-72.667 0 -134.667 25.333 -186 76s-77 111.667 -77 183v994c0 71.333 25.667 132.333 77 183s113.333 76 186 76z" />
    <glyph glyph-name="uni1F183" unicode="T&#x20de;&#x25a0;" 
d="M1011 325v506h193v235h-683v-235h192v-506h298zM371 1478h982c72.667 0 134.667 -25.333 186 -76s77 -111.667 77 -183v-994c0 -71.333 -25.667 -132.333 -77 -183s-113.333 -76 -186 -76h-982c-72.667 0 -134.667 25.333 -186 76s-77 111.667 -77 183v994
c0 71.333 25.667 132.333 77 183s113.333 76 186 76z" />
    <glyph glyph-name="uni1F184" unicode="U&#x20de;&#x25a0;" 
d="M862 545c-18.667 0 -34.001 5.83398 -46.001 17.501s-18 26.167 -18 43.5v461h-284v-507c0 -74 31.833 -133.5 95.5 -178.5s147.834 -67.5 252.501 -67.5s189 22.667 253 68s96 104.666 96 177.999v507h-284v-461c0 -18 -6 -32.667 -18 -44s-27.667 -17 -47 -17z
M370.999 1478h982c72.667 0 134.667 -25.333 186 -76s77 -111.667 77 -183v-994c0 -71.333 -25.667 -132.333 -77 -183s-113.333 -76 -186 -76h-982c-72.667 0 -134.667 25.333 -186 76s-77 111.667 -77 183v994c0 71.333 25.667 132.333 77 183s113.333 76 186 76z" />
    <glyph glyph-name="uni1F185" unicode="V&#x20de;&#x25a0;" 
d="M1063 316l188 740h-307l-78 -499h-8l-78 499h-307l188 -740h402zM371 1478h982c72.667 0 134.667 -25.333 186 -76s77 -111.667 77 -183v-994c0 -71.333 -25.667 -132.333 -77 -183s-113.333 -76 -186 -76h-982c-72.667 0 -134.667 25.333 -186 76s-77 111.667 -77 183
v994c0 71.333 25.667 132.333 77 183s113.333 76 186 76z" />
    <glyph glyph-name="uni1F186" unicode="W&#x20de;&#x25a0;" 
d="M861 708h2l73 -383h239l138 741h-235l-48 -441h-7l-73 441h-175l-74 -441h-6l-48 441h-235l138 -741h239zM371 1478h982c72.667 0 134.667 -25.333 186 -76s77 -111.667 77 -183v-994c0 -71.333 -25.667 -132.333 -77 -183s-113.333 -76 -186 -76h-982
c-72.667 0 -134.667 25.333 -186 76s-77 111.667 -77 183v994c0 71.333 25.667 132.333 77 183s113.333 76 186 76z" />
    <glyph glyph-name="uni1F187" unicode="X&#x20de;&#x25a0;" 
d="M1241 1091h-291l-86 -214h-9l-83 214h-309l222 -370l-222 -371h309l83 216h9l86 -216h291l-212 371zM371 1478h982c72.667 0 134.667 -25.333 186 -76s77 -111.667 77 -183v-994c0 -71.333 -25.667 -132.333 -77 -183s-113.333 -76 -186 -76h-982
c-72.667 0 -134.667 25.333 -186 76s-77 111.667 -77 183v994c0 71.333 25.667 132.333 77 183s113.333 76 186 76z" />
    <glyph glyph-name="uni1F188" unicode="Y&#x20de;&#x25a0;" 
d="M706 325h313v198l249 543h-321l-83 -270h-4l-82 270h-321l249 -543v-198zM371 1478h982c72.667 0 134.667 -25.333 186 -76s77 -111.667 77 -183v-994c0 -71.333 -25.667 -132.333 -77 -183s-113.333 -76 -186 -76h-982c-72.667 0 -134.667 25.333 -186 76
s-77 111.667 -77 183v994c0 71.333 25.667 132.333 77 183s113.333 76 186 76z" />
    <glyph glyph-name="uni1F189" unicode="Z&#x20de;&#x25a0;" 
d="M561 350h614v228h-252v9l241 321v183h-614v-229h249v-6l-238 -323v-183zM371 1478h982c72.667 0 134.667 -25.333 186 -76s77 -111.667 77 -183v-994c0 -71.333 -25.667 -132.333 -77 -183s-113.333 -76 -186 -76h-982c-72.667 0 -134.667 25.333 -186 76
s-77 111.667 -77 183v994c0 71.333 25.667 132.333 77 183s113.333 76 186 76z" />
    <glyph glyph-name="plus.uc.whitecircle" unicode="&#x2b;&#x20dd;" 
d="M981 607v-203h-238v203h-199v228h199v205h238v-205h199v-228h-199zM862 164c75.333 0 146.833 14.667 214.5 44s125.667 69 174 119s86.666 109.167 114.999 177.5s42.5 140.166 42.5 215.499s-14.167 147.166 -42.5 215.499s-66.666 127.5 -114.999 177.5
s-106.333 89.667 -174 119s-139.167 44 -214.5 44s-146.833 -14.667 -214.5 -44s-125.667 -69 -174 -119s-86.666 -109.167 -114.999 -177.5s-42.5 -140.166 -42.5 -215.499s14.167 -147.166 42.5 -215.499s66.666 -127.5 114.999 -177.5s106.333 -89.667 174 -119
s139.167 -44 214.5 -44zM862 -59c-108 0 -210 20.167 -306 60.5s-178.5 95 -247.5 164s-123.667 151.667 -164 248s-60.5 198.5 -60.5 306.5s20.167 210.167 60.5 306.5s95 179 164 248s151.5 123.667 247.5 164s198 60.5 306 60.5s210 -20.167 306 -60.5
s178.5 -95 247.5 -164s123.667 -151.667 164 -248s60.5 -198.5 60.5 -306.5s-20.167 -210.167 -60.5 -306.5s-95 -179 -164 -248s-151.5 -123.667 -247.5 -164s-198 -60.5 -306 -60.5z" />
    <glyph glyph-name="minus.uc.whitecircle" unicode="&#x2212;&#x20dd;" 
d="M1137 603h-550v238h550v-238zM862 164c75.333 0 146.833 14.667 214.5 44s125.667 69 174 119s86.666 109.167 114.999 177.5s42.5 140.166 42.5 215.499s-14.167 147.166 -42.5 215.499s-66.666 127.5 -114.999 177.5s-106.333 89.667 -174 119s-139.167 44 -214.5 44
s-146.833 -14.667 -214.5 -44s-125.667 -69 -174 -119s-86.666 -109.167 -114.999 -177.5s-42.5 -140.166 -42.5 -215.499s14.167 -147.166 42.5 -215.499s66.666 -127.5 114.999 -177.5s106.333 -89.667 174 -119s139.167 -44 214.5 -44zM862 -59
c-108 0 -210 20.167 -306 60.5s-178.5 95 -247.5 164s-123.667 151.667 -164 248s-60.5 198.5 -60.5 306.5s20.167 210.167 60.5 306.5s95 179 164 248s151.5 123.667 247.5 164s198 60.5 306 60.5s210 -20.167 306 -60.5s178.5 -95 247.5 -164s123.667 -151.667 164 -248
s60.5 -198.5 60.5 -306.5s-20.167 -210.167 -60.5 -306.5s-95 -179 -164 -248s-151.5 -123.667 -247.5 -164s-198 -60.5 -306 -60.5z" />
    <glyph glyph-name="multiply.uc.whitecircle" unicode="&#xd7;&#x20dd;" 
d="M861 891l155 155l170 -170l-155 -155l155 -155l-170 -166l-155 154l-156 -154l-166 166l155 155l-156 157l167 168zM862 164c75.333 0 146.833 14.667 214.5 44s125.667 69 174 119s86.666 109.167 114.999 177.5s42.5 140.166 42.5 215.499
s-14.167 147.166 -42.5 215.499s-66.666 127.5 -114.999 177.5s-106.333 89.667 -174 119s-139.167 44 -214.5 44s-146.833 -14.667 -214.5 -44s-125.667 -69 -174 -119s-86.666 -109.167 -114.999 -177.5s-42.5 -140.166 -42.5 -215.499s14.167 -147.166 42.5 -215.499
s66.666 -127.5 114.999 -177.5s106.333 -89.667 174 -119s139.167 -44 214.5 -44zM862 -59c-108 0 -210 20.167 -306 60.5s-178.5 95 -247.5 164s-123.667 151.667 -164 248s-60.5 198.5 -60.5 306.5s20.167 210.167 60.5 306.5s95 179 164 248s151.5 123.667 247.5 164
s198 60.5 306 60.5s210 -20.167 306 -60.5s178.5 -95 247.5 -164s123.667 -151.667 164 -248s60.5 -198.5 60.5 -306.5s-20.167 -210.167 -60.5 -306.5s-95 -179 -164 -248s-151.5 -123.667 -247.5 -164s-198 -60.5 -306 -60.5z" />
    <glyph glyph-name="divide.uc.whitecircle" unicode="&#xf7;&#x20dd;" 
d="M1137 634h-550v176h550v-176zM746 962c0 28.667 11 52.5 33 71.5s49.667 28.5 83 28.5s61 -9.5 83 -28.5s33 -42.833 33 -71.5s-11 -52.5 -33 -71.5s-49.667 -28.5 -83 -28.5s-61 9.5 -83 28.5s-33 42.833 -33 71.5zM746 482c0 28.667 11 52.5 33 71.5
s49.667 28.5 83 28.5s61 -9.5 83 -28.5s33 -42.833 33 -71.5s-11 -52.5 -33 -71.5s-49.667 -28.5 -83 -28.5s-61 9.5 -83 28.5s-33 42.833 -33 71.5zM862 164c75.333 0 146.833 14.667 214.5 44s125.667 69 174 119s86.666 109.167 114.999 177.5s42.5 140.166 42.5 215.499
s-14.167 147.166 -42.5 215.499s-66.666 127.5 -114.999 177.5s-106.333 89.667 -174 119s-139.167 44 -214.5 44s-146.833 -14.667 -214.5 -44s-125.667 -69 -174 -119s-86.666 -109.167 -114.999 -177.5s-42.5 -140.166 -42.5 -215.499s14.167 -147.166 42.5 -215.499
s66.666 -127.5 114.999 -177.5s106.333 -89.667 174 -119s139.167 -44 214.5 -44zM862 -59c-108 0 -210 20.167 -306 60.5s-178.5 95 -247.5 164s-123.667 151.667 -164 248s-60.5 198.5 -60.5 306.5s20.167 210.167 60.5 306.5s95 179 164 248s151.5 123.667 247.5 164
s198 60.5 306 60.5s210 -20.167 306 -60.5s178.5 -95 247.5 -164s123.667 -151.667 164 -248s60.5 -198.5 60.5 -306.5s-20.167 -210.167 -60.5 -306.5s-95 -179 -164 -248s-151.5 -123.667 -247.5 -164s-198 -60.5 -306 -60.5z" />
    <glyph glyph-name="equal.uc.whitecircle" unicode="&#x3d;&#x20dd;" 
d="M1166 471h-607v205h607v-205zM1166 765h-607v204h607v-204zM862 164c75.333 0 146.833 14.667 214.5 44s125.667 69 174 119s86.666 109.167 114.999 177.5s42.5 140.166 42.5 215.499s-14.167 147.166 -42.5 215.499s-66.666 127.5 -114.999 177.5
s-106.333 89.667 -174 119s-139.167 44 -214.5 44s-146.833 -14.667 -214.5 -44s-125.667 -69 -174 -119s-86.666 -109.167 -114.999 -177.5s-42.5 -140.166 -42.5 -215.499s14.167 -147.166 42.5 -215.499s66.666 -127.5 114.999 -177.5s106.333 -89.667 174 -119
s139.167 -44 214.5 -44zM862 -59c-108 0 -210 20.167 -306 60.5s-178.5 95 -247.5 164s-123.667 151.667 -164 248s-60.5 198.5 -60.5 306.5s20.167 210.167 60.5 306.5s95 179 164 248s151.5 123.667 247.5 164s198 60.5 306 60.5s210 -20.167 306 -60.5
s178.5 -95 247.5 -164s123.667 -151.667 164 -248s60.5 -198.5 60.5 -306.5s-20.167 -210.167 -60.5 -306.5s-95 -179 -164 -248s-151.5 -123.667 -247.5 -164s-198 -60.5 -306 -60.5z" />
    <glyph glyph-name="greater.uc.whitecircle" unicode="&#x3e;&#x20dd;" 
d="M1170 790v-135l-561 -257v243l232 79v10l-232 65v252zM862 164c75.333 0 146.833 14.667 214.5 44s125.667 69 174 119s86.666 109.167 114.999 177.5s42.5 140.166 42.5 215.499s-14.167 147.166 -42.5 215.499s-66.666 127.5 -114.999 177.5s-106.333 89.667 -174 119
s-139.167 44 -214.5 44s-146.833 -14.667 -214.5 -44s-125.667 -69 -174 -119s-86.666 -109.167 -114.999 -177.5s-42.5 -140.166 -42.5 -215.499s14.167 -147.166 42.5 -215.499s66.666 -127.5 114.999 -177.5s106.333 -89.667 174 -119s139.167 -44 214.5 -44zM862 -59
c-108 0 -210 20.167 -306 60.5s-178.5 95 -247.5 164s-123.667 151.667 -164 248s-60.5 198.5 -60.5 306.5s20.167 210.167 60.5 306.5s95 179 164 248s151.5 123.667 247.5 164s198 60.5 306 60.5s210 -20.167 306 -60.5s178.5 -95 247.5 -164s123.667 -151.667 164 -248
s60.5 -198.5 60.5 -306.5s-20.167 -210.167 -60.5 -306.5s-95 -179 -164 -248s-151.5 -123.667 -247.5 -164s-198 -60.5 -306 -60.5z" />
    <glyph glyph-name="less.uc.whitecircle" unicode="&#x3c;&#x20dd;" 
d="M554 655v135l561 257v-252l-232 -65v-10l232 -79v-243zM862 164c75.333 0 146.833 14.667 214.5 44s125.667 69 174 119s86.666 109.167 114.999 177.5s42.5 140.166 42.5 215.499s-14.167 147.166 -42.5 215.499s-66.666 127.5 -114.999 177.5s-106.333 89.667 -174 119
s-139.167 44 -214.5 44s-146.833 -14.667 -214.5 -44s-125.667 -69 -174 -119s-86.666 -109.167 -114.999 -177.5s-42.5 -140.166 -42.5 -215.499s14.167 -147.166 42.5 -215.499s66.666 -127.5 114.999 -177.5s106.333 -89.667 174 -119s139.167 -44 214.5 -44zM862 -59
c-108 0 -210 20.167 -306 60.5s-178.5 95 -247.5 164s-123.667 151.667 -164 248s-60.5 198.5 -60.5 306.5s20.167 210.167 60.5 306.5s95 179 164 248s151.5 123.667 247.5 164s198 60.5 306 60.5s210 -20.167 306 -60.5s178.5 -95 247.5 -164s123.667 -151.667 164 -248
s60.5 -198.5 60.5 -306.5s-20.167 -210.167 -60.5 -306.5s-95 -179 -164 -248s-151.5 -123.667 -247.5 -164s-198 -60.5 -306 -60.5z" />
    <glyph glyph-name="numbersign.whitecircle" unicode="&#x30;&#x20dd;" 
d="M1163 756h-87l-9 -56h91l-33 -169h-93l-31 -154h-179l28 154h-54l-30 -154h-180l31 154h-88l33 169h88l11 56h-93l32 170h91l27 143h181l-29 -143h57l25 143h181l-26 -143h88zM826 773l-19 -101h93l17 101h-91zM862 164c75.333 0 146.833 14.667 214.5 44
s125.667 69 174 119s86.666 109.167 114.999 177.5s42.5 140.166 42.5 215.499s-14.167 147.166 -42.5 215.499s-66.666 127.5 -114.999 177.5s-106.333 89.667 -174 119s-139.167 44 -214.5 44s-146.833 -14.667 -214.5 -44s-125.667 -69 -174 -119
s-86.666 -109.167 -114.999 -177.5s-42.5 -140.166 -42.5 -215.499s14.167 -147.166 42.5 -215.499s66.666 -127.5 114.999 -177.5s106.333 -89.667 174 -119s139.167 -44 214.5 -44zM862 -59c-108 0 -210 20.167 -306 60.5s-178.5 95 -247.5 164s-123.667 151.667 -164 248
s-60.5 198.5 -60.5 306.5s20.167 210.167 60.5 306.5s95 179 164 248s151.5 123.667 247.5 164s198 60.5 306 60.5s210 -20.167 306 -60.5s178.5 -95 247.5 -164s123.667 -151.667 164 -248s60.5 -198.5 60.5 -306.5s-20.167 -210.167 -60.5 -306.5s-95 -179 -164 -248
s-151.5 -123.667 -247.5 -164s-198 -60.5 -306 -60.5z" />
    <glyph glyph-name="uni25BC.whitecircle" unicode="&#x25bc;&#x20dd;" 
d="M1204 948l-342 -593l-341 593h683zM862 164c75.333 0 146.833 14.667 214.5 44s125.667 69 174 119s86.666 109.167 114.999 177.5s42.5 140.166 42.5 215.499s-14.167 147.166 -42.5 215.499s-66.666 127.5 -114.999 177.5s-106.333 89.667 -174 119
s-139.167 44 -214.5 44s-146.833 -14.667 -214.5 -44s-125.667 -69 -174 -119s-86.666 -109.167 -114.999 -177.5s-42.5 -140.166 -42.5 -215.499s14.167 -147.166 42.5 -215.499s66.666 -127.5 114.999 -177.5s106.333 -89.667 174 -119s139.167 -44 214.5 -44zM862 -59
c-108 0 -210 20.167 -306 60.5s-178.5 95 -247.5 164s-123.667 151.667 -164 248s-60.5 198.5 -60.5 306.5s20.167 210.167 60.5 306.5s95 179 164 248s151.5 123.667 247.5 164s198 60.5 306 60.5s210 -20.167 306 -60.5s178.5 -95 247.5 -164s123.667 -151.667 164 -248
s60.5 -198.5 60.5 -306.5s-20.167 -210.167 -60.5 -306.5s-95 -179 -164 -248s-151.5 -123.667 -247.5 -164s-198 -60.5 -306 -60.5z" />
    <glyph glyph-name="uni25B2.whitecircle" unicode="&#x25b2;&#x20dd;" 
d="M1204 496h-683l341 593zM862 164c75.333 0 146.833 14.667 214.5 44s125.667 69 174 119s86.666 109.167 114.999 177.5s42.5 140.166 42.5 215.499s-14.167 147.166 -42.5 215.499s-66.666 127.5 -114.999 177.5s-106.333 89.667 -174 119s-139.167 44 -214.5 44
s-146.833 -14.667 -214.5 -44s-125.667 -69 -174 -119s-86.666 -109.167 -114.999 -177.5s-42.5 -140.166 -42.5 -215.499s14.167 -147.166 42.5 -215.499s66.666 -127.5 114.999 -177.5s106.333 -89.667 174 -119s139.167 -44 214.5 -44zM862 -59
c-108 0 -210 20.167 -306 60.5s-178.5 95 -247.5 164s-123.667 151.667 -164 248s-60.5 198.5 -60.5 306.5s20.167 210.167 60.5 306.5s95 179 164 248s151.5 123.667 247.5 164s198 60.5 306 60.5s210 -20.167 306 -60.5s178.5 -95 247.5 -164s123.667 -151.667 164 -248
s60.5 -198.5 60.5 -306.5s-20.167 -210.167 -60.5 -306.5s-95 -179 -164 -248s-151.5 -123.667 -247.5 -164s-198 -60.5 -306 -60.5z" />
    <glyph glyph-name="uni25C0.whitecircle" unicode="&#x25c0;&#x20dd;" 
d="M1083 385l-593 342l593 341v-683zM862 164c75.333 0 146.833 14.667 214.5 44s125.667 69 174 119s86.666 109.167 114.999 177.5s42.5 140.166 42.5 215.499s-14.167 147.166 -42.5 215.499s-66.666 127.5 -114.999 177.5s-106.333 89.667 -174 119
s-139.167 44 -214.5 44s-146.833 -14.667 -214.5 -44s-125.667 -69 -174 -119s-86.666 -109.167 -114.999 -177.5s-42.5 -140.166 -42.5 -215.499s14.167 -147.166 42.5 -215.499s66.666 -127.5 114.999 -177.5s106.333 -89.667 174 -119s139.167 -44 214.5 -44zM862 -59
c-108 0 -210 20.167 -306 60.5s-178.5 95 -247.5 164s-123.667 151.667 -164 248s-60.5 198.5 -60.5 306.5s20.167 210.167 60.5 306.5s95 179 164 248s151.5 123.667 247.5 164s198 60.5 306 60.5s210 -20.167 306 -60.5s178.5 -95 247.5 -164s123.667 -151.667 164 -248
s60.5 -198.5 60.5 -306.5s-20.167 -210.167 -60.5 -306.5s-95 -179 -164 -248s-151.5 -123.667 -247.5 -164s-198 -60.5 -306 -60.5z" />
    <glyph glyph-name="uni25B6.whitecircle" unicode="&#x25b6;&#x20dd;" 
d="M641 385v683l593 -341zM862 164c75.333 0 146.833 14.667 214.5 44s125.667 69 174 119s86.666 109.167 114.999 177.5s42.5 140.166 42.5 215.499s-14.167 147.166 -42.5 215.499s-66.666 127.5 -114.999 177.5s-106.333 89.667 -174 119s-139.167 44 -214.5 44
s-146.833 -14.667 -214.5 -44s-125.667 -69 -174 -119s-86.666 -109.167 -114.999 -177.5s-42.5 -140.166 -42.5 -215.499s14.167 -147.166 42.5 -215.499s66.666 -127.5 114.999 -177.5s106.333 -89.667 174 -119s139.167 -44 214.5 -44zM862 -59
c-108 0 -210 20.167 -306 60.5s-178.5 95 -247.5 164s-123.667 151.667 -164 248s-60.5 198.5 -60.5 306.5s20.167 210.167 60.5 306.5s95 179 164 248s151.5 123.667 247.5 164s198 60.5 306 60.5s210 -20.167 306 -60.5s178.5 -95 247.5 -164s123.667 -151.667 164 -248
s60.5 -198.5 60.5 -306.5s-20.167 -210.167 -60.5 -306.5s-95 -179 -164 -248s-151.5 -123.667 -247.5 -164s-198 -60.5 -306 -60.5z" />
    <glyph glyph-name="question.whitecircle" unicode="&#x3f;&#x20dd;" 
d="M718 467c0 32.667 12.167 58 36.5 76s59.166 27 104.499 27c43.333 0 77.333 -9 102 -27s37 -43.333 37 -76s-12 -58 -36 -76s-58.333 -27 -103 -27c-45.333 0 -80.166 9 -104.499 27s-36.5 43.333 -36.5 76zM737 604c-2.66699 8.66699 -4 18.668 -4 30.001
c0 60.667 26 106.667 78 138c30.667 18.667 52.167 34 64.5 46s18.5 23.333 18.5 34c0 10 -3 18.167 -9 24.5s-14 9.5 -24 9.5c-8 0 -15.5 -3.83301 -22.5 -11.5s-11.167 -16.834 -12.5 -27.501h-231c0 74.667 25 131.5 75 170.5s122.667 58.5 218 58.5
c81.333 0 146.333 -19.5 195 -58.5s73 -91.167 73 -156.5c0 -37.333 -7.66699 -69 -23 -95s-40.333 -49.333 -75 -70c-44 -26.667 -71.333 -45.167 -82 -55.5s-16 -22.5 -16 -36.5h-223zM862 164.001c75.333 0 146.833 14.667 214.5 44s125.667 69 174 119
s86.666 109.167 114.999 177.5s42.5 140.166 42.5 215.499s-14.167 147.166 -42.5 215.499s-66.666 127.5 -114.999 177.5s-106.333 89.667 -174 119s-139.167 44 -214.5 44s-146.833 -14.667 -214.5 -44s-125.667 -69 -174 -119s-86.666 -109.167 -114.999 -177.5
s-42.5 -140.166 -42.5 -215.499s14.167 -147.166 42.5 -215.499s66.666 -127.5 114.999 -177.5s106.333 -89.667 174 -119s139.167 -44 214.5 -44zM862 -58.999c-108 0 -210 20.167 -306 60.5s-178.5 95 -247.5 164s-123.667 151.667 -164 248s-60.5 198.5 -60.5 306.5
s20.167 210.167 60.5 306.5s95 179 164 248s151.5 123.667 247.5 164s198 60.5 306 60.5s210 -20.167 306 -60.5s178.5 -95 247.5 -164s123.667 -151.667 164 -248s60.5 -198.5 60.5 -306.5s-20.167 -210.167 -60.5 -306.5s-95 -179 -164 -248s-151.5 -123.667 -247.5 -164
s-198 -60.5 -306 -60.5z" />
    <glyph glyph-name="exclam.whitecircle" unicode="&#x21;&#x20dd;" 
d="M729 467c0 32.667 12.333 58 37 76s59.334 27 104.001 27c44 0 78.167 -9 102.5 -27s36.5 -43.333 36.5 -76s-12 -58 -36 -76s-58.333 -27 -103 -27s-79.334 9 -104.001 27s-37 43.333 -37 76zM727 1069h285l-31 -459h-225zM862 164c75.333 0 146.833 14.667 214.5 44
s125.667 69 174 119s86.666 109.167 114.999 177.5s42.5 140.166 42.5 215.499s-14.167 147.166 -42.5 215.499s-66.666 127.5 -114.999 177.5s-106.333 89.667 -174 119s-139.167 44 -214.5 44s-146.833 -14.667 -214.5 -44s-125.667 -69 -174 -119
s-86.666 -109.167 -114.999 -177.5s-42.5 -140.166 -42.5 -215.499s14.167 -147.166 42.5 -215.499s66.666 -127.5 114.999 -177.5s106.333 -89.667 174 -119s139.167 -44 214.5 -44zM862 -59c-108 0 -210 20.167 -306 60.5s-178.5 95 -247.5 164s-123.667 151.667 -164 248
s-60.5 198.5 -60.5 306.5s20.167 210.167 60.5 306.5s95 179 164 248s151.5 123.667 247.5 164s198 60.5 306 60.5s210 -20.167 306 -60.5s178.5 -95 247.5 -164s123.667 -151.667 164 -248s60.5 -198.5 60.5 -306.5s-20.167 -210.167 -60.5 -306.5s-95 -179 -164 -248
s-151.5 -123.667 -247.5 -164s-198 -60.5 -306 -60.5z" />
    <glyph glyph-name="uni2717.whitecircle" unicode="&#x2717;&#x20dd;" 
d="M865 879l193 192l156 -156l-192 -192l192 -192l-156 -157l-193 192l-194 -193l-155 155l194 195l-192 192l155 156zM862 164c75.333 0 146.833 14.667 214.5 44s125.667 69 174 119s86.666 109.167 114.999 177.5s42.5 140.166 42.5 215.499
s-14.167 147.166 -42.5 215.499s-66.666 127.5 -114.999 177.5s-106.333 89.667 -174 119s-139.167 44 -214.5 44s-146.833 -14.667 -214.5 -44s-125.667 -69 -174 -119s-86.666 -109.167 -114.999 -177.5s-42.5 -140.166 -42.5 -215.499s14.167 -147.166 42.5 -215.499
s66.666 -127.5 114.999 -177.5s106.333 -89.667 174 -119s139.167 -44 214.5 -44zM862 -59c-108 0 -210 20.167 -306 60.5s-178.5 95 -247.5 164s-123.667 151.667 -164 248s-60.5 198.5 -60.5 306.5s20.167 210.167 60.5 306.5s95 179 164 248s151.5 123.667 247.5 164
s198 60.5 306 60.5s210 -20.167 306 -60.5s178.5 -95 247.5 -164s123.667 -151.667 164 -248s60.5 -198.5 60.5 -306.5s-20.167 -210.167 -60.5 -306.5s-95 -179 -164 -248s-151.5 -123.667 -247.5 -164s-198 -60.5 -306 -60.5z" />
    <glyph glyph-name="uni2713.whitecircle" unicode="&#x2713;&#x20dd;" 
d="M1294 871l-539 -522l-334 327l161 158l178 -177l379 379zM862 164c75.333 0 146.833 14.667 214.5 44s125.667 69 174 119s86.666 109.167 114.999 177.5s42.5 140.166 42.5 215.499s-14.167 147.166 -42.5 215.499s-66.666 127.5 -114.999 177.5
s-106.333 89.667 -174 119s-139.167 44 -214.5 44s-146.833 -14.667 -214.5 -44s-125.667 -69 -174 -119s-86.666 -109.167 -114.999 -177.5s-42.5 -140.166 -42.5 -215.499s14.167 -147.166 42.5 -215.499s66.666 -127.5 114.999 -177.5s106.333 -89.667 174 -119
s139.167 -44 214.5 -44zM862 -59c-108 0 -210 20.167 -306 60.5s-178.5 95 -247.5 164s-123.667 151.667 -164 248s-60.5 198.5 -60.5 306.5s20.167 210.167 60.5 306.5s95 179 164 248s151.5 123.667 247.5 164s198 60.5 306 60.5s210 -20.167 306 -60.5
s178.5 -95 247.5 -164s123.667 -151.667 164 -248s60.5 -198.5 60.5 -306.5s-20.167 -210.167 -60.5 -306.5s-95 -179 -164 -248s-151.5 -123.667 -247.5 -164s-198 -60.5 -306 -60.5z" />
    <glyph glyph-name="zero.whitesquare" unicode="&#x30;&#x20de;" 
d="M862 565c40.667 0 61 51.667 61 155s-20.333 155 -61 155s-61 -51.667 -61 -155s20.333 -155 61 -155zM858 365c-96 0 -172 31.667 -228 95s-84 150 -84 260s28 196.667 84 260s132 95 228 95c96.667 0 174.167 -31.833 232.5 -95.5s87.5 -150.167 87.5 -259.5
s-29.167 -195.833 -87.5 -259.5s-135.833 -95.5 -232.5 -95.5zM371 1478h982c72.667 0 134.667 -25.333 186 -76s77 -111.667 77 -183v-994c0 -71.333 -25.667 -132.333 -77 -183s-113.333 -76 -186 -76h-982c-72.667 0 -134.667 25.333 -186 76s-77 111.667 -77 183v994
c0 71.333 25.667 132.333 77 183s113.333 76 186 76zM1385 1147c0 33.333 -11.8301 61.333 -35.4971 84s-52.834 34 -87.501 34h-800c-34.667 0 -63.834 -11.333 -87.501 -34s-35.5 -50.667 -35.5 -84v-850c0 -32.667 12.167 -60.5 36.5 -83.5s53.166 -34.5 86.499 -34.5
h800c34 0 63 11.5 87 34.5s36 50.833 36 83.5v850z" />
    <glyph glyph-name="one.whitesquare" unicode="&#x31;&#x20de;" 
d="M1033 377h-272v464h-8l-154 -103v226l162 105h272v-692zM371 1478h982c72.667 0 134.667 -25.333 186 -76s77 -111.667 77 -183v-994c0 -71.333 -25.667 -132.333 -77 -183s-113.333 -76 -186 -76h-982c-72.667 0 -134.667 25.333 -186 76s-77 111.667 -77 183v994
c0 71.333 25.667 132.333 77 183s113.333 76 186 76zM1385 1147c0 33.333 -11.8301 61.333 -35.4971 84s-52.834 34 -87.501 34h-800c-34.667 0 -63.834 -11.333 -87.501 -34s-35.5 -50.667 -35.5 -84v-850c0 -32.667 12.167 -60.5 36.5 -83.5s53.166 -34.5 86.499 -34.5
h800c34 0 63 11.5 87 34.5s36 50.833 36 83.5v850z" />
    <glyph glyph-name="two.whitesquare" unicode="&#x32;&#x20de;" 
d="M811 818h-248c0 79.333 27.333 142.5 82 189.5s127.667 70.5 219 70.5c84.667 0 153.5 -20.167 206.5 -60.5s79.5 -92.5 79.5 -156.5c0 -34 -10.5 -67.333 -31.5 -100s-56.167 -69.667 -105.5 -111l-69 -58v-8h215v-208h-577v168l231 198
c28 25.333 46.833 44.5 56.5 57.5s14.5 25.833 14.5 38.5c0 22 -11.333 33 -34 33c-12.667 0 -22.5 -4.66699 -29.5 -14s-10.167 -22.333 -9.5 -39zM371 1478h982c72.667 0 134.667 -25.333 186 -76s77 -111.667 77 -183v-994c0 -71.333 -25.667 -132.333 -77 -183
s-113.333 -76 -186 -76h-982c-72.667 0 -134.667 25.333 -186 76s-77 111.667 -77 183v994c0 71.333 25.667 132.333 77 183s113.333 76 186 76zM1385 1147c0 33.333 -11.8301 61.333 -35.4971 84s-52.834 34 -87.501 34h-800c-34.667 0 -63.834 -11.333 -87.501 -34
s-35.5 -50.667 -35.5 -84v-850c0 -32.667 12.167 -60.5 36.5 -83.5s53.166 -34.5 86.499 -34.5h800c34 0 63 11.5 87 34.5s36 50.833 36 83.5v850z" />
    <glyph glyph-name="three.whitesquare" unicode="&#x33;&#x20de;" 
d="M792 628l0.000976562 190.999h62c15.333 0 27.666 3.66699 36.999 11s14 17.333 14 30c0 22 -17 33 -51 33c-18.667 0 -33.667 -5.83301 -45 -17.5s-17 -27.167 -17 -46.5h-245c7.33301 166 111 249 311 249c92 -0.666992 164.833 -18 218.5 -52s80.5 -80.333 80.5 -139
c0 -32.667 -12.667 -62.667 -38 -90s-55.333 -43.333 -90 -48v-13c41.333 -3.33301 75.5 -20.166 102.5 -50.499s40.5 -66.833 40.5 -109.5c0 -64.667 -28 -115.667 -84 -153s-132.667 -56 -230 -56c-94.667 0 -170.167 22.667 -226.5 68s-84.5 106 -84.5 182h245
c0 -18 5.5 -32.167 16.5 -42.5s26.167 -15.5 45.5 -15.5c38.667 0 58 11.333 58 34c0 23.333 -19.333 35 -58 35h-62zM371.001 1478h982c72.667 0 134.667 -25.333 186 -76s77 -111.667 77 -183v-994c0 -71.333 -25.667 -132.333 -77 -183s-113.333 -76 -186 -76h-982
c-72.667 0 -134.667 25.333 -186 76s-77 111.667 -77 183v994c0 71.333 25.667 132.333 77 183s113.333 76 186 76zM1385 1147c0 33.333 -11.8301 61.333 -35.4971 84s-52.834 34 -87.501 34h-800c-34.667 0 -63.834 -11.333 -87.501 -34s-35.5 -50.667 -35.5 -84v-850
c0 -32.667 12.167 -60.5 36.5 -83.5s53.166 -34.5 86.499 -34.5h800c34 0 63 11.5 87 34.5s36 50.833 36 83.5v850z" />
    <glyph glyph-name="four.whitesquare" unicode="&#x34;&#x20de;" 
d="M734 1069h353v-404h99v-194h-99v-94h-212v94h-340v198c58 130 124.333 263.333 199 400zM758 665h117v254h-8c-48.667 -97.333 -85 -182 -109 -254zM371 1478h982c72.667 0 134.667 -25.333 186 -76s77 -111.667 77 -183v-994c0 -71.333 -25.667 -132.333 -77 -183
s-113.333 -76 -186 -76h-982c-72.667 0 -134.667 25.333 -186 76s-77 111.667 -77 183v994c0 71.333 25.667 132.333 77 183s113.333 76 186 76zM1385 1147c0 33.333 -11.8301 61.333 -35.4971 84s-52.834 34 -87.501 34h-800c-34.667 0 -63.834 -11.333 -87.501 -34
s-35.5 -50.667 -35.5 -84v-850c0 -32.667 12.167 -60.5 36.5 -83.5s53.166 -34.5 86.499 -34.5h800c34 0 63 11.5 87 34.5s36 50.833 36 83.5v850z" />
    <glyph glyph-name="five.whitesquare" unicode="&#x35;&#x20de;" 
d="M572 615l248 0.000976562c2.66699 -12.667 9.16699 -23.167 19.5 -31.5s22.166 -12.5 35.499 -12.5c16 0 29.5 5.66699 40.5 17s16.5 25 16.5 41c0 15.333 -5.5 28.666 -16.5 39.999s-24.5 17 -40.5 17c-23.333 0 -40 -10 -50 -30h-241l23 423h528v-183h-332l-7 -108h13
c10.667 20.667 30 37.334 58 50.001s59.667 19 95 19c68.667 0 123.334 -19.833 164.001 -59.5s61 -93.167 61 -160.5c0 -80.667 -27.667 -144.334 -83 -191.001s-131 -70 -227 -70c-90 0 -163.333 22.167 -220 66.5s-85 101.833 -85 172.5zM371 1478h982
c72.667 0 134.667 -25.333 186 -76s77 -111.667 77 -183v-994c0 -71.333 -25.667 -132.333 -77 -183s-113.333 -76 -186 -76h-982c-72.667 0 -134.667 25.333 -186 76s-77 111.667 -77 183v994c0 71.333 25.667 132.333 77 183s113.333 76 186 76zM1385 1147
c0 33.333 -11.8301 61.333 -35.4971 84s-52.834 34 -87.501 34h-800c-34.667 0 -63.834 -11.333 -87.501 -34s-35.5 -50.667 -35.5 -84v-850c0 -32.667 12.167 -60.5 36.5 -83.5s53.166 -34.5 86.499 -34.5h800c34 0 63 11.5 87 34.5s36 50.833 36 83.5v850z" />
    <glyph glyph-name="six.whitesquare" unicode="&#x36;&#x20de;" 
d="M1163 865l-238.002 0.000976562c-12 18.667 -29 28 -51 28c-27.333 0 -48.166 -14 -62.499 -42s-17.833 -61.667 -10.5 -101h8c26.667 54.667 76 82 148 82c68 0 121.667 -18.833 161 -56.5s59 -89.167 59 -154.5c0 -76.667 -27.833 -138.334 -83.5 -185.001
s-129.5 -70 -221.5 -70c-125.333 0 -217.333 47 -276 141c-37.333 60.667 -56 136.334 -56 227.001c0 107.333 29.333 191.666 88 252.999s139.334 92 242.001 92c78 0 144.5 -20 199.5 -60s86.167 -91.333 93.5 -154zM810.998 616.001
c0 -16.667 5.33203 -30.334 15.999 -41.001s24.667 -16 42 -16c16.667 0 30.334 5.33301 41.001 16s16 24.334 16 41.001s-5.5 30.334 -16.5 41.001s-24.5 16 -40.5 16c-16.667 0 -30.5 -5.33301 -41.5 -16s-16.5 -24.334 -16.5 -41.001zM370.997 1478h982
c72.667 0 134.667 -25.333 186 -76s77 -111.667 77 -183v-994c0 -71.333 -25.667 -132.333 -77 -183s-113.333 -76 -186 -76h-982c-72.667 0 -134.667 25.333 -186 76s-77 111.667 -77 183v994c0 71.333 25.667 132.333 77 183s113.333 76 186 76zM1385 1147
c0 33.333 -11.8301 61.333 -35.4971 84s-52.834 34 -87.501 34h-800c-34.667 0 -63.834 -11.333 -87.501 -34s-35.5 -50.667 -35.5 -84v-850c0 -32.667 12.167 -60.5 36.5 -83.5s53.166 -34.5 86.499 -34.5h800c34 0 63 11.5 87 34.5s36 50.833 36 83.5v850z" />
    <glyph glyph-name="seven.whitesquare" unicode="&#x37;&#x20de;" 
d="M566 1069h594v-209l-251 -483h-290l268 475v9h-321v208zM371 1478h982c72.667 0 134.667 -25.333 186 -76s77 -111.667 77 -183v-994c0 -71.333 -25.667 -132.333 -77 -183s-113.333 -76 -186 -76h-982c-72.667 0 -134.667 25.333 -186 76s-77 111.667 -77 183v994
c0 71.333 25.667 132.333 77 183s113.333 76 186 76zM1385 1147c0 33.333 -11.8301 61.333 -35.4971 84s-52.834 34 -87.501 34h-800c-34.667 0 -63.834 -11.333 -87.501 -34s-35.5 -50.667 -35.5 -84v-850c0 -32.667 12.167 -60.5 36.5 -83.5s53.166 -34.5 86.499 -34.5
h800c34 0 63 11.5 87 34.5s36 50.833 36 83.5v850z" />
    <glyph glyph-name="eight.whitesquare" unicode="&#x38;&#x20de;" 
d="M862 537c16.667 0 30.5 5.66699 41.5 17s16.5 25.666 16.5 42.999s-5.5 32 -16.5 44s-24.833 18 -41.5 18s-30.5 -6 -41.5 -18s-16.5 -26.667 -16.5 -44s5.5 -31.666 16.5 -42.999s24.833 -17 41.5 -17zM862 811c13.333 0 24.5 4.66699 33.5 14s13.5 20.666 13.5 33.999
s-4.66699 24.833 -14 34.5s-20.333 14.5 -33 14.5s-23.667 -4.83301 -33 -14.5s-14 -21.167 -14 -34.5s4.5 -24.666 13.5 -33.999s20.167 -14 33.5 -14zM862 366c-104 0 -185.837 18.667 -245.504 56s-89.5 88.666 -89.5 153.999c0 44.667 14.5 81.334 43.5 110.001
s68.167 45.667 117.5 51v11c-45.333 12 -78.666 29.5 -99.999 52.5s-32 52.833 -32 89.5c0 58 27.333 103.833 82 137.5s129.334 50.5 224.001 50.5s169.334 -16.833 224.001 -50.5s82 -79.5 82 -137.5c0 -36.667 -10.667 -66.5 -32 -89.5s-54.666 -40.5 -99.999 -52.5v-11
c49.333 -5.33301 88.5 -22.333 117.5 -51s43.5 -65.334 43.5 -110.001c0 -65.333 -29.833 -116.666 -89.5 -153.999s-141.5 -56 -245.5 -56zM370.996 1478h982c72.667 0 134.667 -25.333 186 -76s77 -111.667 77 -183v-994c0 -71.333 -25.667 -132.333 -77 -183
s-113.333 -76 -186 -76h-982c-72.667 0 -134.667 25.333 -186 76s-77 111.667 -77 183v994c0 71.333 25.667 132.333 77 183s113.333 76 186 76zM1385 1147c0 33.333 -11.8301 61.333 -35.4971 84s-52.834 34 -87.501 34h-800c-34.667 0 -63.834 -11.333 -87.501 -34
s-35.5 -50.667 -35.5 -84v-850c0 -32.667 12.167 -60.5 36.5 -83.5s53.166 -34.5 86.499 -34.5h800c34 0 63 11.5 87 34.5s36 50.833 36 83.5v850z" />
    <glyph glyph-name="nine.whitesquare" unicode="&#x39;&#x20de;" 
d="M546 824c0 74 29.166 135 87.499 183s132.166 72 221.499 72c102.667 0 183 -31.5 241 -94.5s87 -150.5 87 -262.5c0 -111.333 -29.167 -198.5 -87.5 -261.5s-139.166 -94.5 -242.499 -94.5c-77.333 0 -143.666 20.5 -198.999 61.5s-86.666 92.833 -93.999 155.5h242
c12.667 -20 29.667 -30 51 -30c27.333 0 48 14 62 42s17.667 61.333 11 100h-8c-26 -54.667 -75 -82 -147 -82c-68.667 0 -123.334 19 -164.001 57s-61 89.333 -61 154zM915.999 829c0 16.667 -5.33301 30.334 -16 41.001s-24.334 16 -41.001 16s-30.5 -5.33301 -41.5 -16
s-16.5 -24.334 -16.5 -41.001s5.33301 -30.334 16 -41.001s24.667 -16 42 -16c16.667 0 30.334 5.33301 41.001 16s16 24.334 16 41.001zM370.999 1478h982c72.667 0 134.667 -25.333 186 -76s77 -111.667 77 -183v-994c0 -71.333 -25.667 -132.333 -77 -183
s-113.333 -76 -186 -76h-982c-72.667 0 -134.667 25.333 -186 76s-77 111.667 -77 183v994c0 71.333 25.667 132.333 77 183s113.333 76 186 76zM1385 1147c0 33.333 -11.8301 61.333 -35.4971 84s-52.834 34 -87.501 34h-800c-34.667 0 -63.834 -11.333 -87.501 -34
s-35.5 -50.667 -35.5 -84v-850c0 -32.667 12.167 -60.5 36.5 -83.5s53.166 -34.5 86.499 -34.5h800c34 0 63 11.5 87 34.5s36 50.833 36 83.5v850z" />
    <glyph glyph-name="plus.uc.whitesquare" unicode="&#x2b;&#x20de;" 
d="M981 607v-203h-238v203h-199v228h199v205h238v-205h199v-228h-199zM371 1478h982c72.667 0 134.667 -25.333 186 -76s77 -111.667 77 -183v-994c0 -71.333 -25.667 -132.333 -77 -183s-113.333 -76 -186 -76h-982c-72.667 0 -134.667 25.333 -186 76s-77 111.667 -77 183
v994c0 71.333 25.667 132.333 77 183s113.333 76 186 76zM1385 1147c0 33.333 -11.8301 61.333 -35.4971 84s-52.834 34 -87.501 34h-800c-34.667 0 -63.834 -11.333 -87.501 -34s-35.5 -50.667 -35.5 -84v-850c0 -32.667 12.167 -60.5 36.5 -83.5
s53.166 -34.5 86.499 -34.5h800c34 0 63 11.5 87 34.5s36 50.833 36 83.5v850z" />
    <glyph glyph-name="minus.uc.whitesquare" unicode="&#x2212;&#x20de;" 
d="M1137 603h-550v238h550v-238zM371 1478h982c72.667 0 134.667 -25.333 186 -76s77 -111.667 77 -183v-994c0 -71.333 -25.667 -132.333 -77 -183s-113.333 -76 -186 -76h-982c-72.667 0 -134.667 25.333 -186 76s-77 111.667 -77 183v994c0 71.333 25.667 132.333 77 183
s113.333 76 186 76zM1385 1147c0 33.333 -11.8301 61.333 -35.4971 84s-52.834 34 -87.501 34h-800c-34.667 0 -63.834 -11.333 -87.501 -34s-35.5 -50.667 -35.5 -84v-850c0 -32.667 12.167 -60.5 36.5 -83.5s53.166 -34.5 86.499 -34.5h800c34 0 63 11.5 87 34.5
s36 50.833 36 83.5v850z" />
    <glyph glyph-name="multiply.uc.whitesquare" unicode="&#xd7;&#x20de;" 
d="M861 891l156 156l168 -168l-156 -156l156 -156l-168 -168l-156 156l-156 -156l-168 168l156 156l-156 156l168 168zM371 1478h982c72.667 0 134.667 -25.333 186 -76s77 -111.667 77 -183v-994c0 -71.333 -25.667 -132.333 -77 -183s-113.333 -76 -186 -76h-982
c-72.667 0 -134.667 25.333 -186 76s-77 111.667 -77 183v994c0 71.333 25.667 132.333 77 183s113.333 76 186 76zM1385 1147c0 33.333 -11.8301 61.333 -35.4971 84s-52.834 34 -87.501 34h-800c-34.667 0 -63.834 -11.333 -87.501 -34s-35.5 -50.667 -35.5 -84v-850
c0 -32.667 12.167 -60.5 36.5 -83.5s53.166 -34.5 86.499 -34.5h800c34 0 63 11.5 87 34.5s36 50.833 36 83.5v850z" />
    <glyph glyph-name="divide.uc.whitesquare" unicode="&#xf7;&#x20de;" 
d="M1137 634h-550v176h550v-176zM746 962c0 28.667 11 52.5 33 71.5s49.667 28.5 83 28.5s61 -9.5 83 -28.5s33 -42.833 33 -71.5s-11 -52.5 -33 -71.5s-49.667 -28.5 -83 -28.5s-61 9.5 -83 28.5s-33 42.833 -33 71.5zM746 482c0 28.667 11 52.5 33 71.5
s49.667 28.5 83 28.5s61 -9.5 83 -28.5s33 -42.833 33 -71.5s-11 -52.5 -33 -71.5s-49.667 -28.5 -83 -28.5s-61 9.5 -83 28.5s-33 42.833 -33 71.5zM371 1478h982c72.667 0 134.667 -25.333 186 -76s77 -111.667 77 -183v-994c0 -71.333 -25.667 -132.333 -77 -183
s-113.333 -76 -186 -76h-982c-72.667 0 -134.667 25.333 -186 76s-77 111.667 -77 183v994c0 71.333 25.667 132.333 77 183s113.333 76 186 76zM1385 1147c0 33.333 -11.8301 61.333 -35.4971 84s-52.834 34 -87.501 34h-800c-34.667 0 -63.834 -11.333 -87.501 -34
s-35.5 -50.667 -35.5 -84v-850c0 -32.667 12.167 -60.5 36.5 -83.5s53.166 -34.5 86.499 -34.5h800c34 0 63 11.5 87 34.5s36 50.833 36 83.5v850z" />
    <glyph glyph-name="equal.uc.whitesquare" unicode="&#x3d;&#x20de;" 
d="M1166 471h-607v205h607v-205zM1166 765h-607v204h607v-204zM371 1478h982c72.667 0 134.667 -25.333 186 -76s77 -111.667 77 -183v-994c0 -71.333 -25.667 -132.333 -77 -183s-113.333 -76 -186 -76h-982c-72.667 0 -134.667 25.333 -186 76s-77 111.667 -77 183v994
c0 71.333 25.667 132.333 77 183s113.333 76 186 76zM1385 1147c0 33.333 -11.8301 61.333 -35.4971 84s-52.834 34 -87.501 34h-800c-34.667 0 -63.834 -11.333 -87.501 -34s-35.5 -50.667 -35.5 -84v-850c0 -32.667 12.167 -60.5 36.5 -83.5s53.166 -34.5 86.499 -34.5
h800c34 0 63 11.5 87 34.5s36 50.833 36 83.5v850z" />
    <glyph glyph-name="greater.uc.whitesquare" unicode="&#x3e;&#x20de;" 
d="M1170 790v-135l-561 -257v243l232 79v10l-232 65v252zM371 1478h982c72.667 0 134.667 -25.333 186 -76s77 -111.667 77 -183v-994c0 -71.333 -25.667 -132.333 -77 -183s-113.333 -76 -186 -76h-982c-72.667 0 -134.667 25.333 -186 76s-77 111.667 -77 183v994
c0 71.333 25.667 132.333 77 183s113.333 76 186 76zM1385 1147c0 33.333 -11.8301 61.333 -35.4971 84s-52.834 34 -87.501 34h-800c-34.667 0 -63.834 -11.333 -87.501 -34s-35.5 -50.667 -35.5 -84v-850c0 -32.667 12.167 -60.5 36.5 -83.5s53.166 -34.5 86.499 -34.5
h800c34 0 63 11.5 87 34.5s36 50.833 36 83.5v850z" />
    <glyph glyph-name="less.uc.whitesquare" unicode="&#x3c;&#x20de;" 
d="M554 655v135l561 257v-252l-232 -65v-10l232 -79v-243zM371 1478h982c72.667 0 134.667 -25.333 186 -76s77 -111.667 77 -183v-994c0 -71.333 -25.667 -132.333 -77 -183s-113.333 -76 -186 -76h-982c-72.667 0 -134.667 25.333 -186 76s-77 111.667 -77 183v994
c0 71.333 25.667 132.333 77 183s113.333 76 186 76zM1385 1147c0 33.333 -11.8301 61.333 -35.4971 84s-52.834 34 -87.501 34h-800c-34.667 0 -63.834 -11.333 -87.501 -34s-35.5 -50.667 -35.5 -84v-850c0 -32.667 12.167 -60.5 36.5 -83.5s53.166 -34.5 86.499 -34.5
h800c34 0 63 11.5 87 34.5s36 50.833 36 83.5v850z" />
    <glyph glyph-name="numbersign.whitesquare" unicode="&#x23;&#x20de;" 
d="M1163 756h-87l-9 -56h91l-33 -169h-93l-31 -154h-179l28 154h-54l-30 -154h-180l31 154h-88l33 169h88l11 56h-93l32 170h91l27 143h181l-29 -143h57l25 143h181l-26 -143h88zM826 773l-19 -101h93l17 101h-91zM371 1478h982c72.667 0 134.667 -25.333 186 -76
s77 -111.667 77 -183v-994c0 -71.333 -25.667 -132.333 -77 -183s-113.333 -76 -186 -76h-982c-72.667 0 -134.667 25.333 -186 76s-77 111.667 -77 183v994c0 71.333 25.667 132.333 77 183s113.333 76 186 76zM1385 1147c0 33.333 -11.8301 61.333 -35.4971 84
s-52.834 34 -87.501 34h-800c-34.667 0 -63.834 -11.333 -87.501 -34s-35.5 -50.667 -35.5 -84v-850c0 -32.667 12.167 -60.5 36.5 -83.5s53.166 -34.5 86.499 -34.5h800c34 0 63 11.5 87 34.5s36 50.833 36 83.5v850z" />
    <glyph glyph-name="uni25BC.whitesquare" unicode="&#x25bc;&#x20de;" 
d="M1204 948l-342 -593l-341 593h683zM371 1478h982c72.667 0 134.667 -25.333 186 -76s77 -111.667 77 -183v-994c0 -71.333 -25.667 -132.333 -77 -183s-113.333 -76 -186 -76h-982c-72.667 0 -134.667 25.333 -186 76s-77 111.667 -77 183v994
c0 71.333 25.667 132.333 77 183s113.333 76 186 76zM1385 1147c0 33.333 -11.8301 61.333 -35.4971 84s-52.834 34 -87.501 34h-800c-34.667 0 -63.834 -11.333 -87.501 -34s-35.5 -50.667 -35.5 -84v-850c0 -32.667 12.167 -60.5 36.5 -83.5s53.166 -34.5 86.499 -34.5
h800c34 0 63 11.5 87 34.5s36 50.833 36 83.5v850z" />
    <glyph glyph-name="uni25B2.whitesquare" unicode="&#x25b2;&#x20de;" 
d="M1204 496h-683l341 593zM371 1478h982c72.667 0 134.667 -25.333 186 -76s77 -111.667 77 -183v-994c0 -71.333 -25.667 -132.333 -77 -183s-113.333 -76 -186 -76h-982c-72.667 0 -134.667 25.333 -186 76s-77 111.667 -77 183v994c0 71.333 25.667 132.333 77 183
s113.333 76 186 76zM1385 1147c0 33.333 -11.8301 61.333 -35.4971 84s-52.834 34 -87.501 34h-800c-34.667 0 -63.834 -11.333 -87.501 -34s-35.5 -50.667 -35.5 -84v-850c0 -32.667 12.167 -60.5 36.5 -83.5s53.166 -34.5 86.499 -34.5h800c34 0 63 11.5 87 34.5
s36 50.833 36 83.5v850z" />
    <glyph glyph-name="uni25C0.whitesquare" unicode="&#x25c0;&#x20de;" 
d="M1083 385l-593 342l593 341v-683zM371 1478h982c72.667 0 134.667 -25.333 186 -76s77 -111.667 77 -183v-994c0 -71.333 -25.667 -132.333 -77 -183s-113.333 -76 -186 -76h-982c-72.667 0 -134.667 25.333 -186 76s-77 111.667 -77 183v994
c0 71.333 25.667 132.333 77 183s113.333 76 186 76zM1385 1147c0 33.333 -11.8301 61.333 -35.4971 84s-52.834 34 -87.501 34h-800c-34.667 0 -63.834 -11.333 -87.501 -34s-35.5 -50.667 -35.5 -84v-850c0 -32.667 12.167 -60.5 36.5 -83.5s53.166 -34.5 86.499 -34.5
h800c34 0 63 11.5 87 34.5s36 50.833 36 83.5v850z" />
    <glyph glyph-name="uni25B6.whitesquare" unicode="&#x25b6;&#x20de;" 
d="M641 385v683l593 -341zM371 1478h982c72.667 0 134.667 -25.333 186 -76s77 -111.667 77 -183v-994c0 -71.333 -25.667 -132.333 -77 -183s-113.333 -76 -186 -76h-982c-72.667 0 -134.667 25.333 -186 76s-77 111.667 -77 183v994c0 71.333 25.667 132.333 77 183
s113.333 76 186 76zM1385 1147c0 33.333 -11.8301 61.333 -35.4971 84s-52.834 34 -87.501 34h-800c-34.667 0 -63.834 -11.333 -87.501 -34s-35.5 -50.667 -35.5 -84v-850c0 -32.667 12.167 -60.5 36.5 -83.5s53.166 -34.5 86.499 -34.5h800c34 0 63 11.5 87 34.5
s36 50.833 36 83.5v850z" />
    <glyph glyph-name="question.whitesquare" unicode="&#x3f;&#x20de;" 
d="M718 467c0 32.667 12.167 58 36.5 76s59.166 27 104.499 27c43.333 0 77.333 -9 102 -27s37 -43.333 37 -76s-12 -58 -36 -76s-58.333 -27 -103 -27c-45.333 0 -80.166 9 -104.499 27s-36.5 43.333 -36.5 76zM595 847c0 74.667 25 131.501 75 170.501
s122.667 58.5 218 58.5c81.333 0 146.333 -19.5 195 -58.5s73 -91.167 73 -156.5c0 -37.333 -7.66699 -69 -23 -95s-40.333 -49.333 -75 -70c-44 -26.667 -71.333 -45.167 -82 -55.5s-16 -22.5 -16 -36.5h-223c-2.66699 8.66699 -4 18.667 -4 30c0 60.667 26 106.667 78 138
c30.667 18.667 52.167 34 64.5 46s18.5 23.333 18.5 34c0 10 -3 18.167 -9 24.5s-14 9.5 -24 9.5c-8 0 -15.5 -3.83301 -22.5 -11.5s-11.167 -16.834 -12.5 -27.501h-231zM371 1478h982c72.667 0 134.667 -25.333 186 -76s77 -111.667 77 -183v-994
c0 -71.333 -25.667 -132.333 -77 -183s-113.333 -76 -186 -76h-982c-72.667 0 -134.667 25.333 -186 76s-77 111.667 -77 183v994c0 71.333 25.667 132.333 77 183s113.333 76 186 76zM1385 1147c0 33.333 -11.8301 61.333 -35.4971 84s-52.834 34 -87.501 34h-800
c-34.667 0 -63.834 -11.333 -87.501 -34s-35.5 -50.667 -35.5 -84v-850c0 -32.667 12.167 -60.5 36.5 -83.5s53.166 -34.5 86.499 -34.5h800c34 0 63 11.5 87 34.5s36 50.833 36 83.5v850z" />
    <glyph glyph-name="exclam.whitesquare" unicode="&#x21;&#x20de;" 
d="M729 467c0 32.667 12.333 58 37 76s59.334 27 104.001 27c44 0 78.167 -9 102.5 -27s36.5 -43.333 36.5 -76s-12 -58 -36 -76s-58.333 -27 -103 -27s-79.334 9 -104.001 27s-37 43.333 -37 76zM727 1069h285l-31 -459h-225zM371 1478h982
c72.667 0 134.667 -25.333 186 -76s77 -111.667 77 -183v-994c0 -71.333 -25.667 -132.333 -77 -183s-113.333 -76 -186 -76h-982c-72.667 0 -134.667 25.333 -186 76s-77 111.667 -77 183v994c0 71.333 25.667 132.333 77 183s113.333 76 186 76zM1385 1147
c0 33.333 -11.8301 61.333 -35.4971 84s-52.834 34 -87.501 34h-800c-34.667 0 -63.834 -11.333 -87.501 -34s-35.5 -50.667 -35.5 -84v-850c0 -32.667 12.167 -60.5 36.5 -83.5s53.166 -34.5 86.499 -34.5h800c34 0 63 11.5 87 34.5s36 50.833 36 83.5v850z" />
    <glyph glyph-name="uni2717.whitesquare" unicode="&#x2717;&#x20de;" 
d="M865 879l193 192l156 -156l-192 -192l192 -192l-156 -157l-193 192l-194 -193l-155 155l194 195l-192 192l155 156zM371 1478h982c72.667 0 134.667 -25.333 186 -76s77 -111.667 77 -183v-994c0 -71.333 -25.667 -132.333 -77 -183s-113.333 -76 -186 -76h-982
c-72.667 0 -134.667 25.333 -186 76s-77 111.667 -77 183v994c0 71.333 25.667 132.333 77 183s113.333 76 186 76zM1385 1147c0 33.333 -11.8301 61.333 -35.4971 84s-52.834 34 -87.501 34h-800c-34.667 0 -63.834 -11.333 -87.501 -34s-35.5 -50.667 -35.5 -84v-850
c0 -32.667 12.167 -60.5 36.5 -83.5s53.166 -34.5 86.499 -34.5h800c34 0 63 11.5 87 34.5s36 50.833 36 83.5v850z" />
    <glyph glyph-name="uni2713.whitesquare" unicode="&#x2713;&#x20de;" 
d="M1294 871l-539 -522l-334 327l161 158l178 -177l379 379zM371 1478h982c72.667 0 134.667 -25.333 186 -76s77 -111.667 77 -183v-994c0 -71.333 -25.667 -132.333 -77 -183s-113.333 -76 -186 -76h-982c-72.667 0 -134.667 25.333 -186 76s-77 111.667 -77 183v994
c0 71.333 25.667 132.333 77 183s113.333 76 186 76zM1385 1147c0 33.333 -11.8301 61.333 -35.4971 84s-52.834 34 -87.501 34h-800c-34.667 0 -63.834 -11.333 -87.501 -34s-35.5 -50.667 -35.5 -84v-850c0 -32.667 12.167 -60.5 36.5 -83.5s53.166 -34.5 86.499 -34.5
h800c34 0 63 11.5 87 34.5s36 50.833 36 83.5v850z" />
    <glyph glyph-name="plus.uc.blackcircle" unicode="&#x2b;&#x20dd;&#x25cf;" 
d="M989 597h213v244h-213v219h-254v-219h-213v-244h213v-217h254v217zM862 -56c-105.333 0 -206 20.667 -302 62s-178.667 96.666 -248 165.999s-124.666 152 -165.999 248s-62 196.667 -62 302s20.667 206 62 302s96.666 178.667 165.999 248s152 124.666 248 165.999
s196.667 62 302 62s206 -20.667 302 -62s178.667 -96.666 248 -165.999s124.666 -152 165.999 -248s62 -196.667 62 -302s-20.667 -206 -62 -302s-96.666 -178.667 -165.999 -248s-152 -124.666 -248 -165.999s-196.667 -62 -302 -62z" />
    <glyph glyph-name="minus.uc.blackcircle" unicode="&#x2212;&#x20dd;&#x25cf;" 
d="M1156 592v254h-588v-254h588zM862 -56c-105.333 0 -206 20.667 -302 62s-178.667 96.666 -248 165.999s-124.666 152 -165.999 248s-62 196.667 -62 302s20.667 206 62 302s96.666 178.667 165.999 248s152 124.666 248 165.999s196.667 62 302 62s206 -20.667 302 -62
s178.667 -96.666 248 -165.999s124.666 -152 165.999 -248s62 -196.667 62 -302s-20.667 -206 -62 -302s-96.666 -178.667 -165.999 -248s-152 -124.666 -248 -165.999s-196.667 -62 -302 -62z" />
    <glyph glyph-name="multiply.uc.blackcircle" unicode="&#xd7;&#x20dd;&#x25cf;" 
d="M861 901l-167 167l-180 -180l167 -167l-167 -167l180 -180l167 167l167 -167l180 180l-167 167l167 167l-180 180zM862 -56c-105.333 0 -206 20.667 -302 62s-178.667 96.666 -248 165.999s-124.666 152 -165.999 248s-62 196.667 -62 302s20.667 206 62 302
s96.666 178.667 165.999 248s152 124.666 248 165.999s196.667 62 302 62s206 -20.667 302 -62s178.667 -96.666 248 -165.999s124.666 -152 165.999 -248s62 -196.667 62 -302s-20.667 -206 -62 -302s-96.666 -178.667 -165.999 -248s-152 -124.666 -248 -165.999
s-196.667 -62 -302 -62z" />
    <glyph glyph-name="divide.uc.blackcircle" unicode="&#xf7;&#x20dd;&#x25cf;" 
d="M738 977c0 -30.667 11.833 -56.167 35.5 -76.5s53.167 -30.5 88.5 -30.5s64.833 10.167 88.5 30.5s35.5 45.833 35.5 76.5s-11.833 56.167 -35.5 76.5s-53.167 30.5 -88.5 30.5s-64.833 -10.167 -88.5 -30.5s-35.5 -45.833 -35.5 -76.5zM1156 626v188h-588v-188h588z
M738 463c0 -30.667 11.833 -56.167 35.5 -76.5s53.167 -30.5 88.5 -30.5s64.833 10.167 88.5 30.5s35.5 45.833 35.5 76.5s-11.833 56.167 -35.5 76.5s-53.167 30.5 -88.5 30.5s-64.833 -10.167 -88.5 -30.5s-35.5 -45.833 -35.5 -76.5zM862 -56
c-105.333 0 -206 20.667 -302 62s-178.667 96.666 -248 165.999s-124.666 152 -165.999 248s-62 196.667 -62 302s20.667 206 62 302s96.666 178.667 165.999 248s152 124.666 248 165.999s196.667 62 302 62s206 -20.667 302 -62s178.667 -96.666 248 -165.999
s124.666 -152 165.999 -248s62 -196.667 62 -302s-20.667 -206 -62 -302s-96.666 -178.667 -165.999 -248s-152 -124.666 -248 -165.999s-196.667 -62 -302 -62z" />
    <glyph glyph-name="equal.uc.blackcircle" unicode="&#x3d;&#x20dd;&#x25cf;" 
d="M1187 772v214h-650v-214h650zM1187 450v213h-650v-213h650zM862 -56c-105.333 0 -206 20.667 -302 62s-178.667 96.666 -248 165.999s-124.666 152 -165.999 248s-62 196.667 -62 302s20.667 206 62 302s96.666 178.667 165.999 248s152 124.666 248 165.999
s196.667 62 302 62s206 -20.667 302 -62s178.667 -96.666 248 -165.999s124.666 -152 165.999 -248s62 -196.667 62 -302s-20.667 -206 -62 -302s-96.666 -178.667 -165.999 -248s-152 -124.666 -248 -165.999s-196.667 -62 -302 -62z" />
    <glyph glyph-name="greater.uc.blackcircle" unicode="&#x3e;&#x20dd;&#x25cf;" 
d="M1187 793l-602 277v-254l247 -91v-5l-247 -107v-243l602 277v146zM862 -56c-105.333 0 -206 20.667 -302 62s-178.667 96.666 -248 165.999s-124.666 152 -165.999 248s-62 196.667 -62 302s20.667 206 62 302s96.666 178.667 165.999 248s152 124.666 248 165.999
s196.667 62 302 62s206 -20.667 302 -62s178.667 -96.666 248 -165.999s124.666 -152 165.999 -248s62 -196.667 62 -302s-20.667 -206 -62 -302s-96.666 -178.667 -165.999 -248s-152 -124.666 -248 -165.999s-196.667 -62 -302 -62z" />
    <glyph glyph-name="less.uc.blackcircle" unicode="&#x3c;&#x20dd;&#x25cf;" 
d="M537 647l602 -277v243l-247 107v5l247 91v254l-602 -277v-146zM862 -56c-105.333 0 -206 20.667 -302 62s-178.667 96.666 -248 165.999s-124.666 152 -165.999 248s-62 196.667 -62 302s20.667 206 62 302s96.666 178.667 165.999 248s152 124.666 248 165.999
s196.667 62 302 62s206 -20.667 302 -62s178.667 -96.666 248 -165.999s124.666 -152 165.999 -248s62 -196.667 62 -302s-20.667 -206 -62 -302s-96.666 -178.667 -165.999 -248s-152 -124.666 -248 -165.999s-196.667 -62 -302 -62z" />
    <glyph glyph-name="numbersign.blackcircle" unicode="&#x23;&#x20dd;&#x25cf;" 
d="M810 789h123l-24 -133h-125zM1181 755l36 185.999h-94l28 152h-200l-27 -152h-53l31 152h-200l-28 -152h-97l-35 -186h99l-11 -53h-93l-37 -186h93l-31 -164h196l34 164h50l-31 -164h198l32 164h100l36 186h-97c5.33301 32.667 8.33301 50.334 9 53.001h92zM862 -56.001
c-105.333 0 -206 20.667 -302 62s-178.667 96.666 -248 165.999s-124.666 152 -165.999 248s-62 196.667 -62 302s20.667 206 62 302s96.666 178.667 165.999 248s152 124.666 248 165.999s196.667 62 302 62s206 -20.667 302 -62s178.667 -96.666 248 -165.999
s124.666 -152 165.999 -248s62 -196.667 62 -302s-20.667 -206 -62 -302s-96.666 -178.667 -165.999 -248s-152 -124.666 -248 -165.999s-196.667 -62 -302 -62z" />
    <glyph glyph-name="uni25BC.blackcircle" unicode="&#x25bc;&#x20dd;&#x25cf;" 
d="M1215 982h-705l352 -610zM862 -56c-105.333 0 -206 20.667 -302 62s-178.667 96.666 -248 165.999s-124.666 152 -165.999 248s-62 196.667 -62 302s20.667 206 62 302s96.666 178.667 165.999 248s152 124.666 248 165.999s196.667 62 302 62s206 -20.667 302 -62
s178.667 -96.666 248 -165.999s124.666 -152 165.999 -248s62 -196.667 62 -302s-20.667 -206 -62 -302s-96.666 -178.667 -165.999 -248s-152 -124.666 -248 -165.999s-196.667 -62 -302 -62z" />
    <glyph glyph-name="uni25B2.blackcircle" unicode="&#x25b2;&#x20dd;&#x25cf;" 
d="M1215 483l-353 610l-352 -610h705zM862 -56c-105.333 0 -206 20.667 -302 62s-178.667 96.666 -248 165.999s-124.666 152 -165.999 248s-62 196.667 -62 302s20.667 206 62 302s96.666 178.667 165.999 248s152 124.666 248 165.999s196.667 62 302 62
s206 -20.667 302 -62s178.667 -96.666 248 -165.999s124.666 -152 165.999 -248s62 -196.667 62 -302s-20.667 -206 -62 -302s-96.666 -178.667 -165.999 -248s-152 -124.666 -248 -165.999s-196.667 -62 -302 -62z" />
    <glyph glyph-name="uni25C0.blackcircle" unicode="&#x25c0;&#x20dd;&#x25cf;" 
d="M1092 381v703l-611 -351zM862 -56c-105.333 0 -206 20.667 -302 62s-178.667 96.666 -248 165.999s-124.666 152 -165.999 248s-62 196.667 -62 302s20.667 206 62 302s96.666 178.667 165.999 248s152 124.666 248 165.999s196.667 62 302 62s206 -20.667 302 -62
s178.667 -96.666 248 -165.999s124.666 -152 165.999 -248s62 -196.667 62 -302s-20.667 -206 -62 -302s-96.666 -178.667 -165.999 -248s-152 -124.666 -248 -165.999s-196.667 -62 -302 -62z" />
    <glyph glyph-name="uni25B6.blackcircle" unicode="&#x25b6;&#x20dd;&#x25cf;" 
d="M632 381l611 352l-611 351v-703zM862 -56c-105.333 0 -206 20.667 -302 62s-178.667 96.666 -248 165.999s-124.666 152 -165.999 248s-62 196.667 -62 302s20.667 206 62 302s96.666 178.667 165.999 248s152 124.666 248 165.999s196.667 62 302 62
s206 -20.667 302 -62s178.667 -96.666 248 -165.999s124.666 -152 165.999 -248s62 -196.667 62 -302s-20.667 -206 -62 -302s-96.666 -178.667 -165.999 -248s-152 -124.666 -248 -165.999s-196.667 -62 -302 -62z" />
    <glyph glyph-name="question.blackcircle" unicode="&#x3f;&#x20dd;&#x25cf;" 
d="M703 429c0 -76.667 50.665 -115 151.998 -115c48.667 0 85.834 9.83301 111.501 29.5s38.5 48.167 38.5 85.5c0 35.333 -13.167 62.833 -39.5 82.5s-63.166 29.5 -110.499 29.5c-101.333 0 -152 -37.333 -152 -112zM721.998 593l242.999 0.000976562
c0 16.667 4.5 29.667 13.5 39s31.167 24 66.5 44c54 33.333 88.833 61.666 104.5 84.999s23.5 59 23.5 107c0 69.333 -26.667 125.5 -80 168.5s-122.666 64.5 -207.999 64.5c-103.333 0 -181.5 -21.167 -234.5 -63.5s-79.5 -104.5 -79.5 -186.5l258 6c0 33.333 11 50 33 50
c24 0 36 -14.333 36 -43c0 -16.667 -8.16699 -31.167 -24.5 -43.5s-37 -26 -62 -41s-44.167 -31.167 -57.5 -48.5c-24.667 -28.667 -37 -63.334 -37 -104.001c0 -13.333 1.66699 -24.666 5 -33.999zM861.997 -55.999c-105.333 0 -206 20.667 -302 62
s-178.667 96.666 -248 165.999s-124.666 152 -165.999 248s-62 196.667 -62 302s20.667 206 62 302s96.666 178.667 165.999 248s152 124.666 248 165.999s196.667 62 302 62s206 -20.667 302 -62s178.667 -96.666 248 -165.999s124.666 -152 165.999 -248
s62 -196.667 62 -302s-20.667 -206 -62 -302s-96.666 -178.667 -165.999 -248s-152 -124.666 -248 -165.999s-196.667 -62 -302 -62z" />
    <glyph glyph-name="exclam.blackcircle" unicode="&#x21;&#x20dd;&#x25cf;" 
d="M711 1094l31 -496h245l34 496h-310zM715 429c0 -36.667 13.167 -64.833 39.5 -84.5s63.833 -29.5 112.5 -29.5c100.667 0 151 38 151 114c0 35.333 -13 62.833 -39 82.5s-63.333 29.5 -112 29.5s-86.167 -9.66699 -112.5 -29s-39.5 -47 -39.5 -83zM862 -55.999
c-105.333 0 -206 20.667 -302 62s-178.667 96.666 -248 165.999s-124.666 152 -165.999 248s-62 196.667 -62 302s20.667 206 62 302s96.666 178.667 165.999 248s152 124.666 248 165.999s196.667 62 302 62s206 -20.667 302 -62s178.667 -96.666 248 -165.999
s124.666 -152 165.999 -248s62 -196.667 62 -302s-20.667 -206 -62 -302s-96.666 -178.667 -165.999 -248s-152 -124.666 -248 -165.999s-196.667 -62 -302 -62z" />
    <glyph glyph-name="uni2717.blackcircle" unicode="&#x2717;&#x20dd;&#x25cf;" 
d="M860 887l-203 203l-168 -168l204 -204l-206 -206l168 -168l205 205l203 -203l170 169l-204 203l204 204l-170 168zM862 -56c-105.333 0 -206 20.667 -302 62s-178.667 96.666 -248 165.999s-124.666 152 -165.999 248s-62 196.667 -62 302s20.667 206 62 302
s96.666 178.667 165.999 248s152 124.666 248 165.999s196.667 62 302 62s206 -20.667 302 -62s178.667 -96.666 248 -165.999s124.666 -152 165.999 -248s62 -196.667 62 -302s-20.667 -206 -62 -302s-96.666 -178.667 -165.999 -248s-152 -124.666 -248 -165.999
s-196.667 -62 -302 -62z" />
    <glyph glyph-name="uni2713.blackcircle" unicode="&#x2713;&#x20dd;&#x25cf;" horiz-adv-x="1800" 
d="M742 343l586 568l-173 181l-408 -409l-192 192l-178 -175zM862 -56c-105.333 0 -206 20.667 -302 62s-178.667 96.666 -248 165.999s-124.666 152 -165.999 248s-62 196.667 -62 302s20.667 206 62 302s96.666 178.667 165.999 248s152 124.666 248 165.999
s196.667 62 302 62s206 -20.667 302 -62s178.667 -96.666 248 -165.999s124.666 -152 165.999 -248s62 -196.667 62 -302s-20.667 -206 -62 -302s-96.666 -178.667 -165.999 -248s-152 -124.666 -248 -165.999s-196.667 -62 -302 -62z" />
    <glyph glyph-name="zero.blacksquare" unicode="&#x30;&#x20de;&#x25a0;" 
d="M862 543c-21.333 0 -37 13.5 -47 40.5s-15 72.5 -15 136.5s5 109.5 15 136.5s25.667 40.5 47 40.5s37 -13.5 47 -40.5s15 -72.5 15 -136.5s-5 -109.5 -15 -136.5s-25.667 -40.5 -47 -40.5zM858 338c104 0 187 34 249 102s93 161.333 93 280s-31 212 -93 280
s-145 102 -249 102c-103.333 0 -184.666 -33.833 -243.999 -101.5s-89 -161.167 -89 -280.5s29.667 -212.833 89 -280.5s140.666 -101.5 243.999 -101.5zM371 1478h982c72.667 0 134.667 -25.333 186 -76s77 -111.667 77 -183v-994c0 -71.333 -25.667 -132.333 -77 -183
s-113.333 -76 -186 -76h-982c-72.667 0 -134.667 25.333 -186 76s-77 111.667 -77 183v994c0 71.333 25.667 132.333 77 183s113.333 76 186 76z" />
    <glyph glyph-name="one.blacksquare" unicode="&#x31;&#x20de;&#x25a0;" 
d="M1047 350v741h-295l-174 -112v-249l164 108h9v-488h296zM371 1478h982c72.667 0 134.667 -25.333 186 -76s77 -111.667 77 -183v-994c0 -71.333 -25.667 -132.333 -77 -183s-113.333 -76 -186 -76h-982c-72.667 0 -134.667 25.333 -186 76s-77 111.667 -77 183v994
c0 71.333 25.667 132.333 77 183s113.333 76 186 76z" />
    <glyph glyph-name="two.blacksquare" unicode="&#x32;&#x20de;&#x25a0;" 
d="M793 818c0 52 18 78.001 54 78.001c14.667 0 26.167 -3.83301 34.5 -11.5s12.5 -17.834 12.5 -30.501c0 -18.667 -7 -37.167 -21 -55.5s-41.667 -45.5 -83 -81.5l-232 -187v-182h619v228h-245v5l74 58c55.333 44 94.833 84.167 118.5 120.5s35.5 75.5 35.5 117.5
c0 62.667 -28 115.667 -84 159s-124.667 65 -206 65c-100.667 0 -181.167 -25.667 -241.5 -77s-90.5 -120 -90.5 -206h255zM371 1478h982c72.667 0 134.667 -25.333 186 -76s77 -111.667 77 -183v-994c0 -71.333 -25.667 -132.333 -77 -183s-113.333 -76 -186 -76h-982
c-72.667 0 -134.667 25.333 -186 76s-77 111.667 -77 183v994c0 71.333 25.667 132.333 77 183s113.333 76 186 76z" />
    <glyph glyph-name="three.blacksquare" unicode="&#x33;&#x20de;&#x25a0;" 
d="M782 631h71.001c20.667 0 37.167 -4 49.5 -12s18.5 -19 18.5 -33c0 -13.333 -5.83301 -24 -17.5 -32s-27.5 -12 -47.5 -12c-23.333 0 -41.5 5.66699 -54.5 17s-19.5 27.333 -19.5 48h-262c0 -79.333 31.167 -143.833 93.5 -193.5s143.166 -74.5 242.499 -74.5
c102.667 0 184.334 20.333 245.001 61s91 95.667 91 165c0 44 -14.833 82.5 -44.5 115.5s-65.834 51.5 -108.501 55.5v10c37.333 4.66699 69.333 21.5 96 50.5s40 61.833 40 98.5c0 62 -29.333 111.833 -88 149.5s-135.667 56.5 -231 56.5
c-215.333 0 -327.333 -88.667 -336 -266h262c0 44.667 23.333 67 70 67c16 0 29.167 -4 39.5 -12s15.5 -18 15.5 -30c0 -30 -19.667 -45 -59 -45h-66v-184zM371.001 1478h982c72.667 0 134.667 -25.333 186 -76s77 -111.667 77 -183v-994
c0 -71.333 -25.667 -132.333 -77 -183s-113.333 -76 -186 -76h-982c-72.667 0 -134.667 25.333 -186 76s-77 111.667 -77 183v994c0 71.333 25.667 132.333 77 183s113.333 76 186 76z" />
    <glyph glyph-name="four.blacksquare" unicode="&#x34;&#x20de;&#x25a0;" 
d="M719 1091c-83.333 -156.667 -153.667 -299 -211 -427v-214h361v-100h233v100h104v212h-104v429h-383zM751.999 662l0.000976562 1c31.333 87.333 67.666 171.333 108.999 252h8v-253h-117zM371 1478h982c72.667 0 134.667 -25.333 186 -76s77 -111.667 77 -183v-994
c0 -71.333 -25.667 -132.333 -77 -183s-113.333 -76 -186 -76h-982c-72.667 0 -134.667 25.333 -186 76s-77 111.667 -77 183v994c0 71.333 25.667 132.333 77 183s113.333 76 186 76z" />
    <glyph glyph-name="five.blacksquare" unicode="&#x35;&#x20de;&#x25a0;" 
d="M546 606c0 -76.667 30.1689 -138.833 90.502 -186.5s139.166 -71.5 236.499 -71.5c103.333 0 184.666 25 243.999 75s89 118.667 89 206c0 72.667 -21.833 130.334 -65.5 173.001s-102.5 64 -176.5 64c-38.667 0 -72.834 -6.66699 -102.501 -20
s-50.167 -31.333 -61.5 -54h-10l7 119h353v191h-567l-24 -453h247c6 13.333 15.167 24 27.5 32s25.5 12 39.5 12c21.333 0 38.5 -6.66699 51.5 -20s19.5 -31.333 19.5 -54c0 -20.667 -6.66699 -37.834 -20 -51.501s-30.333 -20.5 -51 -20.5c-18.667 0 -34.667 5.5 -48 16.5
s-21.666 25.167 -24.999 42.5h-254zM371.002 1478h982c72.667 0 134.667 -25.333 186 -76s77 -111.667 77 -183v-994c0 -71.333 -25.667 -132.333 -77 -183s-113.333 -76 -186 -76h-982c-72.667 0 -134.667 25.333 -186 76s-77 111.667 -77 183v994
c0 71.333 25.667 132.333 77 183s113.333 76 186 76z" />
    <glyph glyph-name="six.blacksquare" unicode="&#x36;&#x20de;&#x25a0;" 
d="M1197 612c0 70.667 -19.834 124.834 -59.501 162.501s-96.167 56.5 -169.5 56.5c-38 0 -72.667 -7.66699 -104 -23s-55.666 -36.333 -72.999 -63h-8c-4 16 -6 30.333 -6 43c0 35.333 8.33301 64.166 25 86.499s38 33.5 64 33.5c26.667 0 48.667 -11.667 66 -35h249
c-8.66699 67.333 -42.5 122.5 -101.5 165.5s-129.833 64.5 -212.5 64.5c-108.667 0 -194.834 -33.333 -258.501 -100s-95.5 -157 -95.5 -271c0 -94.667 20 -176 60 -244c64.667 -100 163.334 -150 296.001 -150c96.667 0 175.5 25.333 236.5 76s91.5 116.667 91.5 198z
M792.999 607c0 22.667 6.66895 40.667 20.002 54s30.666 20 51.999 20c22 0 40 -6.83301 54 -20.5s21 -31.5 21 -53.5c0 -22.667 -6.83301 -40.667 -20.5 -54s-31.834 -20 -54.501 -20c-22 0 -39.5 6.66699 -52.5 20s-19.5 31.333 -19.5 54zM371.001 1478h982
c72.667 0 134.667 -25.333 186 -76s77 -111.667 77 -183v-994c0 -71.333 -25.667 -132.333 -77 -183s-113.333 -76 -186 -76h-982c-72.667 0 -134.667 25.333 -186 76s-77 111.667 -77 183v994c0 71.333 25.667 132.333 77 183s113.333 76 186 76z" />
    <glyph glyph-name="seven.blacksquare" unicode="&#x37;&#x20de;&#x25a0;" 
d="M541 1091v-227h340v-4l-287 -510h316l268 514v227h-637zM371 1478h982c72.667 0 134.667 -25.333 186 -76s77 -111.667 77 -183v-994c0 -71.333 -25.667 -132.333 -77 -183s-113.333 -76 -186 -76h-982c-72.667 0 -134.667 25.333 -186 76s-77 111.667 -77 183v994
c0 71.333 25.667 132.333 77 183s113.333 76 186 76z" />
    <glyph glyph-name="eight.blacksquare" unicode="&#x38;&#x20de;&#x25a0;" 
d="M862 798c-18.667 0 -34 6.16699 -46 18.5s-18 28.166 -18 47.499c0 20.667 5.83301 37.334 17.5 50.001s27.167 19 46.5 19s35 -6.33301 47 -19s18 -29.334 18 -50.001c0 -19.333 -6.16699 -35.166 -18.5 -47.499s-27.833 -18.5 -46.5 -18.5zM862 509
c-22.667 0 -40.667 7.16504 -54 21.498s-20 33.166 -20 56.499c0 22.667 6.83301 41.334 20.5 56.001s31.5 22 53.5 22c22.667 0 40.834 -7.16699 54.501 -21.5s20.5 -33.166 20.5 -56.499s-6.83301 -42.166 -20.5 -56.499s-31.834 -21.5 -54.501 -21.5zM862 337.998
c112.667 0 200.832 19.999 264.499 59.999s95.5 95.667 95.5 167c0 48 -15.167 87.167 -45.5 117.5s-72.5 48.833 -126.5 55.5v5c48.667 13.333 84.167 32.333 106.5 57s33.5 57 33.5 97c0 63.333 -29.333 113.166 -88 149.499s-138.667 54.5 -240 54.5
s-181.166 -18.167 -239.499 -54.5s-87.5 -86.166 -87.5 -149.499c0 -40.667 11 -73.167 33 -97.5s57.667 -43.166 107 -56.499v-5c-54 -6.66699 -96.167 -25.167 -126.5 -55.5s-45.5 -69.5 -45.5 -117.5c0 -70.667 31.833 -126.167 95.5 -166.5s151.5 -60.5 263.5 -60.5z
M370.998 1478h982c72.667 0 134.667 -25.333 186 -76s77 -111.667 77 -183v-994c0 -71.333 -25.667 -132.333 -77 -183s-113.333 -76 -186 -76h-982c-72.667 0 -134.667 25.333 -186 76s-77 111.667 -77 183v994c0 71.333 25.667 132.333 77 183s113.333 76 186 76z" />
    <glyph glyph-name="nine.blacksquare" unicode="&#x39;&#x20de;&#x25a0;" 
d="M519 828c0 -70.667 19.9971 -124.833 59.9971 -162.5s96.333 -56.5 169 -56.5c38 0 72.833 8 104.5 24s55.834 37 72.501 63h8c8 -44.667 4 -83 -12 -115s-39.667 -48 -71 -48c-28 0 -49.667 11.667 -65 35h-250c8.66699 -67.333 42.334 -122.5 101.001 -165.5
s129.667 -64.5 213 -64.5c108.667 0 194.834 33.167 258.501 99.5s95.5 156.5 95.5 270.5c0 120.667 -32.167 216.667 -96.5 288s-150.833 107 -259.5 107c-96.667 0 -175.5 -25.5 -236.5 -76.5s-91.5 -117.167 -91.5 -198.5zM922.997 833.001
c0 -22 -6.50098 -39.833 -19.501 -53.5s-30.5 -20.5 -52.5 -20.5s-40 6.83301 -54 20.5s-21 31.5 -21 53.5c0 22.667 6.83301 40.834 20.5 54.501s31.834 20.5 54.501 20.5c22 0 39.5 -6.83301 52.5 -20.5s19.5 -31.834 19.5 -54.501zM370.996 1478h982
c72.667 0 134.667 -25.333 186 -76s77 -111.667 77 -183v-994c0 -71.333 -25.667 -132.333 -77 -183s-113.333 -76 -186 -76h-982c-72.667 0 -134.667 25.333 -186 76s-77 111.667 -77 183v994c0 71.333 25.667 132.333 77 183s113.333 76 186 76z" />
    <glyph glyph-name="plus.uc.blacksquare" unicode="&#x2b;&#x20de;&#x25a0;" 
d="M989 597h213v244h-213v219h-254v-219h-213v-244h213v-217h254v217zM371 1478h982c72.667 0 134.667 -25.333 186 -76s77 -111.667 77 -183v-994c0 -71.333 -25.667 -132.333 -77 -183s-113.333 -76 -186 -76h-982c-72.667 0 -134.667 25.333 -186 76s-77 111.667 -77 183
v994c0 71.333 25.667 132.333 77 183s113.333 76 186 76z" />
    <glyph glyph-name="minus.uc.blacksquare" unicode="&#x2212;&#x20de;&#x25a0;" 
d="M1156 592v254h-588v-254h588zM371 1478h982c72.667 0 134.667 -25.333 186 -76s77 -111.667 77 -183v-994c0 -71.333 -25.667 -132.333 -77 -183s-113.333 -76 -186 -76h-982c-72.667 0 -134.667 25.333 -186 76s-77 111.667 -77 183v994c0 71.333 25.667 132.333 77 183
s113.333 76 186 76z" />
    <glyph glyph-name="multiply.uc.blacksquare" unicode="&#xd7;&#x20de;&#x25a0;" 
d="M861 901l-167 167l-180 -180l167 -167l-167 -167l180 -180l167 167l167 -167l180 180l-167 167l167 167l-180 180zM371 1478h982c72.667 0 134.667 -25.333 186 -76s77 -111.667 77 -183v-994c0 -71.333 -25.667 -132.333 -77 -183s-113.333 -76 -186 -76h-982
c-72.667 0 -134.667 25.333 -186 76s-77 111.667 -77 183v994c0 71.333 25.667 132.333 77 183s113.333 76 186 76z" />
    <glyph glyph-name="divide.uc.blacksquare" unicode="&#xf7;&#x20de;&#x25a0;" 
d="M738 977c0 -30.667 11.833 -56.167 35.5 -76.5s53.167 -30.5 88.5 -30.5s64.833 10.167 88.5 30.5s35.5 45.833 35.5 76.5s-11.833 56.167 -35.5 76.5s-53.167 30.5 -88.5 30.5s-64.833 -10.167 -88.5 -30.5s-35.5 -45.833 -35.5 -76.5zM1156 626v188h-588v-188h588z
M738 463c0 -30.667 11.833 -56.167 35.5 -76.5s53.167 -30.5 88.5 -30.5s64.833 10.167 88.5 30.5s35.5 45.833 35.5 76.5s-11.833 56.167 -35.5 76.5s-53.167 30.5 -88.5 30.5s-64.833 -10.167 -88.5 -30.5s-35.5 -45.833 -35.5 -76.5zM371 1478h982
c72.667 0 134.667 -25.333 186 -76s77 -111.667 77 -183v-994c0 -71.333 -25.667 -132.333 -77 -183s-113.333 -76 -186 -76h-982c-72.667 0 -134.667 25.333 -186 76s-77 111.667 -77 183v994c0 71.333 25.667 132.333 77 183s113.333 76 186 76z" />
    <glyph glyph-name="equal.uc.blacksquare" unicode="&#x3d;&#x20de;&#x25a0;" 
d="M1187 772v214h-650v-214h650zM1187 450v213h-650v-213h650zM371 1478h982c72.667 0 134.667 -25.333 186 -76s77 -111.667 77 -183v-994c0 -71.333 -25.667 -132.333 -77 -183s-113.333 -76 -186 -76h-982c-72.667 0 -134.667 25.333 -186 76s-77 111.667 -77 183v994
c0 71.333 25.667 132.333 77 183s113.333 76 186 76z" />
    <glyph glyph-name="greater.uc.blacksquare" unicode="&#x3e;&#x20de;&#x25a0;" 
d="M1187 793l-602 277v-254l247 -91v-5l-247 -107v-243l602 277v146zM371 1478h982c72.667 0 134.667 -25.333 186 -76s77 -111.667 77 -183v-994c0 -71.333 -25.667 -132.333 -77 -183s-113.333 -76 -186 -76h-982c-72.667 0 -134.667 25.333 -186 76s-77 111.667 -77 183
v994c0 71.333 25.667 132.333 77 183s113.333 76 186 76z" />
    <glyph glyph-name="less.uc.blacksquare" unicode="&#x3c;&#x20de;&#x25a0;" 
d="M537 647l602 -277v243l-247 107v5l247 91v254l-602 -277v-146zM371 1478h982c72.667 0 134.667 -25.333 186 -76s77 -111.667 77 -183v-994c0 -71.333 -25.667 -132.333 -77 -183s-113.333 -76 -186 -76h-982c-72.667 0 -134.667 25.333 -186 76s-77 111.667 -77 183v994
c0 71.333 25.667 132.333 77 183s113.333 76 186 76z" />
    <glyph glyph-name="numbersign.blacksquare" unicode="&#x23;&#x20de;&#x25a0;" 
d="M810 789h123l-24 -133h-125zM1181 755l36 185.999h-94l28 152h-200l-27 -152h-53l31 152h-200l-28 -152h-97l-35 -186h99l-11 -53h-93l-37 -186h93l-31 -164h196l34 164h50l-31 -164h198l32 164h100l36 186h-97c5.33301 32.667 8.33301 50.334 9 53.001h92zM371 1478h982
c72.667 0 134.667 -25.333 186 -76s77 -111.667 77 -183v-994c0 -71.333 -25.667 -132.333 -77 -183s-113.333 -76 -186 -76h-982c-72.667 0 -134.667 25.333 -186 76s-77 111.667 -77 183v994c0 71.333 25.667 132.333 77 183s113.333 76 186 76z" />
    <glyph glyph-name="uni25BC.blacksquare" unicode="&#x25bc;&#x20de;&#x25a0;" 
d="M1215 982h-705l352 -610zM371 1478h982c72.667 0 134.667 -25.333 186 -76s77 -111.667 77 -183v-994c0 -71.333 -25.667 -132.333 -77 -183s-113.333 -76 -186 -76h-982c-72.667 0 -134.667 25.333 -186 76s-77 111.667 -77 183v994c0 71.333 25.667 132.333 77 183
s113.333 76 186 76z" />
    <glyph glyph-name="uni25B2.blacksquare" unicode="&#x25b2;&#x20de;&#x25a0;" 
d="M1215 483l-353 610l-352 -610h705zM371 1478h982c72.667 0 134.667 -25.333 186 -76s77 -111.667 77 -183v-994c0 -71.333 -25.667 -132.333 -77 -183s-113.333 -76 -186 -76h-982c-72.667 0 -134.667 25.333 -186 76s-77 111.667 -77 183v994
c0 71.333 25.667 132.333 77 183s113.333 76 186 76z" />
    <glyph glyph-name="uni25C0.blacksquare" unicode="&#x25c0;&#x20de;&#x25a0;" 
d="M1092 381v703l-611 -351zM371 1478h982c72.667 0 134.667 -25.333 186 -76s77 -111.667 77 -183v-994c0 -71.333 -25.667 -132.333 -77 -183s-113.333 -76 -186 -76h-982c-72.667 0 -134.667 25.333 -186 76s-77 111.667 -77 183v994c0 71.333 25.667 132.333 77 183
s113.333 76 186 76z" />
    <glyph glyph-name="uni25B6.blacksquare" unicode="&#x25b6;&#x20de;&#x25a0;" 
d="M632 381l611 352l-611 351v-703zM371 1478h982c72.667 0 134.667 -25.333 186 -76s77 -111.667 77 -183v-994c0 -71.333 -25.667 -132.333 -77 -183s-113.333 -76 -186 -76h-982c-72.667 0 -134.667 25.333 -186 76s-77 111.667 -77 183v994
c0 71.333 25.667 132.333 77 183s113.333 76 186 76z" />
    <glyph glyph-name="question.blacksquare" unicode="&#x3f;&#x20de;&#x25a0;" 
d="M703 429c0 -76.667 50.665 -115 151.998 -115c48.667 0 85.834 9.83301 111.501 29.5s38.5 48.167 38.5 85.5c0 35.333 -13.167 62.833 -39.5 82.5s-63.166 29.5 -110.499 29.5c-101.333 0 -152 -37.333 -152 -112zM884.998 1101
c-103.333 0 -181.501 -21.166 -234.501 -63.499s-79.5 -104.5 -79.5 -186.5l258 6c0 33.333 11 50 33 50c24 0 36 -14.333 36 -43c0 -16.667 -8.16699 -31.167 -24.5 -43.5s-37 -26 -62 -41s-44.167 -31.167 -57.5 -48.5c-24.667 -28.667 -37 -63.334 -37 -104.001
c0 -13.333 1.66699 -24.666 5 -33.999h243c0 16.667 4.5 29.667 13.5 39s31.167 24 66.5 44c54 33.333 88.833 61.666 104.5 84.999s23.5 59 23.5 107c0 69.333 -26.667 125.5 -80 168.5s-122.666 64.5 -207.999 64.5zM370.997 1478h982c72.667 0 134.667 -25.333 186 -76
s77 -111.667 77 -183v-994c0 -71.333 -25.667 -132.333 -77 -183s-113.333 -76 -186 -76h-982c-72.667 0 -134.667 25.333 -186 76s-77 111.667 -77 183v994c0 71.333 25.667 132.333 77 183s113.333 76 186 76z" />
    <glyph glyph-name="exclam.blacksquare" unicode="&#x21;&#x20de;&#x25a0;" 
d="M711 1094l31 -496h245l34 496h-310zM715 429c0 -36.667 13.167 -64.833 39.5 -84.5s63.833 -29.5 112.5 -29.5c100.667 0 151 38 151 114c0 35.333 -13 62.833 -39 82.5s-63.333 29.5 -112 29.5s-86.167 -9.66699 -112.5 -29s-39.5 -47 -39.5 -83zM371 1478h982
c72.667 0 134.667 -25.333 186 -76s77 -111.667 77 -183v-994c0 -71.333 -25.667 -132.333 -77 -183s-113.333 -76 -186 -76h-982c-72.667 0 -134.667 25.333 -186 76s-77 111.667 -77 183v994c0 71.333 25.667 132.333 77 183s113.333 76 186 76z" />
    <glyph glyph-name="uni2717.blacksquare" unicode="&#x2717;&#x20de;&#x25a0;" 
d="M489 922l204 -204l-206 -206l168 -168l205 205l203 -203l170 169l-204 203l204 204l-170 168l-203 -203l-203 203zM371 1478h982c72.667 0 134.667 -25.333 186 -76s77 -111.667 77 -183v-994c0 -71.333 -25.667 -132.333 -77 -183s-113.333 -76 -186 -76h-982
c-72.667 0 -134.667 25.333 -186 76s-77 111.667 -77 183v994c0 71.333 25.667 132.333 77 183s113.333 76 186 76z" />
    <glyph glyph-name="uni2713.blacksquare" unicode="&#x2713;&#x20de;&#x25a0;" 
d="M742 343l586 568l-173 181l-408 -409l-192 192l-178 -175zM371 1478h982c72.667 0 134.667 -25.333 186 -76s77 -111.667 77 -183v-994c0 -71.333 -25.667 -132.333 -77 -183s-113.333 -76 -186 -76h-982c-72.667 0 -134.667 25.333 -186 76s-77 111.667 -77 183v994
c0 71.333 25.667 132.333 77 183s113.333 76 186 76z" />
    <glyph glyph-name=".notdef" horiz-adv-x="2048" 
d="M100 -494v128h1848v-128h-1848zM100 -31v128h1848v-128h-1848zM100 432v129h1848v-129h-1848zM100 896v128h1848v-128h-1848zM100 1359v128h1848v-128h-1848zM100 1822v128h1848v-128h-1848z" />
    <glyph glyph-name="space" unicode=" " horiz-adv-x="390" 
 />
    <glyph glyph-name="exclam" unicode="!" horiz-adv-x="749" 
d="M165 1443h420l-36 -972h-348zM375 -40c-59.333 0 -109.666 19.333 -150.999 58s-62 86 -62 142c0 55.333 20.667 102.333 62 141s91.666 58 150.999 58c58 0 107.833 -19.333 149.5 -58s62.5 -85.667 62.5 -141c0 -56 -20.833 -103.333 -62.5 -142s-91.5 -58 -149.5 -58z
" />
    <glyph glyph-name="quotedbl" unicode="&#x22;" horiz-adv-x="1050" 
d="M421 826h-340v617h340v-617zM969 826h-340v617h340v-617z" />
    <glyph glyph-name="numbersign" unicode="#" horiz-adv-x="1377" 
d="M636 0l71 357h-191l-71 -357h-299l70 357h-216l54 287h217l35 177h-214l54 284h216l67 339h299l-66 -339h191l66 339h301l-66 -339h223l-53 -284h-227l-34 -177h221l-53 -287h-224l-70 -357h-301zM537 610h244l51 244h-246z" />
    <glyph glyph-name="dollar" unicode="$" horiz-adv-x="1413" 
d="M793 -136l-148.003 -0.000976562v121c-179.333 8 -317.666 50.5 -414.999 127.5s-146.333 182.167 -147 315.5h401c1.33301 -36.667 17.5 -69 48.5 -97s68.5 -44 112.5 -48v261l-131 27c-134 28 -235.333 78.5 -304 151.5s-103 166.833 -103 281.5
c0 135.333 46.667 243.166 140 323.499s226 126.166 398 137.499v135h148v-137c155.333 -15.333 278.666 -63 369.999 -143s137.333 -181 138 -303h-387c-1.33301 32.667 -13.666 62.334 -36.999 89.001s-51.333 43.334 -84 50.001v-257l129 -22
c134.667 -23.333 236.334 -70.666 305.001 -141.999s103 -165 103 -281c0 -136 -46.167 -244.167 -138.5 -324.5s-225.166 -127.833 -398.499 -142.5v-123zM935.997 403.999c0 61.333 -47.667 100.001 -143 116.001v-236c44.667 4 79.667 16.667 105 38s38 48.666 38 81.999
zM513.997 1045c0 -59.333 43.667 -98.332 131 -116.999v230c-39.333 -2.66699 -71 -14.334 -95 -35.001s-36 -46.667 -36 -78z" />
    <glyph glyph-name="percent" unicode="%" horiz-adv-x="1841" 
d="M750 1091c0 -120.667 -31.667 -215.667 -95 -285s-150 -104 -260 -104s-196.667 34.667 -260 104s-95 164.333 -95 285s31.667 215.667 95 285s150 104 260 104s196.667 -34.667 260 -104s95 -164.333 95 -285zM395 934c21.333 0 37.833 14 49.5 42s17.5 67.333 17.5 118
s-5.83301 90 -17.5 118s-28.167 42 -49.5 42s-37.833 -14 -49.5 -42s-17.5 -67.333 -17.5 -118s5.83301 -90 17.5 -118s28.167 -42 49.5 -42zM550 0h-310l563 773l488 670h310l-547 -751zM1801 363c0 -120.667 -31.667 -215.667 -95 -285s-150 -104 -260 -104
s-196.667 34.667 -260 104s-95 164.333 -95 285s31.667 215.667 95 285s150 104 260 104s196.667 -34.667 260 -104s95 -164.333 95 -285zM1446 206c21.333 0 37.833 14 49.5 42s17.5 67.333 17.5 118s-5.83301 90 -17.5 118s-28.167 42 -49.5 42s-37.833 -14 -49.5 -42
s-17.5 -67.333 -17.5 -118s5.83301 -90 17.5 -118s28.167 -42 49.5 -42z" />
    <glyph glyph-name="ampersand" unicode="&#x26;" horiz-adv-x="1504" 
d="M1097 0l-89.001 93.999c-46 -38 -107.167 -67.833 -183.5 -89.5s-159.166 -32.5 -248.499 -32.5c-163.333 0 -291.333 35.333 -384 106s-139 168.334 -139 293.001c0 80 19.833 148.833 59.5 206.5s103.834 111.834 192.501 162.501l74 41
c-65.333 66 -111.333 123.333 -138 172s-40 99.667 -40 153c0 101.333 42.667 185 128 251s193.666 99 324.999 99c130.667 0 236.5 -31 317.5 -93s121.5 -143.333 121.5 -244c0 -150.667 -91.667 -277.334 -275 -380.001l192 -207c22.667 37.333 34 91 34 161v109h321v-142
c0 -66 -11.333 -132.333 -34 -199s-53 -122.667 -91 -168l284 -293h-427zM519.999 565.999c-34.667 -22.667 -59.833 -46.668 -75.5 -72.001s-23.5 -54.666 -23.5 -87.999c0 -48.667 18.167 -87.5 54.5 -116.5s84.5 -43.5 144.5 -43.5c40 0 77 6 111 18s59.333 28 76 48
l-255 270c-12 -4.66699 -22.667 -10 -32 -16zM645 909.998c87.333 46.667 130.998 105.001 130.998 175.001c0 36.667 -11.167 66.667 -33.5 90s-51.166 35 -86.499 35c-36 0 -65.833 -11.833 -89.5 -35.5s-35.5 -53.167 -35.5 -88.5c0 -26.667 8.33301 -52.834 25 -78.501
s46.334 -58.167 89.001 -97.5z" />
    <glyph glyph-name="quotesingle" unicode="'" horiz-adv-x="502" 
d="M421 826h-340v617h340v-617z" />
    <glyph glyph-name="parenleft" unicode="(" horiz-adv-x="904" 
d="M174 565c0 180 24.833 341.167 74.5 483.5s127.834 273.833 234.501 394.5h391c-78 -92 -143.333 -219.5 -196 -382.5s-79 -327.5 -79 -493.5c0 -165.333 26.333 -329.833 79 -493.5s118 -292.5 196 -386.5h-391c-106.667 122.667 -184.834 255.167 -234.501 397.5
s-74.5 302.5 -74.5 480.5z" />
    <glyph glyph-name="parenright" unicode=")" horiz-adv-x="904" 
d="M730 565c0 -178 -24.833 -338.168 -74.5 -480.501s-127.834 -274.833 -234.501 -397.5h-391c78 94 143.333 222.833 196 386.5s79 328.167 79 493.5c0 166 -26.333 330.333 -79 493s-118 290.334 -196 383.001h391c106.667 -120.667 184.834 -252.167 234.501 -394.5
s74.5 -303.5 74.5 -483.5z" />
    <glyph glyph-name="asterisk" unicode="*" horiz-adv-x="1000" 
d="M798 798l-219 170l40 -274h-234l40 273l-219 -169l-117 202l252 102l-253 104l118 205l215 -166l-37 269h237l-38 -266l214 164l119 -206l-255 -104l255 -101z" />
    <glyph glyph-name="plus" unicode="+" horiz-adv-x="1413" 
d="M887 414v-416h-361v416h-390v348h390v416h361v-416h390v-348h-390z" />
    <glyph glyph-name="comma" unicode="," horiz-adv-x="618" 
d="M387 -344h-292l53 617h370z" />
    <glyph glyph-name="hyphen" unicode="&#x2011;" horiz-adv-x="931" 
d="M795 414h-659v348h659v-348z" />
    <glyph glyph-name="hyphen" unicode="-" horiz-adv-x="931" 
d="M795 414h-659v348h659v-348z" />
    <glyph glyph-name="period" unicode="." horiz-adv-x="618" 
d="M309 -14c-57.333 0 -106.333 20.333 -147 61s-61 89.667 -61 147s20.333 106.333 61 147s89.667 61 147 61s106.333 -20.333 147 -61s61 -89.667 61 -147s-20.333 -106.333 -61 -147s-89.667 -61 -147 -61z" />
    <glyph glyph-name="slash" unicode="/" horiz-adv-x="904" 
d="M390 -313h-390l514 1756h390z" />
    <glyph glyph-name="zero" unicode="0" horiz-adv-x="1423" 
d="M712 -40c-196 0 -350.999 68.168 -464.999 204.501s-171 323.166 -171 560.499c0 238 57.167 424 171.5 558s269.166 201 464.499 201s350 -66.833 464 -200.5s171 -319.5 171 -557.5c0 -237.333 -57 -424.333 -171 -561s-268.667 -205 -464 -205zM712.001 286.001
c61.333 0 110.501 37.333 147.501 112s55.5 183.667 55.5 327s-18.333 251.333 -55 324s-86 109 -148 109s-111.5 -36.333 -148.5 -109s-55.5 -180.667 -55.5 -324s18.667 -252.333 56 -327s86.666 -112 147.999 -112z" />
    <glyph glyph-name="one" unicode="1" horiz-adv-x="1058" 
d="M440 0v1080h-8l-354 -234v355l362 242h424v-1443h-424z" />
    <glyph glyph-name="two" unicode="2" horiz-adv-x="1311" 
d="M62 990c0 148 53.668 267.165 161.001 357.498s250 135.5 428 135.5c173.333 0 310.833 -40.167 412.5 -120.5s152.5 -186.5 152.5 -318.5c0 -37.333 -6.33301 -75.166 -19 -113.499s-27.167 -71.166 -43.5 -98.499s-37.333 -56 -63 -86s-46.167 -52.333 -61.5 -67
s-34 -31.667 -56 -51l-339 -300v-8h599v-320h-1146v282l580 513c49.333 44 85.166 84.5 107.499 121.5s33.5 75.167 33.5 114.5c0 40 -15.333 73.167 -46 99.5s-72.667 39.5 -126 39.5c-55.333 0 -100.5 -16.667 -135.5 -50s-52.5 -76.333 -52.5 -129v-9h-386v8z" />
    <glyph glyph-name="three" unicode="3" horiz-adv-x="1367" 
d="M495 594v284.002h176c55.333 0 99.166 13.333 131.499 40s48.5 63 48.5 109c0 45.333 -16.333 81.166 -49 107.499s-78 39.5 -136 39.5c-56.667 0 -102.667 -15.833 -138 -47.5s-53 -72.834 -53 -123.501h-382c0.666992 144.667 55 260.834 163 348.501
s250.667 131.5 428 131.5c170.667 0 306.167 -35.833 406.5 -107.5s150.5 -168.5 150.5 -290.5c0 -85.333 -28 -157.833 -84 -217.5s-128.333 -97.5 -217 -113.5v-8c107.333 -12 192.666 -48.167 255.999 -108.5s95 -139.166 95 -236.499
c0 -134.667 -56.667 -241.834 -170 -321.501s-265.666 -119.5 -456.999 -119.5c-174.667 0 -316.167 43.833 -424.5 131.5s-166.166 205.167 -173.499 352.5h404c1.33301 -48 20 -85.833 56 -113.5s85 -41.5 147 -41.5c56 0 101.167 14.167 135.5 42.5
s51.5 65.833 51.5 112.5c0 47.333 -16.833 84.166 -50.5 110.499s-80.5 39.5 -140.5 39.5h-174z" />
    <glyph glyph-name="four" unicode="4" horiz-adv-x="1414" 
d="M776 0v213.999h-710v351c122 238.667 296.667 531.334 524 878.001h586v-904h172v-325h-172v-214h-400zM418 533.999v-12h370v643h-8c-84 -129.333 -151.667 -237.833 -203 -325.5s-104.333 -189.5 -159 -305.5z" />
    <glyph glyph-name="five" unicode="5" horiz-adv-x="1362" 
d="M700 -40c-171.333 0 -311.832 44 -421.499 132s-165.167 201 -166.5 339h381c8.66699 -44.667 32.5 -81 71.5 -109s85.167 -42 138.5 -42c60 0 108.5 19 145.5 57s55.5 87 55.5 147c0 63.333 -18.333 114.333 -55 153s-85.334 58 -146.001 58
c-40.667 0 -78.334 -9.16699 -113.001 -27.5s-62.667 -44.166 -84 -77.499h-371l64 853h1009v-320h-683l-22 -320h8c26.667 54.667 67.5 97.667 122.5 129s120.5 47 196.5 47c136.667 0 249.334 -45.5 338.001 -136.5s133 -207.167 133 -348.5
c0 -160.667 -55 -289.834 -165 -387.501s-255.333 -146.5 -436 -146.5z" />
    <glyph glyph-name="six" unicode="6" horiz-adv-x="1407" 
d="M728 -40c-100 0 -191.168 17.334 -273.501 52.001s-151.166 85.667 -206.499 153c-114.667 137.333 -172 323 -172 557s59 419.333 177 556s275.667 205 473 205c152 0 282.667 -39.833 392 -119.5s172.666 -181.167 189.999 -304.5h-411
c-9.33301 31.333 -30 56.666 -62 75.999s-68.667 29 -110 29c-82 0 -146.5 -40.167 -193.5 -120.5s-65.167 -186.5 -54.5 -318.5h8c26.667 72.667 71.334 130.167 134.001 172.5s140 63.5 232 63.5c136 0 249.167 -45 339.5 -135s135.5 -203.333 135.5 -340
c0 -102 -25.333 -193 -76 -273s-121.5 -142.167 -212.5 -186.5s-194.167 -66.5 -309.5 -66.5zM723.999 281.001c55.333 0 102 18.5 140 55.5s57 82.833 57 137.5c0 54 -19 99.333 -57 136s-84.667 55 -140 55s-101.833 -18.333 -139.5 -55s-56.5 -82 -56.5 -136
c0 -54.667 18.833 -100.5 56.5 -137.5s84.167 -55.5 139.5 -55.5z" />
    <glyph glyph-name="seven" unicode="7" horiz-adv-x="1223" 
d="M154 0l589 1115v8h-692v320h1110v-319l-563 -1124h-444z" />
    <glyph glyph-name="eight" unicode="8" horiz-adv-x="1445" 
d="M722 -40c-196.667 0 -353.5 39.335 -470.5 118.002s-175.5 183 -175.5 313c0 99.333 34.167 182.833 102.5 250.5s156.833 107.167 265.5 118.5v8c-90.667 15.333 -165 53.666 -223 114.999s-87 133.666 -87 216.999c0 112 54.5 203.833 163.5 275.5
s250.5 107.5 424.5 107.5s315.5 -36 424.5 -108s163.5 -164 163.5 -276c0 -82 -29 -153.833 -87 -215.5s-131.667 -100.167 -221 -115.5v-8c108.667 -11.333 197 -50.833 265 -118.5s102 -151.5 102 -251.5c0 -128.667 -59.333 -232.5 -178 -311.5s-275 -118.5 -469 -118.5z
M722 242.002c58.667 0 106.5 17 143.5 51s55.5 77 55.5 129s-18.5 95 -55.5 129s-84.833 51 -143.5 51s-106.5 -17 -143.5 -51s-55.5 -77 -55.5 -129s18.5 -95 55.5 -129s84.833 -51 143.5 -51zM722 883.002c48.667 0 89.167 15.333 121.5 46s48.5 68.334 48.5 113.001
c0 45.333 -16.167 83.333 -48.5 114s-72.833 46 -121.5 46s-89 -15.333 -121 -46s-48 -68.667 -48 -114c0 -44.667 16 -82.334 48 -113.001s72.333 -46 121 -46z" />
    <glyph glyph-name="nine" unicode="9" horiz-adv-x="1415" 
d="M686 -40c-100.667 0 -193.831 18.166 -279.498 54.499s-155.5 86.833 -209.5 151.5s-86.667 137.667 -98 219h413c9.33301 -31.333 30.833 -56.666 64.5 -75.999s72.5 -29 116.5 -29c81.333 0 144.5 39.167 189.5 117.5s62.167 185.5 51.5 321.5h-4h-2h-2
c-22.667 -71.333 -65.667 -128.5 -129 -171.5s-142.333 -64.5 -237 -64.5c-135.333 0 -249 45.167 -341 135.5s-138 203.5 -138 339.5c0 101.333 25.833 192 77.5 272s123.167 142.167 214.5 186.5s194.333 66.5 309 66.5c101.333 0 193.666 -17.333 276.999 -52
s152.666 -85.334 207.999 -152.001c114.667 -137.333 172 -323 172 -557c0 -235.333 -58.167 -421.166 -174.5 -557.499s-275.833 -204.5 -478.5 -204.5zM688.003 779.999c54.667 0 100.834 18.333 138.501 55s56.5 82 56.5 136c0 54.667 -18.833 100.5 -56.5 137.5
s-83.834 55.5 -138.501 55.5c-55.333 0 -102.166 -18.667 -140.499 -56s-57.5 -83 -57.5 -137s19.167 -99.333 57.5 -136s85.166 -55 140.499 -55z" />
    <glyph glyph-name="colon" unicode=":" horiz-adv-x="618" 
d="M309 -14c-57.333 0 -106.333 20.333 -147 61s-61 89.667 -61 147s20.333 106.333 61 147s89.667 61 147 61s106.333 -20.333 147 -61s61 -89.667 61 -147s-20.333 -106.333 -61 -147s-89.667 -61 -147 -61zM309 680c-57.333 0 -106.333 20.333 -147 61
s-61 89.667 -61 147s20.333 106.333 61 147s89.667 61 147 61s106.333 -20.333 147 -61s61 -89.667 61 -147s-20.333 -106.333 -61 -147s-89.667 -61 -147 -61z" />
    <glyph glyph-name="semicolon" unicode=";" horiz-adv-x="618" 
d="M309 680c-57.333 0 -106.333 20.333 -147 61s-61 89.667 -61 147s20.333 106.333 61 147s89.667 61 147 61s106.333 -20.333 147 -61s61 -89.667 61 -147s-20.333 -106.333 -61 -147s-89.667 -61 -147 -61zM375 -344h-292l53 617h370z" />
    <glyph glyph-name="less" unicode="&#x3c;" horiz-adv-x="1413" 
d="M1220 832l-606 -239v-11l606 -239v-395l-1027 485v309l1027 485v-395z" />
    <glyph glyph-name="equal" unicode="=" horiz-adv-x="1413" 
d="M1266 138h-1119v349h1119v-349zM1266 689h-1119v349h1119v-349z" />
    <glyph glyph-name="greater" unicode="&#x3e;" horiz-adv-x="1413" 
d="M193 832v395l1027 -485v-309l-1027 -485v395l606 239v11z" />
    <glyph glyph-name="question" unicode="?" horiz-adv-x="1184" 
d="M51 1010c0 138 47.832 246.999 143.499 326.999s226.5 120 392.5 120c160 0 287.667 -37.333 383 -112s143 -174.667 143 -300c0 -72.667 -17.167 -135.167 -51.5 -187.5s-89.833 -100.5 -166.5 -144.5c-70.667 -40.667 -118 -75 -142 -103s-36 -64.333 -36 -109v-42
h-355l-3 24c-12.667 90.667 -6.83398 162 17.499 214s71.833 98.333 142.5 139c71.333 41.333 118.333 74.833 141 100.5s34 58.834 34 99.501c0 33.333 -12.667 60.5 -38 81.5s-57.666 31.5 -96.999 31.5s-71.666 -13 -96.999 -39s-38.333 -59.333 -39 -100h-372z
M546.999 -40.001c-58.667 0 -108.667 19.333 -150 58s-62 86 -62 142c0 55.333 20.667 102.333 62 141s91.333 58 150 58s108.834 -19.333 150.501 -58s62.5 -85.667 62.5 -141c0 -56 -20.833 -103.333 -62.5 -142s-91.834 -58 -150.501 -58z" />
    <glyph glyph-name="at" unicode="@" horiz-adv-x="1828" 
d="M897 806c-39.333 0 -70 -16.5 -92 -49.5s-33 -78.833 -33 -137.5c0 -58 11 -103.333 33 -136s52.667 -49 92 -49c38.667 0 69 16.333 91 49s33 78 33 136c0 58.667 -11 104.5 -33 137.5s-52.333 49.5 -91 49.5zM927 1463c159.333 0 300.501 -31.165 423.501 -93.498
s218.5 -150.333 286.5 -264s102 -244.5 102 -392.5c0 -155.333 -36.667 -278 -110 -368s-173.333 -135 -300 -135c-66.667 0 -122.167 12.667 -166.5 38s-74.5 61.333 -90.5 108h-20c-40 -99.333 -116.333 -149 -229 -149c-104 0 -187.5 38.333 -250.5 115
s-94.5 178.334 -94.5 305.001c0 121.333 29.833 219.166 89.5 293.499s138.167 111.5 235.5 111.5c54.667 0 102.167 -12.333 142.5 -37s70.5 -59.667 90.5 -105h20v117h254v-483c0 -36 6.83301 -64 20.5 -84s32.834 -30 57.501 -30c38.667 0 69.167 24.333 91.5 73
s33.5 114.667 33.5 198c0 182 -52.667 325.833 -158 431.5s-248 158.5 -428 158.5c-190.667 0 -344.834 -59.5 -462.501 -178.5s-176.5 -275.167 -176.5 -468.5c0 -194.667 61.167 -348.334 183.5 -461.001s288.833 -169 499.5 -169c86 0 156 7.33301 210 22v-194
c-70 -16.667 -149.333 -25 -238 -25c-130 0 -249.667 20.167 -359 60.5s-202.333 96.666 -279 168.999s-136.334 160.166 -179.001 263.499s-64 216 -64 338c0 162.667 36.333 307.334 109 434.001s174.667 225.167 306 295.5s281.333 105.5 450 105.5z" />
    <glyph glyph-name="A" unicode="A" horiz-adv-x="1534" 
d="M1052 0l-75 287h-440l-75 -287h-432l471 1443h532l471 -1443h-452zM753 1110l-139 -524h286l-139 524h-8z" />
    <glyph glyph-name="B" unicode="B" horiz-adv-x="1382" 
d="M833 0l-732.999 0.00488281v1443h709c147.333 0 262.166 -31.833 344.499 -95.5s123.5 -151.834 123.5 -264.501c0 -82 -27.667 -151.833 -83 -209.5s-125.333 -91.834 -210 -102.501v-8c98.667 -2.66699 183 -36.834 253 -102.501s105 -145.834 105 -240.501
c0 -126.667 -46.333 -228.334 -139 -305.001s-216 -115 -370 -115zM524.001 1152l-0.000976562 -287h164c54 0 97 13 129 39s48 61 48 105c0 44.667 -15.167 79.667 -45.5 105s-72.166 38 -125.499 38h-170zM524 291.005h181c66 0 116.833 14.5 152.5 43.5
s53.5 70.5 53.5 124.5c0 51.333 -18 91.333 -54 120s-85.667 43 -149 43h-184v-331z" />
    <glyph glyph-name="C" unicode="C" horiz-adv-x="1513" 
d="M781 -25c-222.667 0 -397.664 65.502 -524.997 196.502s-191 314.5 -191 550.5s63.667 419.333 191 550s302.333 196 525 196c126 0 239.833 -25.333 341.5 -76s181.834 -122.334 240.501 -215.001s88 -197.667 88 -315h-406c-4.66699 82 -31.334 148 -80.001 198
s-110 75 -184 75c-87.333 0 -156.5 -36.667 -207.5 -110s-76.5 -174 -76.5 -302c0 -130 25.333 -231.667 76 -305s120.334 -110 209.001 -110c73.333 0 134.166 24.833 182.499 74.5s75.833 116.167 82.5 199.5h406c-0.666992 -118 -29.834 -223.333 -87.501 -316
s-137.334 -164.334 -239.001 -215.001s-216.834 -76 -345.501 -76z" />
    <glyph glyph-name="D" unicode="D" horiz-adv-x="1477" 
d="M100 1443h617c220.667 0 391.667 -61.167 513 -183.5s182 -298.166 182 -527.499c0 -230.667 -61.167 -410.334 -183.5 -539.001s-292.833 -193 -511.5 -193h-617v1443zM524 1106v-769h133c215.333 0 323 131.667 323 395c0 120.667 -28.167 213.167 -84.5 277.5
s-135.833 96.5 -238.5 96.5h-133z" />
    <glyph glyph-name="E" unicode="E" horiz-adv-x="1216" 
d="M1118 337v-337h-1018v1443h1018v-337h-594v-233h557v-304h-557v-232h594z" />
    <glyph glyph-name="F" unicode="F" horiz-adv-x="1164" 
d="M524 0h-424v1443h1014v-337h-590v-277h534v-318h-534v-511z" />
    <glyph glyph-name="G" unicode="G" horiz-adv-x="1530" 
d="M1462 614c0 -198 -59.167 -353.999 -177.5 -467.999s-281.833 -171 -490.5 -171c-230 0 -409 65 -537 195s-192 314.333 -192 553c0 235.333 63.333 418.333 190 549s302 196 526 196c180 0 331.667 -47.667 455 -143s193 -217.333 209 -366h-417
c-14 53.333 -43.167 95.833 -87.5 127.5s-96.833 47.5 -157.5 47.5c-90 0 -160.167 -35.5 -210.5 -106.5s-75.5 -170.5 -75.5 -298.5c0 -130.667 27.667 -233.334 83 -308.001s130 -112 224 -112c68.667 0 125.667 17.667 171 53s71 82 77 140l2 20h-220v282h628v-190z" />
    <glyph glyph-name="H" unicode="H" horiz-adv-x="1556" 
d="M1456 0h-424v558h-508v-558h-424v1443h424v-548h508v548h424v-1443z" />
    <glyph glyph-name="I" unicode="I" horiz-adv-x="624" 
d="M524 0h-424v1443h424v-1443z" />
    <glyph glyph-name="J" unicode="J" horiz-adv-x="1271" 
d="M20 511l406 -0.000976562c0 -56.667 13.833 -101 41.5 -133s65.834 -48 114.501 -48c46.667 0 82.167 14.833 106.5 44.5s36.5 72.834 36.5 129.501v939h424v-942c0 -168 -49.333 -297.667 -148 -389s-236.334 -137 -413.001 -137c-175.333 0 -313.833 47.667 -415.5 143
s-152.5 226.333 -152.5 393z" />
    <glyph glyph-name="K" unicode="K" horiz-adv-x="1445" 
d="M524 0h-424v1443h424v-612h8l446 612h445l-475 -641l497 -802h-493l-315 530l-113 -152v-378z" />
    <glyph glyph-name="L" unicode="L" horiz-adv-x="1150" 
d="M1090 337v-337h-990v1443h424v-1106h566z" />
    <glyph glyph-name="M" unicode="M" horiz-adv-x="1833" 
d="M1733 0h-370v836h-8l-325 -819h-227l-325 819h-8v-836h-370v1443h490l323 -842h8l322 842h490v-1443z" />
    <glyph glyph-name="N" unicode="N" horiz-adv-x="1494" 
d="M500 0h-400v1443h329l557 -748h8v748h400v-1443h-325l-561 760h-8v-760z" />
    <glyph glyph-name="O" unicode="O" horiz-adv-x="1584" 
d="M792 1468c223.333 0 400.333 -67 531 -201s196 -316 196 -546s-65.333 -411.833 -196 -545.5s-307.667 -200.5 -531 -200.5c-224 0 -401.167 66.833 -531.5 200.5s-195.5 315.5 -195.5 545.5s65.333 412 196 546s307.667 201 531 201zM792 1130
c-88.667 0 -160 -37 -214 -111s-81 -173.333 -81 -298c0 -124 26.833 -223 80.5 -297s125.167 -111 214.5 -111s160.833 37 214.5 111s80.5 173 80.5 297c0 124.667 -27 224 -81 298s-125.333 111 -214 111z" />
    <glyph glyph-name="P" unicode="P" horiz-adv-x="1346" 
d="M100 1443h659.001c161.333 0 291.166 -47.667 389.499 -143s147.5 -223 147.5 -383c0 -158 -52 -284.667 -156 -380s-240.667 -143 -410 -143h-206v-394h-424v1443zM524.001 1124l0.000976562 -417h119c71.333 0 126.666 17.833 165.999 53.5s59 87.5 59 155.5
c0 67.333 -19.5 118.833 -58.5 154.5s-93.5 53.5 -163.5 53.5h-122z" />
    <glyph glyph-name="Q" unicode="Q" horiz-adv-x="1583" 
d="M792 -25c-224.667 0 -402 66.167 -532 198.5s-195 314.833 -195 547.5c0 229.333 65.333 411.166 196 545.499s307.667 201.5 531 201.5c222.667 0 399.334 -67.167 530.001 -201.5s196 -316.166 196 -545.499c0 -116 -16.833 -220.5 -50.5 -313.5
s-82.834 -169.167 -147.501 -228.5l175 -287h-384l-72 117c-76 -22.667 -158.333 -34 -247 -34zM792 307c19.333 0 37.001 2.00098 53.001 6.00098l-136 223h345l3 -4c19.333 60 29 123 29 189c0 124.667 -26.833 225 -80.5 301s-124.834 114 -213.501 114
s-160 -37.833 -214 -113.5s-81 -176.167 -81 -301.5c0 -124.667 26.833 -224.834 80.5 -300.501s125.167 -113.5 214.5 -113.5z" />
    <glyph glyph-name="R" unicode="R" horiz-adv-x="1395" 
d="M524 1130l0.000976562 -366h175c59.333 0 106.166 16.667 140.499 50s51.5 77.333 51.5 132c0 54 -17.667 98.167 -53 132.5s-81.333 51.5 -138 51.5h-176zM524.001 484v-484h-424v1443h641c190.667 0 335.5 -42.667 434.5 -128s148.5 -206 148.5 -362
c0 -87.333 -20.5 -168 -61.5 -242s-98.167 -128.667 -171.5 -164l274 -547h-474l-228 484h-139z" />
    <glyph glyph-name="S" unicode="S" horiz-adv-x="1370" 
d="M60 425l401.002 0.000976562c6 -40 30.667 -72.667 74 -98s94 -38 152 -38c62.667 0 112.5 11.333 149.5 34s55.5 51.667 55.5 87c0 33.333 -15 58.833 -45 76.5s-84.333 33.5 -163 47.5l-191 34c-132 22.667 -233.167 70.667 -303.5 144s-105.5 166.666 -105.5 279.999
c0 144 55.333 259.333 166 346s253.334 130 428.001 130c190 0 337.333 -40.667 442 -122s157.667 -192.666 159 -333.999h-387c-1.33301 44 -21.333 78.833 -60 104.5s-87.334 38.5 -146.001 38.5c-55.333 0 -99.333 -10.667 -132 -32s-49 -50 -49 -86
c0 -34 15.333 -61 46 -81s80.667 -36 150 -48l198 -34c140 -24.667 243.5 -70.834 310.5 -138.501s100.5 -160.167 100.5 -277.5c0 -147.333 -57.167 -264.666 -171.5 -351.999s-267.5 -131 -459.5 -131c-194.667 0 -346.334 39.167 -455.001 117.5
s-163.334 189.166 -164.001 332.499z" />
    <glyph glyph-name="T" unicode="T" horiz-adv-x="1274" 
d="M849 0h-424v1106h-380v337h1184v-337h-380v-1106z" />
    <glyph glyph-name="U" unicode="U" horiz-adv-x="1472" 
d="M524 1443l-0.00195312 -882c0 -76 18.167 -134.167 54.5 -174.5s88.833 -60.5 157.5 -60.5s121.167 20.167 157.5 60.5s54.5 98.5 54.5 174.5v882h424v-929c0 -164 -58.167 -294.833 -174.5 -392.5s-270.166 -146.5 -461.499 -146.5s-345.166 48.833 -461.499 146.5
s-174.5 228.5 -174.5 392.5v929h424z" />
    <glyph glyph-name="V" unicode="V" horiz-adv-x="1486" 
d="M1018 0h-550l-438 1443h488l231 -1041h8l231 1041h468z" />
    <glyph glyph-name="W" unicode="W" horiz-adv-x="2062" 
d="M1027 826l-215 -826h-400l-372 1443h438l166 -912h8l215 912h328l215 -912h8l166 912h438l-372 -1443h-400l-215 826h-8z" />
    <glyph glyph-name="X" unicode="X" horiz-adv-x="1507" 
d="M41 0l425 723v8l-426 712h494l227 -460h8l228 460h470l-447 -714v-8l445 -721h-472l-248 435h-9l-247 -435h-448z" />
    <glyph glyph-name="Y" unicode="Y" horiz-adv-x="1470" 
d="M947 0h-424v457l-493 986h453l253 -585h8l253 585h443l-493 -986v-457z" />
    <glyph glyph-name="Z" unicode="Z" horiz-adv-x="1321" 
d="M80 0v266l643 832v8h-637v337h1131v-265l-641 -833v-8h665v-337h-1161z" />
    <glyph glyph-name="bracketleft" unicode="[" horiz-adv-x="904" 
d="M200 1443h674v-294h-281v-1168h281v-294h-674v1756z" />
    <glyph glyph-name="backslash" unicode="\" horiz-adv-x="904" 
d="M504 -313l-504 1756h400l504 -1756h-400z" />
    <glyph glyph-name="bracketright" unicode="]" horiz-adv-x="904" 
d="M704 1443v-1756h-674v294h281v1168h-281v294h674z" />
    <glyph glyph-name="asciicircum" unicode="^" horiz-adv-x="1060" 
d="M520 1095l-151 -289h-335l334 596h329l329 -596h-348l-140 289h-18z" />
    <glyph glyph-name="underscore" unicode="_" horiz-adv-x="886" 
d="M924 -415h-962v308h962v-308z" />
    <glyph glyph-name="grave" unicode="`" horiz-adv-x="1015" 
d="M797 1275h-314l-265 321h347z" />
    <glyph glyph-name="a" unicode="a" horiz-adv-x="1213" 
d="M561 258c47.333 0 88.333 12.167 123 36.5s52 56.166 52 95.499v72l-174 -12c-38.667 -2.66699 -68.667 -12.667 -90 -30s-32 -39.666 -32 -66.999c0 -29.333 11 -52.5 33 -69.5s51.333 -25.5 88 -25.5zM408 -16c-102.667 0 -190.333 31.832 -263 95.499
s-109 144.167 -109 241.5c0 105.333 39.167 186.833 117.5 244.5s191.833 91.167 340.5 100.5l242 15v54c0 36 -12.333 64 -37 84s-56.667 30 -96 30c-40.667 0 -74 -9.66699 -100 -29s-40.667 -43.666 -44 -72.999h-366c5.33301 118.667 55.333 212.5 150 281.5
s222 103.5 382 103.5c152.667 0 276 -34.833 370 -104.5s141 -160.5 141 -272.5v-755h-400v148h-8c-28 -52 -71.5 -92.333 -130.5 -121s-122.167 -43 -189.5 -43z" />
    <glyph glyph-name="b" unicode="b" horiz-adv-x="1310" 
d="M833 -16c-80.667 0 -149.833 18.168 -207.5 54.501s-99.5 87.166 -125.5 152.499h-8v-191h-410v1443h410v-538h8c26 68 67.5 120.833 124.5 158.5s124.833 56.5 203.5 56.5c139.333 0 246.333 -49 321 -147s112 -238.333 112 -421c0 -182 -37 -322.167 -111 -420.5
s-179.667 -147.5 -317 -147.5zM666.001 804.001c-53.333 0 -95.832 -22.833 -127.499 -68.5s-47.834 -107.167 -48.501 -184.5c0.666992 -78 16.667 -139.333 48 -184s74 -67 128 -67c53.333 0 95.833 22.667 127.5 68s47.5 106.666 47.5 183.999
c0 76.667 -15.833 137.834 -47.5 183.501s-74.167 68.5 -127.5 68.5z" />
    <glyph glyph-name="c" unicode="c" horiz-adv-x="1205" 
d="M1161 647l-373 0.000976562c-4 55.333 -20.333 99.166 -49 131.499s-65 48.5 -109 48.5c-54 0 -95.167 -23.333 -123.5 -70s-42.5 -114.667 -42.5 -204c0 -90 14 -158.5 42 -205.5s69.333 -70.5 124 -70.5c46 0 83 15.167 111 45.5s43.667 72.833 47 127.5h373
c-2 -149.333 -50.667 -266.333 -146 -351s-225.333 -127 -390 -127c-179.333 0 -320.166 51.5 -422.499 154.5s-153.5 245.167 -153.5 426.5c0 180 51.167 321.5 153.5 424.5s242.5 154.5 420.5 154.5c161.333 0 290.666 -43.667 387.999 -131s147.333 -205.333 150 -354z
" />
    <glyph glyph-name="d" unicode="d" horiz-adv-x="1305" 
d="M479 -16c-136 0 -241.669 50.166 -317.002 150.499s-113 240.5 -113 420.5c0 177.333 38.5 315.833 115.5 415.5s184.167 149.5 321.5 149.5c78.667 0 146.834 -19.833 204.501 -59.5s97.5 -91.5 119.5 -155.5h8v538h410v-1443h-410v191h-8
c-19.333 -59.333 -59.166 -108.666 -119.499 -147.999s-130.833 -59 -211.5 -59zM643.998 803.999c-54.667 0 -97.5 -22.501 -128.5 -67.501s-46.5 -106.5 -46.5 -184.5c0 -79.333 15.333 -141.166 46 -185.499s73.667 -66.5 129 -66.5s98.5 22 129.5 66
s46.5 105.667 46.5 185s-15.667 141.333 -47 186s-74.333 67 -129 67z" />
    <glyph glyph-name="e" unicode="e" horiz-adv-x="1224" 
d="M622 850c-46.667 0 -86 -15.333 -118 -46s-50 -69.667 -54 -117h344c-3.33301 49.333 -20.833 88.833 -52.5 118.5s-71.5 44.5 -119.5 44.5zM806 358l364.999 -0.000976562c-17.333 -119.333 -74.666 -213.5 -171.999 -282.5s-221.666 -103.5 -372.999 -103.5
c-180.667 0 -322 50.833 -424 152.5s-153 242.167 -153 421.5c0 180.667 50.667 323.5 152 428.5s238.666 157.5 411.999 157.5c171.333 0 308 -50.5 410 -151.5s153 -235.833 153 -404.5v-111h-732v-26c0 -54 17.667 -98.5 53 -133.5s80.333 -52.5 135 -52.5
c42 0 78.5 9.33301 109.5 28s52.5 44.334 64.5 77.001z" />
    <glyph glyph-name="f" unicode="f" horiz-adv-x="835" 
d="M176 0v807h-146v287h146v46c0 112.667 31.667 194.167 95 244.5s172 75.5 326 75.5c74 0 138 -5.66699 192 -17v-245c-20 4 -46 6 -78 6c-91.333 0 -137 -28 -137 -84v-26h212v-287h-200v-807h-410z" />
    <glyph glyph-name="g" unicode="g" horiz-adv-x="1305" 
d="M644 310c56 0 99.333 20.5 130 61.5s46 100.833 46 179.5s-15.667 140.5 -47 185.5s-74.333 67.5 -129 67.5s-97.5 -22.5 -128.5 -67.5s-46.5 -106.5 -46.5 -184.5c0 -78.667 15.167 -138.667 45.5 -180s73.5 -62 129.5 -62zM628 -416
c-164 0 -295.169 32.167 -393.502 96.5s-151.833 148.833 -160.5 253.5h394c6 -26.667 24.333 -48.5 55 -65.5s68.667 -25.5 114 -25.5c59.333 0 104.333 14 135 42s46 66 46 114v212h-8c-18 -58.667 -57 -106.167 -117 -142.5s-131 -54.5 -213 -54.5
c-131.333 0 -236 47.5 -314 142.5s-117 227.833 -117 398.5c0 177.333 38.5 315.833 115.5 415.5s184.167 149.5 321.5 149.5c78.667 0 146.834 -19.833 204.501 -59.5s97.5 -91.5 119.5 -155.5h8v199h410v-1095c0 -130 -55.167 -233.333 -165.5 -310
s-255.166 -115 -434.499 -115z" />
    <glyph glyph-name="h" unicode="h" horiz-adv-x="1289" 
d="M82 0v1443h400v-556h8c27.333 77.333 70.5 136.5 129.5 177.5s130.5 61.5 214.5 61.5c123.333 0 217.833 -36.5 283.5 -109.5s98.5 -176.167 98.5 -309.5v-707h-410v616c0 56 -13.5 99.833 -40.5 131.5s-65.833 47.5 -116.5 47.5c-50 0 -88.667 -16.333 -116 -49
s-41 -75.667 -41 -129v-617h-410z" />
    <glyph glyph-name="i" unicode="i" horiz-adv-x="564" 
d="M77 0v1104h410v-1104h-410zM282 1165c-58 0 -106.5 18.5 -145.5 55.5s-58.5 83.167 -58.5 138.5s19.5 101.5 58.5 138.5s87.5 55.5 145.5 55.5s106.5 -18.5 145.5 -55.5s58.5 -83.167 58.5 -138.5s-19.5 -101.5 -58.5 -138.5s-87.5 -55.5 -145.5 -55.5z" />
    <glyph glyph-name="j" unicode="j" horiz-adv-x="564" 
d="M487 1104v-1152c0 -112 -39.167 -199.167 -117.5 -261.5s-187.833 -93.5 -328.5 -93.5c-52 0 -94 2 -126 6v285c12 -2 27.667 -3 47 -3c40 0 69.167 6.83301 87.5 20.5s27.5 35.167 27.5 64.5v1134h410zM282 1165c-58 0 -106.5 18.5 -145.5 55.5
s-58.5 83.167 -58.5 138.5s19.5 101.5 58.5 138.5s87.5 55.5 145.5 55.5s106.5 -18.5 145.5 -55.5s58.5 -83.167 58.5 -138.5s-19.5 -101.5 -58.5 -138.5s-87.5 -55.5 -145.5 -55.5z" />
    <glyph glyph-name="k" unicode="k" horiz-adv-x="1209" 
d="M500 705l268 399h451l-367 -471l393 -633h-471l-228 388l-54 -72v-316h-410v1443h410v-738h8z" />
    <glyph glyph-name="l" unicode="l" horiz-adv-x="574" 
d="M82 0v1443h410v-1443h-410z" />
    <glyph glyph-name="m" unicode="m" horiz-adv-x="1891" 
d="M77 0v1104h400v-223h8c20.667 74.667 59.667 134.167 117 178.5s123.666 66.5 198.999 66.5c84 0 152.833 -21.167 206.5 -63.5s87.167 -102.166 100.5 -179.499h8c18.667 73.333 58.834 132.166 120.501 176.499s134.5 66.5 218.5 66.5
c107.333 0 194.666 -35.167 261.999 -105.5s101 -161.833 101 -274.5v-746h-410v640c0 104.667 -44.667 157 -134 157c-41.333 0 -73.666 -13.833 -96.999 -41.5s-35 -65.834 -35 -114.501v-641h-389v639c0 105.333 -44.333 158 -133 158c-41.333 0 -73.833 -14 -97.5 -42
s-35.5 -66 -35.5 -114v-641h-410z" />
    <glyph glyph-name="n" unicode="n" horiz-adv-x="1280" 
d="M77 0l0.00195312 1104h400v-217h8c28 78 70.667 137.333 128 178s127.666 61 210.999 61c123.333 0 218.166 -36.5 284.499 -109.5s99.5 -176.167 99.5 -309.5v-707h-410v616c0 56.667 -13.167 100.667 -39.5 132s-64.833 47 -115.5 47c-48 0 -86 -16.5 -114 -49.5
s-42 -75.833 -42 -128.5v-617h-410z" />
    <glyph glyph-name="o" unicode="o" horiz-adv-x="1259" 
d="M629 -28c-181.333 0 -323.333 50.498 -426 151.498s-154 244.167 -154 429.5c0 180.667 52.167 322.334 156.5 425.001s245.5 154 423.5 154c179.333 0 321 -51.167 425 -153.5s156 -244.166 156 -425.499c0 -185.333 -51.333 -328.5 -154 -429.5
s-245 -151.5 -427 -151.5zM629 264.998c51.333 0 91.668 25 121.001 75s44 120.667 44 212c0 89.333 -14.833 159.5 -44.5 210.5s-69.834 76.5 -120.501 76.5s-90.667 -25.5 -120 -76.5s-44 -121.167 -44 -210.5c0 -92 14.333 -162.833 43 -212.5s69 -74.5 121 -74.5z" />
    <glyph glyph-name="p" unicode="p" horiz-adv-x="1305" 
d="M824 1120c138.667 0 245.333 -48.999 320 -146.999s112 -238.333 112 -421c0 -182 -37 -322.167 -111 -420.5s-179.333 -147.5 -316 -147.5c-80.667 0 -150 18.167 -208 54.5s-100 87.166 -126 152.499h-8v-544h-410v1457h411v-199h7c26.667 68 68.5 120.833 125.5 158.5
s124.833 56.5 203.5 56.5zM660.999 300.001c54 0 96.668 22.667 128.001 68s47 106.666 47 183.999c0 76.667 -15.833 137.834 -47.5 183.501s-74.167 68.5 -127.5 68.5s-95.833 -22.833 -127.5 -68.5s-47.834 -107.167 -48.501 -184.5
c0.666992 -77.333 16.667 -138.5 48 -183.5s74 -67.5 128 -67.5z" />
    <glyph glyph-name="q" unicode="q" horiz-adv-x="1305" 
d="M486 1120c78.667 0 146.833 -19.834 204.5 -59.501s97.5 -91.5 119.5 -155.5h8v199h410v-1457h-410v544h-8c-18.667 -59.333 -58.167 -108.666 -118.5 -147.999s-130.833 -59 -211.5 -59c-136 0 -241.833 50.167 -317.5 150.5s-113.5 240.5 -113.5 420.5
c0 177.333 38.5 315.833 115.5 415.5s184.167 149.5 321.5 149.5zM643.999 299.999c55.333 0 98.5 21.999 129.5 65.999s46.5 105.667 46.5 185s-15.667 141.333 -47 186s-74.333 67 -129 67s-97.5 -22.5 -128.5 -67.5s-46.5 -106.5 -46.5 -184.5
c0 -79.333 15.333 -141.166 46 -185.499s73.667 -66.5 129 -66.5z" />
    <glyph glyph-name="r" unicode="r" horiz-adv-x="859" 
d="M77 0v1104h400v-217h8c41.333 155.333 127.333 233 258 233c35.333 0 67.333 -5.33301 96 -16v-344c-36 15.333 -75.667 23 -119 23c-155.333 0 -233 -77.667 -233 -233v-550h-410z" />
    <glyph glyph-name="s" unicode="s" horiz-adv-x="1156" 
d="M58 761c0 115.333 45.999 205.999 137.999 271.999s218.333 99 379 99c161.333 0 287.5 -34 378.5 -102s136.5 -162.333 136.5 -283h-372c0 36 -13.167 64.5 -39.5 85.5s-61.833 31.5 -106.5 31.5c-36.667 0 -66.167 -6.83301 -88.5 -20.5s-33.5 -32.167 -33.5 -55.5
c0 -34.667 35.667 -58.667 107 -72l249 -49c109.333 -21.333 189.5 -56.5 240.5 -105.5s76.5 -115.5 76.5 -199.5c0 -119.333 -49.167 -214.166 -147.5 -284.499s-228.833 -105.5 -391.5 -105.5c-170 0 -302.5 34.5 -397.5 103.5s-146.167 163.167 -153.5 282.5h396
c4 -36.667 20.167 -65.5 48.5 -86.5s65.5 -31.5 111.5 -31.5c40 0 71.333 6.5 94 19.5s34 30.833 34 53.5c0 17.333 -8 31.5 -24 42.5s-42.667 19.833 -80 26.5l-213 42c-111.333 22 -196.166 61.833 -254.499 119.5s-87.5 130.167 -87.5 217.5z" />
    <glyph glyph-name="t" unicode="t" horiz-adv-x="838" 
d="M176 1346h409.999v-242h194v-297h-194v-408c0 -70 41.333 -105 124 -105c26.667 0 50 1.66699 70 5v-284c-48.667 -10 -105 -15 -169 -15c-155.333 0 -266.666 24 -333.999 72s-101 126.667 -101 236v499h-146v297h146v242z" />
    <glyph glyph-name="u" unicode="u" horiz-adv-x="1280" 
d="M1203 1104l-0.00195312 -1104h-400v217h-8c-22.667 -76.667 -60.167 -135.667 -112.5 -177s-118.833 -62 -199.5 -62c-121.333 0 -220.166 37.5 -296.499 112.5s-114.5 176.833 -114.5 305.5v708h410v-616c0 -57.333 14.333 -101.5 43 -132.5s67.334 -46.5 116.001 -46.5
c46 0 82.833 16.333 110.5 49s41.5 75.667 41.5 129v617h410z" />
    <glyph glyph-name="v" unicode="v" horiz-adv-x="1172" 
d="M1183 1104l-354 -1104h-481l-359 1104h442l160 -773h8l155 773h429z" />
    <glyph glyph-name="w" unicode="w" horiz-adv-x="1771" 
d="M1762 1104l-278 -1104h-445l-154 711h-8l-151 -711h-437l-280 1104h415l117 -745h8l145 745h391l147 -745h8l117 745h405z" />
    <glyph glyph-name="x" unicode="x" horiz-adv-x="1200" 
d="M591 347h-8l-152 -347h-421l318 548l-319 556h464l135 -335h8l134 335h441l-319 -548l319 -556h-442z" />
    <glyph glyph-name="y" unicode="y" horiz-adv-x="1229" 
d="M265 -405h-146v305h79c58 0 100.5 5.5 127.5 16.5s40.5 28.833 40.5 53.5c0 10 -1.66699 20 -5 30l-362 1104h455l168 -810h8l167 810h433l-329 -1078c-46.667 -153.333 -119.5 -263.5 -218.5 -330.5s-238.167 -100.5 -417.5 -100.5z" />
    <glyph glyph-name="z" unicode="z" horiz-adv-x="1111" 
d="M58 0v208l493 584v8h-477v304h957v-243l-432 -549v-8h454v-304h-995z" />
    </font>
</defs>
</svg>
